<?xml version="1.0" encoding="utf-8" ?><svg xmlns="http://www.w3.org/2000/svg" xmlns:xlink="http://www.w3.org/1999/xlink" width="1024" height="1024" viewBox="0 0 1024 1024"><path fill="#0F2530" d="M821.823 22.6589C822.99 23.0026 824.339 23.2098 824.662 24.4672C842.874 95.3967 892.369 154.426 950.629 196.977C961.48 204.902 975.377 211.074 987.526 219.053C986.001 224.53 985.001 230.025 983.203 235.49C964.09 293.59 930.684 351.861 882.732 390.585C895.795 403.681 908.196 415.897 921.763 428.506C927.998 434.301 941.629 446.973 946.61 453.14C946.468 453.213 946.325 453.285 946.182 453.357L945.461 453.701C938.597 457.047 925.406 457.864 917.221 460.21C915.283 553.208 885.878 635.398 829.282 709.439C758.374 802.203 647.234 864.712 531.857 880.596C532.142 885.908 534.503 906.077 532.834 909.66C528.623 909.739 484.699 883.094 477.54 878.935C469.071 874.015 446.214 861.846 439.477 855.869C447.874 847.349 460.232 837.398 469.359 829.492C480.848 819.54 492.431 809.082 504.031 799.36C444.855 767.909 404.675 732.593 368.315 675.692C358.684 660.621 346.823 640.443 339.522 624.136C315.7 622.254 291.093 616.965 278.166 594.902C274.468 607.117 271.487 625.112 264.626 635.889C262.996 638.45 259.341 638.468 256.426 638.784C255.522 641.642 254.089 645.203 253.025 648.073C275.904 687.956 296.475 729.768 313.347 772.549C316.528 780.615 318.556 788.247 317.159 796.941C310.219 840.146 297.526 882.36 286.84 924.746C285.749 929.072 284.511 933.819 282.64 937.837C281.414 940.467 272.146 941.755 269.584 942.297C268.247 965.703 268.939 962.433 290.19 966.35C303.383 967.437 313.405 974.526 311.316 988.961C309.622 991.731 307.772 993.402 304.809 994.786C292.369 1000.59 243.449 1001.72 230.56 996.302C227.022 994.814 225.298 991.862 223.862 988.483C225.148 979.56 228.348 966.377 231.833 958.101C236.004 948.195 238.29 951.861 240.034 940.118C237.564 939.276 236.804 939.176 234.807 937.613C231.243 932.139 245.476 817.371 247.958 800.825C236.373 784.827 221.047 765.539 208.328 750.544C199.173 769.286 191.544 792.164 181.687 810.688C167.501 837.348 148.923 863.86 131.836 888.871C119.074 907.55 105.047 930.883 91.2872 948.288C87.9054 948.248 83.7859 948.177 80.5133 947.471C79.2291 950.502 77.8597 954.645 76.7132 957.814C85.6723 967.929 101.539 965.892 110.627 975.978C114.432 980.201 115.536 990.606 109.804 993.203C91.8827 1001.24 66.1945 999.167 47.044 996.72C39.0476 995.699 29.5741 989.574 33.3612 980.2C36.662 972.031 40.383 953.786 47.1537 947.839C52.4312 943.203 51.4269 942.993 53.5867 936.355C51.6096 934.591 50.2675 933.082 48.5082 931.136C51.4556 920.855 58.3884 908.314 62.5009 898.019C73.0637 871.576 83.7246 845.082 95.0511 818.962C99.2635 809.248 105.963 801.138 109.795 791.362C113.015 781.721 114.611 771.39 116.603 761.441C125.925 714.897 137.436 669.783 150.005 624.046C146.275 616.545 148.915 614.25 153.345 607.801C147.854 599.453 156.403 581.458 159.662 572.602C172.707 537.15 187.302 500.533 212.036 471.415C221.329 460.475 235.313 454.734 249.366 453.654C253.093 446.551 255.183 442.21 258.372 434.783C251.829 427.112 252.437 423.784 252.5 414.103C249.065 413.854 239.954 413.831 238.734 410.204C240.698 407.28 246.236 407.726 248.448 403.73C252.092 397.146 240.241 379.71 250.079 362.172C257.384 349.149 271.268 343.526 284.941 339.685C284.329 335.247 284.054 327.914 283.743 323.254L281.666 287.796C299.599 279.04 319.723 270.206 337.961 261.897L416.004 226.235C445.374 212.941 477.967 196.981 507.482 184.679L570.611 211.095C566.581 187.359 568.726 134.155 575.712 110.742C585.988 111.453 596.8 112.765 607.065 113.001C633.197 113.602 660.618 110.04 686.044 104.359C734.182 93.602 794.867 66.1386 821.823 22.6589ZM328.14 314.09C328.189 326.689 329.107 340.279 329.517 352.998C335.443 357.442 340.994 362.031 347.942 364.294C351.851 365.568 363.055 363.593 362.762 368.62C361.463 390.879 351.081 397.515 331.87 397.622C332.403 445.681 342.558 514.082 364.022 557.769C369.081 556.72 378.242 553.873 382.915 556.596C387.209 559.098 388.048 566.268 390.078 570.021C393.399 576.163 393.986 574.912 394.176 581.872C395.722 582.546 399.833 582.316 401.758 582.385C414.29 582.829 426.725 591.686 426.191 605.412C424.938 608.087 420.411 613.903 417.702 614.676C413.92 615.756 407.721 613.158 403.618 613.361C397.983 613.641 393.093 615.795 387.92 617.806C405.554 650.583 430.682 685.638 458.669 710.239C472.909 722.823 487.756 734.833 503.864 744.949C587.583 694.107 642.545 595.605 664.197 502.614C668.039 486.114 674.806 455.35 675.227 438.454C666.224 427.294 658.339 418.389 649.677 406.623C616.81 361.975 597.751 318.141 580.864 265.713C570.056 262.285 510.046 233.123 505.3 233.438C492.093 240.057 475.335 246.718 461.389 253.162L328.14 314.09ZM761.598 174.717C710.286 177.702 671.095 221.695 674.034 273.01C676.972 324.325 720.929 363.556 772.247 360.665C823.631 357.77 862.924 313.743 859.982 262.362C857.039 210.98 812.977 171.727 761.598 174.717ZM525.802 811.832C534.005 811.016 544.777 808.536 552.888 806.823C656.825 781.299 740.571 728.189 798.054 635.747C822.196 596.923 838.169 553.729 845.213 508.603C846.85 498.118 848.606 483.652 848.41 473.053C843.173 474.371 825.591 479.413 821.697 478.101C819.684 475.635 821.835 474.275 822.694 471.808C825.362 464.143 847.099 423.2 846.67 418.557C810.94 440.574 761.099 462.708 718.575 465.646C716.986 483.831 711.083 508.153 706.476 525.854C684.233 611.305 641.532 695.497 573.061 753.062C559.607 764.373 538.64 779.249 523.412 788.893C524.358 796.506 525.059 804.192 525.802 811.832ZM826.452 474.004C831.305 472.843 852.701 464.773 852.393 473.347C846.719 631.448 724.763 766.125 574.406 805.475C566.266 807.605 529.57 817.163 523.13 815.326C520.547 812.553 520.007 796.094 519.769 791.773C510.144 798.527 494.749 812.582 485.6 820.616C473.355 831.371 457.205 844.354 445.745 855.631L488.124 880.453C501.859 888.772 515.679 896.921 529.916 904.364C529.342 898.961 527.06 882.506 528.741 877.97C531.265 876.06 558.992 871.773 564.549 870.565C695.975 841.978 812.664 755.49 871.428 633.621C899.362 575.69 913.841 520.996 913.064 456.358C921.416 454.678 930.993 453.162 939.087 451.325C920.309 432.506 900.956 414.361 881.916 395.816C877.488 391.503 872.45 386.905 868.343 382.329C853.819 412.206 840.102 443.606 826.452 474.004ZM706.726 461.468C756.316 462.544 810.224 436.619 851.017 410.635C853.911 403.982 863.503 380.769 866.501 376.316C872.238 379.869 874.971 383.553 879.721 388.012C924.905 347.566 951.626 309.505 973.327 252.123C977.203 241.54 979.69 234.457 982.346 223.585C970.874 226.751 958.875 229.794 947.676 233.718C945.914 234.336 942.216 251.695 941.28 254.496C937.464 265.918 933.496 277.169 928.231 288.024C898.039 351.871 835.332 399.962 769.888 423.642C750.909 430.509 733.473 434.693 713.378 436.221C702.822 424.74 691.805 413.383 682.165 401.323C628.032 333.598 591.339 244.368 602.282 156.531C602.76 152.691 603.198 148.809 603.728 144.955C595.467 134.846 586.849 127.101 578.275 117.817C574.706 129.928 573.58 146.57 572.948 159.198C569.629 225.49 589.262 294.848 620.678 352.823C638.648 385.987 675.34 439.767 706.726 461.468ZM266.241 938.545C269.79 938.628 275.902 936.917 279.518 935.987C280.637 932.688 281.738 929.053 282.617 925.678C290.99 893.508 299.897 861.313 307.16 828.875C309.912 816.583 314.007 800.692 313.527 788.198C313.167 778.833 305.463 764.959 302.224 755.969C286.829 719.801 269.948 683.981 249.458 650.41C244.457 650.908 241.93 651.208 236.892 651.024C249.873 677.339 298.587 767.09 298.914 790.097C299.054 799.888 296.261 810.396 294.247 819.937C291.197 834.386 287.888 848.717 284.423 863.072L273.898 904.972C271.118 915.69 267.696 927.591 266.241 938.545ZM823.628 34.345C820.693 40.2427 815.755 70.5192 814.199 79.0278C843.265 140.104 890.005 191.965 946.057 229.502C952.399 227.815 958.823 226.156 965.125 224.356C970.542 222.852 974.862 221.734 980.096 219.681C970.008 213.526 959.508 208.351 949.902 201.393C895.536 162.014 848.674 108.733 826.669 44.4866C825.592 41.3432 824.519 38.096 823.745 34.8538L823.628 34.345ZM594.45 128.772C598.842 133.65 603.122 138.31 607.657 143.056C621.64 142.834 637.331 141.184 651.223 139.421C707.649 132.258 764.275 113.248 810.126 78.772C811.177 71.2984 817.351 42.0614 816.926 37.4325C810.359 44.3768 803.771 51.4536 796.277 57.4149C753.487 91.4531 699.798 108.946 646.022 115.263C623.971 117.853 603.198 117.757 581.148 115.316C585.656 119.697 590.053 124.274 594.45 128.772ZM51.4153 951.662C59.0054 954.505 62.1249 955.608 70.394 954.064C74.7757 952.702 74.7997 951.56 76.6841 947.419C69.1761 945.929 63.4342 943.885 57.0943 939.378L51.4153 951.662ZM82.3521 944.063C84.6646 944.259 87.0069 944.406 89.3241 944.57C103.966 924.49 118.115 902.604 132.047 881.771C148.064 857.819 167.125 831.262 179.678 805.512C188.725 786.954 197.744 765.534 205.437 746.487C202.313 742.555 199.148 738.056 195.973 733.988C185.653 759.25 173.956 790.273 160.196 813.447C140.454 846.697 118.098 879.016 99.7224 913.234C94.8184 922.366 86.0523 934.997 82.3521 944.063Z"/><path fill="#0F2530" d="M552.373 400.179C556.731 399.907 562.459 400.418 566.781 401.072C637.969 411.851 634.651 531.332 560.876 535.673C524.504 538.451 497.964 512.498 495.01 477.174C493.333 457.903 496.399 436.922 508.913 421.481C520.362 407.354 534.741 401.836 552.373 400.179ZM562.268 507.537C569.604 505.483 575.629 501.826 579.186 494.807C592.053 469.413 587.876 427.009 551.271 428.546C545.411 430.074 541.935 431.166 537.464 435.742C517.767 455.903 525.108 515.408 562.268 507.537Z"/><path fill="#ADCBAD" d="M552.498 404.703C565.996 403.222 582.373 408.751 592.878 417.292C619.642 439.052 620.302 487.474 598.938 513.054C589.111 524.82 575.746 530.471 560.622 531.793C546.944 532.966 531.024 528.174 520.365 519.602C503.184 505.65 497.382 483.072 498.971 461.705C501.483 427.928 518.961 408.177 552.498 404.703ZM562.268 507.537C569.604 505.483 575.629 501.826 579.186 494.807C592.053 469.413 587.876 427.009 551.271 428.546C545.411 430.074 541.935 431.166 537.464 435.742C517.767 455.903 525.108 515.408 562.268 507.537Z"/><path fill="#0F2530" d="M549.915 424.628C590.788 420.766 597.911 468.822 582.5 497.2C578.216 505.089 571.964 509.102 563.46 511.398C522.6 517.304 514.456 467.671 529.335 439.485C533.619 431.371 541.193 426.89 549.915 424.628ZM562.268 507.537C569.604 505.483 575.629 501.826 579.186 494.807C592.053 469.413 587.876 427.009 551.271 428.546C545.411 430.074 541.935 431.166 537.464 435.742C517.767 455.903 525.108 515.408 562.268 507.537Z"/><path fill="#0F2530" d="M391.102 402.218C401.938 401.938 410.888 402.198 424.025 402.267C433.058 402.315 465.262 400.802 474.229 404.321C476.354 405.155 475.984 420.697 475.795 424.948C472.102 430.423 450.016 452 444.045 457.186C456.854 458.951 471.034 464.253 477.147 476.467C486.792 495.739 476.712 520.108 457.54 528.914C438.193 537.8 417.933 536.007 398.336 529.208C393.499 527.407 377.922 520.502 378.324 514.532C378.721 508.634 389.94 497.371 394.295 493.322C409.323 504.487 423.966 512.55 442.841 504.03C462.131 479.162 423.081 480.32 409.329 476.377L408.59 476.161C408.071 471.045 408.343 464.693 408.418 459.461C415.086 450.987 428.232 437.679 436.029 429.374C424.02 428.553 392.49 429.866 383.232 427.484C382.379 421.121 381.866 408.455 384.054 402.683L391.102 402.218Z"/><path fill="#ADCBAD" d="M387.032 406.565C415.084 406.295 443.638 406.387 471.648 407.008C471.897 412.927 471.663 418.193 471.443 424.102C466.714 430.129 438.219 455.394 438.674 459.635C441.509 462.117 450.662 462.925 454.769 464.095C484.936 472.693 482.299 512.209 456.813 524.625C438.125 533.729 419.364 531.72 400.128 525.598C393.378 523.141 387.372 519.225 381.526 515.132C385.359 509.504 389.765 504.094 393.982 498.733C402.296 505.193 409.206 508.788 419.765 510.965C432.009 513.49 450.846 510.279 452.627 495.135C454.867 476.086 425.507 474.797 412.517 473.646C412.49 469.913 412.184 465.842 411.974 462.084C416.765 455.658 442.369 432.054 441.582 426.467C439.997 425.23 436.853 424.673 434.91 424.699C418.85 424.915 402.699 424.745 386.644 424.557C386.52 418.958 386.866 412.259 387.032 406.565Z"/><path fill="#FEE299" d="M811.021 83.0876C812.725 85.1131 818.493 97.322 820.383 100.675C825.023 108.904 829.476 116.646 834.827 124.546C856.447 156.46 883.121 185.32 912.442 210.287C921.237 217.775 932.928 225.813 942.353 232.681C938.314 258.484 923.344 292.46 908.771 314.131C870.187 371.508 800.495 415.725 733.151 429.383C727.546 430.525 721.612 431.319 715.937 432.172C651.799 368.957 603.776 277.002 604.451 185.438C604.546 172.608 605.248 159.53 608.092 146.995C687.381 143.562 745.554 128.319 811.021 83.0876ZM772.247 360.665C823.631 357.77 862.924 313.743 859.982 262.362C857.039 210.98 812.977 171.727 761.598 174.717C710.286 177.702 671.095 221.695 674.034 273.01C676.972 324.325 720.929 363.556 772.247 360.665Z"/><path fill="#0F2530" d="M759.595 170.72C813.096 166.61 859.815 206.609 863.998 260.103C868.18 313.598 828.245 360.372 774.756 364.627C721.165 368.89 674.282 328.861 670.091 275.264C665.901 221.667 705.993 174.839 759.595 170.72ZM772.247 360.665C823.631 357.77 862.924 313.743 859.982 262.362C857.039 210.98 812.977 171.727 761.598 174.717C710.286 177.702 671.095 221.695 674.034 273.01C676.972 324.325 720.929 363.556 772.247 360.665Z"/><path fill="#0F2530" d="M812.629 217.504C817.719 220.419 832.247 238.816 835.938 244.344C832.755 247.753 826.555 252.636 822.758 255.951L799.449 276.666L766.623 305.881C758.703 312.906 750.446 320.477 741.906 326.667C733.042 318.023 723.766 306.57 715.675 296.999C708.063 288.964 699.379 278.538 691.948 270.103C699.764 262.622 711.156 251.601 719.488 244.841C722.028 247.127 724.224 249.817 726.427 252.427C733.157 260.405 740.273 268.049 747.078 275.96L812.629 217.504Z"/><path fill="#ADCBAD" d="M812.407 223.366C816.53 226.029 826.589 239.113 830.258 243.706C820.095 253.663 808.113 263.654 797.357 273.186L742.54 321.757C732.956 311.303 724.575 301.252 715.344 290.481C709.46 283.874 703.731 277.151 697.975 270.433C704.819 263.73 712.106 256.945 719.054 250.316C727.115 260.054 738.385 273.034 746.824 281.968C769.056 263.354 790.443 242.373 812.407 223.366Z"/><path fill="#FEE299" d="M153.526 626.924C183.159 642.618 204.166 647.339 236.892 651.024C249.873 677.339 298.587 767.09 298.914 790.097C299.054 799.888 296.261 810.396 294.247 819.937C291.197 834.386 287.888 848.717 284.423 863.072L273.898 904.972C271.118 915.69 267.696 927.591 266.241 938.545C264.949 938.359 259.024 938.292 257.357 938.194C249.798 937.75 244.968 936.895 237.826 934.697C238.538 920.778 240.643 906.132 241.745 892.097C244.179 861.078 247.004 831.663 252.243 800.929C257.222 798.412 270.839 794.133 273.483 789.749L273.228 788.837C269.433 787.467 255.334 794.928 250.5 796.88C244.163 790.048 232.673 774.238 226.686 766.434L182.076 708.296C177.119 701.832 172.194 695.287 167.223 688.832C165.358 686.411 162.719 683.114 159.419 683.754L159.075 684.517C159.39 685.983 160.004 687.312 160.979 688.472C173.307 703.131 184.375 718.751 195.973 733.988C185.653 759.25 173.956 790.273 160.196 813.447C140.454 846.697 118.098 879.016 99.7224 913.234C94.8184 922.366 86.0523 934.997 82.3521 944.063C71.333 943.629 60.3637 938.134 53.4138 929.626C72.0239 890.22 84.9043 847.936 104.777 809.133C106.891 805.003 113.783 796.376 114.549 792.337C121.302 756.696 129.437 721.415 137.929 686.146C142.723 666.101 146.928 646.507 153.526 626.924Z"/><path fill="#FEE299" d="M679.311 443.271C692.223 452.365 694.776 465.501 714.693 466.05C714.142 470.74 713.371 475.458 712.515 480.112C694.375 578.368 652.827 676.141 577.344 744.012C564.512 755.55 550.539 765.458 536.309 775.145C526.322 781.943 516.476 788.959 506.561 795.854C447.397 767.951 406.226 725.582 370.704 671.722C360.6 655.884 352.428 640.543 343.781 623.942C351.134 624.566 356.376 626.572 361.13 620.264C369.915 623.021 375.618 621.63 384.405 620.012C414.337 673.814 451.168 717.027 503.989 749.642C583.945 702.267 637.194 612.929 662.613 525.649C670.589 498.259 675.726 471.506 679.311 443.271Z"/><path fill="#ADCBAD" d="M154.546 601.59C156.795 592.053 160.785 581.518 164.13 572.233C174.439 543.621 186.422 514.718 203.334 489.307C213.627 473.842 224.231 462.355 242.927 458.611C246.385 458.499 249.235 458.262 252.64 458.962C263.611 459.623 275.319 465.208 284.067 471.596C310.206 490.684 308.593 526.609 314.496 555.262C315.534 560.3 317.027 565.32 318.461 570.308C318.361 571.637 317.573 572.188 316.627 573.195C316.65 581.795 353.828 591.26 361.512 594.946C361.094 598.249 360.677 601.527 360.322 604.837C359.466 610.612 358.041 615.041 356.125 620.518C333.703 620.769 298.277 617.738 284.473 597.06C281.377 592.422 278.429 583.349 276.912 577.827C272.592 562.097 267.715 546.498 263.449 530.759C262.633 527.751 261.908 525.755 259.112 524.284L258.359 524.609C257.132 528.861 267.949 562.703 269.804 568.889C271.79 575.389 273.749 582.22 275.847 588.649C272.786 601.261 269.227 614.525 264.986 626.813C263.727 630.458 262.255 634.326 258.039 634.547C234.989 638.579 170.689 619.356 154.546 601.59Z"/><path fill="#FDFBFE" d="M242.927 458.611C246.385 458.499 249.235 458.262 252.64 458.962C263.611 459.623 275.319 465.208 284.067 471.596C310.206 490.684 308.593 526.609 314.496 555.262C315.534 560.3 317.027 565.32 318.461 570.308C318.361 571.637 317.573 572.188 316.627 573.195C316.65 581.795 353.828 591.26 361.512 594.946C361.094 598.249 360.677 601.527 360.322 604.837C347.47 601.353 327.365 593.945 317.014 585.855C304.965 575.756 303.902 556.294 301.566 541.627C295.418 503.03 289.895 471.675 247.506 460.258C245.167 459.767 244.976 459.757 242.927 458.611Z"/><path fill="#F1F5F1" d="M242.927 458.611C246.385 458.499 249.235 458.262 252.64 458.962C250.826 459.055 248.599 458.749 247.506 460.258C245.167 459.767 244.976 459.757 242.927 458.611Z"/><path fill="#FDFBFE" d="M258.039 634.547C255.941 634.531 254.734 634.705 252.838 633.935C252.144 629.334 259.985 605.12 261.66 599.069C263.476 592.511 266.823 573.766 269.804 568.889C271.79 575.389 273.749 582.22 275.847 588.649C272.786 601.261 269.227 614.525 264.986 626.813C263.727 630.458 262.255 634.326 258.039 634.547Z"/><path fill="#FEE299" d="M506.698 189.416C512.961 191.228 523.45 195.92 529.737 198.571L571.397 216.585C571.932 227.465 577.523 249.331 579.92 261.061C556.235 250.059 530.386 238.886 506.422 228.416C490.266 236.495 469.538 245.377 452.802 253.045L344.636 302.502C337.921 305.473 330.786 308.419 324.533 312.201C324.203 324.484 324.744 336.817 325.058 349.102C312.013 341.242 303.384 339.587 288.541 339.376C288.332 324.272 286.828 305.809 286.08 290.443C309.35 278.781 334.364 268.198 358.158 257.335L506.698 189.416Z"/><path fill="#FEE299" d="M329.196 435.282C330.795 438.936 332.37 457.649 333.037 462.859C337.249 495.745 348.337 526.753 358.985 557.964C349.447 560.032 347.1 563.893 341.236 571.004C334.669 569.132 331.559 568.879 324.884 569.552C318.98 568.587 317.722 549.32 316.89 544.176C313.815 525.178 311.579 505.006 303.215 487.431C301.296 483.399 296.909 478.493 294.046 475.142C295.023 469.81 296.151 465.048 297.418 459.793C314.597 463.159 321.641 447.331 329.196 435.282Z"/><path fill="#FEE299" d="M266.92 351.113C277.542 344.052 289.982 341.98 302.424 344.493C327.576 349.574 331.748 367.992 358.83 369.675C358.42 373.005 358.142 375.915 356.886 379.07C351.065 392.908 340.888 398.921 326.181 390.471C321.715 387.905 318.001 383.1 313.154 381.118C309.287 379.537 304.224 384.81 301.61 387.155C296.836 391.645 293.621 394.561 287.608 397.123C281.105 391.406 276.036 391.976 267.935 393.513C262.934 394.461 257.927 395.539 252.941 396.574C248.13 376.811 248.355 363.153 266.92 351.113Z"/><path fill="#FDFBFE" d="M266.92 351.113C277.542 344.052 289.982 341.98 302.424 344.493C327.576 349.574 331.748 367.992 358.83 369.675C358.42 373.005 358.142 375.915 356.886 379.07C330.69 378.436 323.409 359.496 300.36 353.366C286.67 349.725 276.395 352.231 264.543 359.051C265.625 356.327 266.195 353.929 266.92 351.113Z"/><path fill="#FDFBFE" d="M311.223 384.904C314.755 385.412 319.487 391.544 322.588 393.758C324.507 395.128 325.939 395.677 328.118 396.569C327.737 399.047 327.369 401.386 326.884 403.864C324.767 414.668 319.754 420.16 327.71 429.628C322.377 438.77 318.7 447.277 309.534 453.95C298.903 461.688 285.512 445.686 281.792 448.031L281.659 449.348C282.333 451.408 283.004 451.685 284.767 453.142L279.576 463.695C275.485 461.43 271.528 459.366 267.129 457.771C263.039 456.491 258.098 455.391 253.885 454.343C257.669 447.364 259.578 443.173 262.135 435.724C270.82 431.435 274.223 427.1 279.674 419.189C271.979 413.797 260.905 397.228 278.268 395.929C285.825 395.363 283.423 407.65 286.109 410.819C290.247 410.506 298.244 396.924 301.609 393.425C305.538 389.339 306.387 388.252 311.223 384.904Z"/><path fill="#0F2530" d="M301.262 432.13C303.016 432.405 312.806 439.957 314.09 441.386C306.922 442.45 302.177 439.45 301.262 432.13Z"/><path fill="#0F2530" d="M310.38 407.197C315.703 409.822 313.196 414.217 310.817 417.795C304.984 415.625 307.807 410.574 310.38 407.197Z"/><path fill="#0F2530" d="M310.982 399.883C313.219 400.101 314.823 400.35 316.428 402.024C316.652 403.61 316.833 402.919 315.936 404.18C314.056 403.957 311.328 403.897 309.929 402.825C309.685 401.277 309.873 401.642 310.982 399.883Z"/><path fill="#ADCBAD" d="M238.114 954.155C243.383 955.893 248.907 957.166 254.519 957.215C257.246 957.238 263.16 955.75 265.136 956.988C265.906 959.037 265.61 960.951 265.523 963.181C268.814 965.343 271.007 966.514 274.739 967.873C279.256 969.517 306.906 971.554 304.24 979.48C301.51 982.155 298.941 982.228 295.116 983.052C277.779 985.651 260.705 986.421 243.255 984.648C240.836 984.403 230.687 983.935 230.635 980.499C230.51 972.163 234.823 961.687 238.114 954.155Z"/><path fill="#0F2530" d="M238.973 960.507C243.822 960.672 248.61 962.516 253.528 962.694C256.905 962.816 260.447 960.579 263.467 961.111L263.853 961.952L263.135 963.643L261.595 964.209C255.128 966.52 241.761 968.927 238.973 960.507Z"/><path fill="#ADCBAD" d="M46.9006 952.955C55.6486 958.676 61.3776 959.293 71.3975 958.157C72.5299 958.028 72.7136 958.288 73.3437 959.016C70.5604 966.838 55.6466 962.14 50.0731 962.221C48.8715 962.238 48.8976 962.385 48.2613 963.238C50.0605 969.949 61.5493 968.064 66.6345 966.929C70.0112 966.175 72.2957 964.738 75.1853 962.97C82.7694 968.959 86.8942 969.737 96.0874 972.447C102.698 974.544 103.858 975.65 108.345 980.881C99.0312 983.133 47.754 990.905 40.1044 978.459C38.4211 975.721 45.1444 958.045 46.9006 952.955Z"/><path fill="#FDFBFE" d="M397.772 586.094C408.863 585.14 414.422 589.16 420.842 597.545C416.091 594.598 405.206 589.121 399.784 591.23C398.629 592.548 398.914 591.817 398.736 593.427C401.267 595.781 423.962 597.494 421.887 604.764C418.565 605.562 406.443 597.748 399.684 599.772C398.451 600.921 398.695 600.247 398.577 601.692C400.629 603.741 408.962 604.916 412.143 605.516C414.415 606.297 419.448 607.738 418.245 610.805C415.306 612.471 407.309 609.052 403.74 609.509C384.767 611.937 382.873 621.113 362.059 616.524C363.92 608.859 364.747 602.838 365.643 595.107C378.212 594.538 385.574 588.818 397.772 586.094Z"/><path fill="#FDFBFE" d="M156.612 611.302C158.874 612.222 162.18 614.097 164.397 615.283C192.223 630.164 221.22 635.789 252.338 639.132C250.751 643.06 250.58 643.511 248.293 646.953C225.003 648.882 193.866 639.955 172.308 630.913C167.246 628.789 154.505 624.065 152.549 619.287C152.446 615.958 154.564 613.945 156.612 611.302Z"/><path fill="#FDFBFE" d="M376.27 559.544C378.891 559.341 380.678 559.231 383.048 560.375L383.054 561.185C379.659 563.959 373.75 564.572 370 567.221L370.118 568.001C374.665 570.339 384.155 563.736 385.74 568.32C385.217 570.656 383.905 571.71 382.273 573.525C386.875 575.037 388.079 575.755 391.957 578.36C375.416 576.837 369.866 580.652 356.203 588.654C342.634 584.393 334.3 581.334 322.315 573.451C327.529 573.407 337.172 574.534 342.682 575.029C346.346 571.632 348.981 567.808 352.85 564.444C357.199 560.663 361.473 562.94 366.822 562.014C369.889 561.483 373.268 560.437 376.27 559.544Z"/><path fill="#FDFBFE" d="M306.953 983.029C309.608 986.81 303.767 990.542 300.856 991.429C284.214 996.495 245.902 997.811 229.725 990.993C228.74 989.119 228.187 988.005 228.798 985.976C231.21 985.411 232.228 986.984 234.226 987.3C255.08 990.604 287.965 992.365 306.953 983.029Z"/><path fill="#FDFBFE" d="M37.2729 981.947C54.8867 993.198 77.2568 989.59 97.0369 987.676C100.116 987.378 107.47 984.287 109.43 985.522C109.675 987.219 109.431 987.36 108.711 988.914C95.4493 997.354 67.7726 994.482 52.2272 993.387C45.3142 992.9 35.7767 990.834 37.2729 981.947Z"/><path fill="#ADCBAD" d="M263.268 398.679C263.898 398.539 265.061 398.535 265.752 398.504L266.261 399.013C265.031 409.457 266.549 413.158 273.669 420.766C270.04 425.256 265.072 432.764 258.884 429.204C253.807 420.181 260.187 409.641 257.754 407.851C254.693 407.644 251.617 409.322 248.667 410.534C251.129 406.282 252.129 404.857 253.399 400.139C256.596 399.585 260.038 399.147 263.268 398.679Z"/><path fill="#FDFBFE" d="M243.832 941.181C252.42 942.422 257.67 942.523 266.261 942.622C266.062 945.72 266.022 949.741 264.356 952.332C256.025 954.422 250.371 954.019 242.344 951.125C242.534 947.692 243.203 944.556 243.832 941.181Z"/><path fill="#FDFBFE" d="M288.384 454.977L293.334 457.633C292.683 460.633 291.173 469.032 289.476 470.981L283.39 465.708C284.983 462.125 286.714 458.53 288.384 454.977Z"/><path fill="#FDFBFE" d="M377.509 582.648C380.529 582.47 384.926 581.826 387.42 583.407L387.346 584.269C385.764 585.871 383.733 586.32 381.55 587.098C378.513 588.176 373.848 590.879 371.798 587.747C372.129 583.6 373.866 583.211 377.509 582.648Z"/><path fill="#FDFBFE" d="M328.216 414.848L328.867 415.755C329.159 418.09 329.608 421.796 328.175 423.693C325.776 419.536 326.237 419 328.216 414.848Z"/><path fill="#FDFBFE" d="M367.305 586.994C368.367 587.895 368.795 588.371 368.825 589.677C367.721 590.774 366.577 590.767 365.001 591.054C363.976 590.593 364.44 590.928 363.65 589.993C364.161 588.662 366.003 587.805 367.305 586.994Z"/><path d="M423.084 747.431C424.329 747.707 424.001 747.625 425.158 748.214L425.265 749.39C423.921 749.325 424.576 749.455 423.302 748.998L423.084 747.431Z"/></svg>