<?xml version="1.0" encoding="utf-8" ?><svg xmlns="http://www.w3.org/2000/svg" xmlns:xlink="http://www.w3.org/1999/xlink" width="1024" height="1024" viewBox="0 0 1024 1024"><path fill="#147C73" d="M354.345 275.717C364.607 274.794 377.541 275.848 388.139 275.951L446.497 276.023L484.195 275.865C495.593 275.743 512.216 273.758 520.996 282.485C533.446 294.86 533.606 320.504 521.103 333.006C514.353 339.757 506.51 340.521 497.563 340.419L497.914 448.128L497.912 473.64C497.898 480.071 497.547 490.102 499.03 496.113C501.066 504.371 506.842 513.635 510.804 521.365C515.531 530.586 520.359 539.732 524.995 549.015L611.622 720.345L633.539 764.301C641.855 780.808 652.434 798.001 652.919 816.853C653.482 838.729 637.08 861.802 615.565 866.9C601.578 870.215 583.741 868.608 569.12 868.568L506.566 868.744C445.82 867.756 384.168 868.314 323.358 868.315L276.619 868.345C265.208 868.393 254.334 868.952 242.935 867.445C216.049 863.892 198.164 834.646 201.99 808.89C203.476 798.886 211.731 784.439 216.464 774.965L232.529 742.992L318.088 572.651L343.957 520.391C346.671 514.911 357.678 494.095 357.814 489.45C358.291 473.108 358.044 454.261 358.03 437.882L357.971 376.457C357.962 364.7 358.223 352.18 357.764 340.496C340.976 341.085 328.231 330.249 327.065 312.81C325.731 292.855 331.467 277.63 354.345 275.717ZM337.214 589.073C325.475 615.79 311.7 641.882 298.535 667.943L257.063 751.016L240.06 784.146C233.411 796.875 222.592 812.065 228.569 826.632C232.906 837.2 241.853 844.351 253.487 844.471C264.794 844.836 275.877 844.819 287.13 844.834L342.856 844.889L517.625 844.891L574.323 844.925C584.478 844.955 597.582 845.589 606.958 844.136C623.345 841.597 633.644 819.547 625.745 805.216C619.71 794.267 614.794 782.991 609.329 771.955C593.901 740.796 578.07 709.867 562.648 678.708L534.651 622.403C530.662 614.312 522.304 596.287 517.594 589.081C504.903 588.827 492.147 589.085 479.446 589.121C432.091 589.257 384.553 588.45 337.214 589.073ZM383.066 340.474C383.897 374.153 383.394 410.213 383.429 444.051L383.444 476.192C383.442 480.586 383.69 495.343 382.436 498.806C380.541 504.039 375.146 514.179 372.481 519.479C364.879 534.593 356.817 549.597 349.907 565.049L408.838 565.038L505.705 565.05C499.905 555.81 492.933 539.587 487.601 529.56C483.699 522.225 476.537 508.086 473.98 500.644C472.741 497.038 472.912 480.994 472.922 476.216L473.035 444.509L472.981 340.559C464.311 340.321 455.777 340.284 447.109 340.257C425.91 340.598 404.294 340.446 383.066 340.474ZM501.251 315.047C503.322 313.552 504.466 312.631 505.302 310.121C508.417 300.764 499.429 300.721 492.817 300.548C478.746 300.181 464.59 300.368 450.487 300.375L355.313 300.482C348.261 307.061 349.679 315.266 360.349 315.312C367.018 315.341 373.809 315.564 380.512 315.573L415.834 315.597C442.552 315.611 469.433 315.747 496.156 315.443C497.712 315.426 499.696 315.229 501.251 315.047Z"/><path fill="#147C73" d="M411.101 741.773C424.827 739.153 438.062 748.208 440.592 761.951C443.122 775.693 433.98 788.868 420.221 791.308C406.59 793.726 393.563 784.686 391.056 771.071C388.549 757.456 397.502 744.37 411.101 741.773ZM416.207 779.848C423.59 779.607 429.404 773.471 429.248 766.086C429.093 758.701 423.024 752.816 415.637 752.887C410.783 752.933 406.328 755.586 403.974 759.831C401.619 764.077 401.729 769.26 404.26 773.402C406.792 777.545 411.355 780.007 416.207 779.848Z"/><path fill="#147C73" d="M476.72 696.689C490.376 694.928 502.882 704.55 504.682 718.201C506.482 731.852 496.897 744.386 483.251 746.226C469.549 748.073 456.952 738.44 455.145 724.732C453.338 711.025 463.007 698.456 476.72 696.689ZM482.252 734.871C489.492 733.722 494.462 726.965 493.402 719.712C492.341 712.458 485.645 707.406 478.38 708.378C473.6 709.017 469.534 712.177 467.734 716.651C465.934 721.124 466.679 726.22 469.684 729.991C472.689 733.762 477.49 735.626 482.252 734.871Z"/><path fill="#147C73" d="M475.34 601.848C488.986 599.423 501.997 608.571 504.331 622.232C506.666 635.893 497.432 648.843 483.756 651.088C470.207 653.312 457.404 644.182 455.091 630.648C452.777 617.114 461.822 604.251 475.34 601.848ZM480.751 639.885C488.17 639.478 493.861 633.145 493.476 625.726C493.09 618.306 486.774 612.597 479.353 612.96C471.902 613.326 466.165 619.673 466.551 627.123C466.938 634.574 473.302 640.293 480.751 639.885Z"/><path fill="#147C73" d="M410.994 647.648C419.815 646.035 428.82 649.295 434.565 656.18C440.309 663.064 441.904 672.507 438.738 680.896C435.572 689.285 428.136 695.321 419.276 696.694C405.831 698.777 393.207 689.671 390.942 676.256C388.677 662.841 397.611 650.095 410.994 647.648ZM418.234 685.379C425.38 683.906 430.012 676.96 428.626 669.797C427.241 662.634 420.353 657.916 413.173 659.213C408.449 660.066 404.549 663.394 402.964 667.925C401.378 672.456 402.351 677.489 405.512 681.102C408.673 684.715 413.533 686.349 418.234 685.379Z"/><path fill="#147C73" d="M518.187 44.933C528.133 52.5266 537.885 60.3532 547.949 67.7669C639.484 135.199 748.461 177.853 861.236 191.718C892.101 195.512 923.306 196.588 954.434 196.519C970.949 403.766 939.932 614.894 801.329 778.194C730.203 861.992 644.903 923.373 545.48 968.992C536.536 973.096 527.022 976.938 518.21 981.208C517.928 973.395 518.058 965.129 518.064 957.277C535.612 949.628 554.232 939.588 571.278 930.71C641.8 893.985 701.974 850.774 757.183 793.35C871.941 673.989 926.339 519.589 934.712 356.162C937.153 308.508 934.654 266.869 933.486 219.139C922.214 218.405 910.806 218.387 899.474 217.759C762.278 210.163 625.681 158.896 517.916 73.4191C517.695 62.1982 517.334 56.3171 518.187 44.933Z"/><path fill="#4EB59B" d="M69.1721 195.842C81.6133 196.484 99.6422 196.053 112.045 195.666C255.173 191.198 403.387 133.091 512.326 40.0829C514.536 41.7845 516.11 43.0424 518.187 44.933C517.334 56.3171 517.695 62.1982 517.916 73.4191C515.769 72.0952 513.717 70.601 511.651 69.1481C504.404 74.2356 497.596 80.4431 490.385 85.6876C375.162 169.489 232.768 219.175 90.0985 218.466C90.3242 222.108 90.167 226.906 89.9916 230.539C82.3335 389.16 99.8471 557.31 188.761 693.257C197.617 706.798 207.159 720.294 215.91 733.95C212.865 740.431 208.192 748.082 204.746 754.963C185.274 733.33 163.809 698.564 150.054 673.335C70.22 526.905 59.0897 359.207 69.1721 195.842Z"/><path fill="#147C73" d="M518.839 133.706C525.522 138.78 532.346 144.03 539.293 148.553C637.933 212.767 751.55 254.112 869.252 262.725C874.591 263.116 880.109 263.607 885.483 264.098C885.706 309.433 885.273 350.112 881.076 395.272C868.333 532.405 817.141 661.794 719.17 760.577C703.807 776.067 690.194 787.905 672.733 801.19C669.439 794.648 665.68 786.987 662.908 780.2C675.494 769.948 687.696 759.72 699.301 748.397C813.888 636.595 861.546 476.081 863.385 319.26C863.518 307.873 863.016 295.89 863.362 284.6C853.074 284.397 837.903 282.548 827.513 281.28C743.116 270.986 648.812 239.044 575.518 195.833L575.68 194.8C568.741 187.352 556.543 178.326 548.531 170.949C538.716 161.913 528.47 150.942 518.5 142.547L518.839 133.706Z"/><path fill="#4EB59B" d="M138.635 263.491C146.579 262.448 155.729 262.363 163.857 261.643C292.776 250.215 408.174 205.099 512.797 129.111C514.817 130.683 516.78 132.181 518.839 133.706L518.5 142.547C528.47 150.942 538.716 161.913 548.531 170.949C556.543 178.326 568.741 187.352 575.68 194.8L575.518 195.833C568.337 192.745 558.536 186.457 551.708 182.234C538.861 174.288 524.872 165.524 512.749 156.443C497.49 166.459 484.533 176.981 468.178 186.483C387.516 233.351 296.863 266.849 204.389 279.842C192.544 281.506 172.605 283.812 160.589 284.038C159.147 307.805 160.654 331.702 161.941 355.443C167.573 459.358 194.002 572.54 253.604 659.189C250.494 666.652 245.668 675.616 241.927 682.96C231.629 669.5 217.748 645.166 209.895 630.447C150.756 519.596 134.134 387.701 138.635 263.491Z"/><path fill="#147C73" d="M600.288 367.205C621.56 365.618 641.739 377.521 649.772 397.373C652.564 404.274 653.218 410.498 653.945 417.792C656.642 418.291 659.481 419.141 662.161 419.791C677.608 423.535 693.053 427.18 708.456 431.11C717.995 415.743 740.085 410.97 754.562 421.522C789.251 446.808 753.71 499.712 716.378 473.477C697.745 488.19 676.902 503.426 658.973 518.484C665.302 540.41 658.617 560.853 635.643 569.133C625.382 572.83 615.673 570.021 606.266 565.269C580.658 548.001 581.748 512.302 610.767 499.099C622.283 493.859 631.849 495.578 643.326 500.14C655.967 490.975 668.129 481.031 680.384 471.369C687.929 465.421 695.924 460.095 703.48 454.192C690.533 449.844 677.318 446.823 664.062 443.611C658.937 442.369 653.395 441.496 648.388 440.067C634.899 468.728 596.345 475.187 571.956 456.518C550.548 440.129 546.896 406.697 564.124 385.993C573.889 374.257 585.116 368.793 600.288 367.205ZM606.757 444.1C621.677 442.376 632.355 428.854 630.573 413.94C628.79 399.026 615.226 388.402 600.319 390.244C585.496 392.075 574.943 405.547 576.716 420.378C578.489 435.208 591.919 445.814 606.757 444.1ZM626.24 547.204C633.864 546.549 639.54 539.878 638.964 532.247C638.389 524.617 631.777 518.872 624.14 519.368C619.129 519.694 614.68 522.685 612.487 527.203C610.295 531.721 610.698 537.068 613.543 541.205C616.388 545.343 621.237 547.634 626.24 547.204Z"/><path fill="#FFFFFE" d="M733.973 438.745C737.298 437.977 740.78 439.061 743.08 441.582C745.38 444.103 746.142 447.669 745.073 450.91C744.004 454.151 741.27 456.564 737.921 457.221C732.861 458.214 727.939 454.967 726.862 449.924C725.785 444.882 728.949 439.907 733.973 438.745Z"/><path fill="#4EB59B" d="M343.587 887.474C355.693 887.782 368.878 887.523 381.096 887.569C392.855 894.454 406.142 904.626 418.962 912.29C450.778 931.309 478.713 945.325 512.552 959.468L518.064 957.277C518.058 965.129 517.928 973.395 518.21 981.208L511.497 983.962C493.763 975.034 474.666 967.385 456.836 958.422C418.647 939.226 377.174 914.108 343.587 887.474Z"/><path fill="#147C73" d="M481.63 889.024C485.935 889.443 490.063 889.595 494.39 889.606C511.253 889.649 528.447 889.872 545.263 888.883L533.657 894.831C526.696 898.654 519.821 902.329 512.783 906.007C505.047 901.622 487.747 893.534 481.63 889.024Z"/></svg>