<?xml version="1.0" encoding="utf-8" ?><svg xmlns="http://www.w3.org/2000/svg" xmlns:xlink="http://www.w3.org/1999/xlink" width="1024" height="1024" viewBox="0 0 1024 1024"><path fill="#571716" d="M499.678 432.82C491.279 426.151 486.9 422.392 480.807 413.558C467.296 393.97 479.541 377.958 496.667 366.95C504.468 361.935 517.213 356.935 526.815 358.753C532.204 359.773 536.348 367.067 539.104 371.49C541.771 376.047 546.304 382.946 546.49 388.112C546.063 389.345 545.895 389.502 545.938 390.78C551.211 392.756 557.723 395.243 559.87 400.924L559.732 401.332C558.948 403.591 557.508 405.444 557.614 407.074C558.538 408.445 558.821 408.484 560.197 409.369C560.793 411.732 560.002 412.742 558.736 414.899C560.533 416.297 561.906 416.845 562.5 418.703C561.86 420.171 561.805 420.244 560.853 421.54C561.922 424.298 563.427 427.27 562.184 430.207C560.006 435.352 550.673 435.818 545.804 436.504C550.607 438.61 558.611 441.946 562.655 444.93C578.219 456.418 590.38 473.956 604.267 487.817C607.361 490.934 610.249 493.642 613.497 496.603C614.983 494.678 617.06 491.808 618.6 490.016C625.154 478.313 630.857 469.114 631.692 455.334C627.321 451.135 618.485 440.165 622.445 433.916C624.867 432.163 626.147 432.975 628.685 434.022C629.27 419.006 626.559 414.148 644.7 416.22C663.119 418.053 664.237 427.071 661.892 442.914C661.287 447.009 659.149 454.975 658.925 458.93C658.056 474.311 659.566 498.803 654.817 513.589C652.114 525.777 646.451 538.958 640.386 549.989C638.142 553.736 635.279 559.448 630.656 560.442C615.004 563.808 572.674 536.597 558.423 528.03L554.946 532.602C545.44 544.816 533.885 561.263 529.094 576.004C526.497 583.13 523.483 594.965 522.252 602.494C521.001 610.962 517.359 629.794 522.88 636.376C535.026 647.831 545.834 660.393 557.118 672.609C589.238 707.38 619.905 744.332 637.76 788.718C645.631 808.284 650.857 831.583 656.616 852.176C660.978 867.774 667.37 885.988 671.068 901.422C679.616 901.46 687.77 903.173 696.1 903.197C705.838 903.226 733.016 882.822 733.915 903.985C734.037 907.222 730.832 914.38 728.36 916.594C726.264 919.002 723.882 921.566 721.199 923.336C719.078 926.154 700.999 936.977 696.884 938.721C688.416 942.309 667.782 955.829 659.167 953.163C654.928 949.857 652.295 939.663 650.908 934.511C648.024 923.801 645.032 913.247 641.595 902.695C638.018 894.835 634.246 884.14 631.243 875.958C627.934 867.777 619.98 851.822 615.286 844.374C601.605 822.671 591.516 811.354 585.672 785.666C577.54 779.042 562.346 769.83 553.034 763.791L501.441 729.665C495.425 725.614 484.911 718.977 479.745 714.682C467.219 737.323 429.651 780.246 408.553 794.836C396.137 794.25 382.393 791.087 370.185 788.539C340.317 782.307 310.201 778.164 279.781 775.881C274.001 775.447 262.977 774.029 257.613 774.777C251.278 775.66 240.881 780.427 235.479 783.968C227.956 789.246 222.404 794.239 218.228 802.542C217.108 804.77 214.998 809.626 213.837 811.503C208.923 823.397 194.525 819.437 194.043 805.293C192.901 781.821 205.066 759.539 215.043 739.759C226.511 717.023 235.56 717.49 251.634 734.629C252.577 735.635 259.077 738.952 261.412 740.998C273.714 739.934 286.831 740.116 299.249 739.63C333.389 738.292 357.392 735.103 390.623 745.17C399.883 715.895 411.187 673.618 411.024 643.084C410.543 642.401 407.972 638.745 407.735 638.139C401.495 622.203 412.134 595.098 418.322 580.159C420.314 575.351 426.26 566.815 426.815 562.722C427.566 557.184 426.82 549.413 427.167 543.522C428.249 525.168 431.97 510.797 438.201 493.765L397.455 493.473C395.076 499.176 391.154 505.042 387.866 510.349C382.211 519.572 363.148 553.942 367.362 562.641C370.705 566.05 374.023 569.546 377.044 573.249C381.869 580.222 382.927 585.279 374.516 589.288C371.262 603.662 368.768 604.402 354.061 599.803C347.904 597.878 343.021 594.633 338.656 589.853C339.326 577.882 341.273 568.867 343.26 557.2C344.089 549.747 343.758 541.647 344.376 534.247C346.178 512.645 351.702 478.716 367.054 462.983C385.878 443.692 423.465 445.39 448.388 439.03C458.865 436.357 462.478 433.299 471.952 429.238C484.784 432.722 484.827 436.027 499.678 432.82ZM381.518 464.895C365.458 479.472 358.044 508.087 355.677 529.211C354.933 534.334 354.923 539.818 354.543 545.071C357.086 539.926 359.34 533.062 361.809 527.592C368.86 511.972 376.398 495.989 386.456 482.064C384.5 478.714 382.629 475.527 380.84 472.085C397.814 463.749 421.35 464.347 440.103 461.235C453.973 458.933 457.243 460.509 469 450.959C462.947 458.493 456.776 467.787 451.951 476.114C461.214 470.908 471.228 462.479 481.165 458.742L482.859 458.107L483.252 458.615C481.704 461.414 479.556 464.404 477.716 467.071C460.893 491.445 450.412 516.301 444.691 545.424C444.283 546.933 443.929 547.416 444.206 548.832C463.137 536.43 473.081 533.811 494.399 526.137C491.231 528.947 483.3 536.139 480.07 538.215C477.558 540.636 472.033 546.12 469.498 548C466.821 551.448 459.988 558.01 456.397 562.306C440.578 581.229 433.004 596.779 423.523 619.1L424.337 618.802C443.805 611.845 472.141 612.013 491.75 618.155C498.593 620.299 503.319 622.366 509.733 625.346C510.989 587.228 520.978 554.579 546.388 525.31C545.126 523.507 539.242 516.576 537.755 514.862C524.675 499.786 523.559 494.247 521.217 475.379C543.771 495.144 569.154 515.297 594.051 532.057C600.981 536.722 617.335 546.915 625.537 544.965C630.591 543.763 633.6 539.645 636.149 535.4C644.136 522.101 651.381 485.158 647.169 470.263C645.349 468.024 645.268 468.041 642.612 466.779C639.202 467.551 639.567 467.902 638.184 471.334C634.009 483.163 628.748 493.507 621.682 503.864C627.024 511.014 628.838 515.069 629.099 524.086C629.572 526.187 629.05 532.136 628.879 534.475C625.522 528.453 622.176 522.403 617.682 517.126C613.878 512.659 608.57 508.141 604.807 503.775L604.324 503.208C602.443 501.395 600.317 499.029 598.492 497.092C597.486 496.255 592.942 491.107 591.682 489.766C580.671 478.059 572.515 464.729 559.271 455.195C543.221 443.641 525.578 440.998 506.249 442.252C493.555 443.075 485.7 445.865 473.732 440.462C468.109 442.886 463.83 445.707 457.674 447.558C436.573 453.904 400.294 455.337 381.518 464.895ZM437.263 627.693C459.482 654.478 477.681 670.687 504.68 692.352L546.068 725.118C561.006 736.754 583.829 753.786 596.403 767.079C598.071 766.07 599.458 764.964 601.373 764.94L602.204 765.489C602.256 767.693 601.469 768.487 600.086 770.312C618.35 807.924 632.189 849.208 647.69 888.041C649.263 891.981 650.731 896.34 652.046 900.391L655.633 911.098C657.862 908.609 659.715 906.556 662.13 904.254C653.824 879.609 645.998 855.207 638.852 830.191C633.397 811.789 627.731 793.238 620.724 775.359C618.84 770.552 616.006 762.278 613.338 758.121C594.663 729.034 569.391 702.35 546.183 677.033L526.042 655.069C519.026 647.312 512.03 638.265 502.668 633.603C489.628 627.11 468.874 623.651 454.589 625.703C449.088 626.242 442.628 626.71 437.263 627.693ZM470.873 708.414C467.718 705.906 463.314 702.686 459.809 700.704C448.97 721.835 437.621 740.333 422.804 758.94C420.725 761.551 402.824 782.822 402.681 783.282C405.153 783.738 407.571 781.637 409.434 780.108C430.925 762.428 456.974 732.551 470.873 708.414ZM241.977 766.213C241.794 755.909 241.556 752.606 246.405 743.327C243.149 740.196 236.84 733.104 232.626 733.141C229.112 734.419 223.895 744.979 221.6 748.901L210.832 771.313C210.633 772.836 208.892 777.073 208.262 778.805C206.119 784.693 201.574 800.294 203.608 806.234C207.742 806.252 208.926 798.801 210.45 795.319C216.763 780.894 227.474 771.917 241.977 766.213ZM485.457 388.795C493.717 381.096 500.048 376.153 510.838 371.96C514.453 370.555 518.195 369.697 521.743 368.198C519.968 366.79 515.346 367.454 512.902 367.624C495.818 371.464 487.268 380.339 479.782 395.81L485.457 388.795ZM645.823 459.358C647.849 459.541 649.992 460.019 651.36 458.318C651.171 453.141 642.6 452.438 638.938 453.863C638.075 454.199 638.209 454.845 637.952 455.785C638.413 457.057 638.319 457.186 639.313 458.046C640.693 458.238 644.802 458.769 645.823 459.358ZM247.431 763.744C249.693 760.375 252.837 748.825 250.115 745.821C248.795 748.893 244.781 761.424 247.431 763.744ZM658.39 918.482C661.184 916.684 663.97 915.049 665.737 912.173L665.297 911.422C663.361 912.986 659.4 915.958 658.062 917.802L658.39 918.482ZM394.884 769.75C387.328 756.722 376.412 752.635 361.937 750.604C357.268 749.948 352.304 750.302 347.589 749.668L347.173 749.608C332.734 749.728 315.598 750.725 301.692 750.479C294.385 751.545 264.214 750.604 261.082 753.754C261.015 755.099 261.202 755.383 261.569 756.704C262.284 757.282 262.943 757.52 263.86 757.476C287.948 756.315 311.888 758.138 335.86 760.386C355.289 762.207 376.16 763.833 394.884 769.75ZM662.367 939.24C662.752 939.902 662.932 940.736 663.741 940.903C671.871 942.582 706.106 921.894 713.123 916.473C717.509 913.084 722.611 909.095 725.374 904.203L724.925 903.52C714.45 907.846 702.978 912.739 691.479 912.44C686.63 912.314 681.773 911.531 676.946 911.169C675.556 921.169 668.324 925.527 659.654 928.663C660.442 931.843 661.398 936.212 662.367 939.24Z"/><path fill="#080101" d="M387.866 510.349C382.211 519.572 363.148 553.942 367.362 562.641L366.046 563.441C362.049 551.282 378.525 521.159 385.846 511.151C386.785 510.84 386.448 510.977 387.3 510.603L387.866 510.349Z"/><path fill="#240807" d="M640.386 549.989C638.952 550.049 638.655 550.026 637.228 549.842L637.148 549.137C645.866 539.43 648.569 525.538 653.869 513.885L654.817 513.589C652.114 525.777 646.451 538.958 640.386 549.989Z"/><path fill="#410F0F" d="M527.867 575.964C528.627 574.194 531.651 566.293 532.321 565.13C536.176 558.445 547.955 535.803 553.783 532.168L554.946 532.602C545.44 544.816 533.885 561.263 529.094 576.004L527.867 575.964Z"/><path fill="#240807" d="M235.479 783.968C227.956 789.246 222.404 794.239 218.228 802.542C217.108 804.77 214.998 809.626 213.837 811.503C210.263 803.839 227.164 784.645 235.479 783.968Z"/><path fill="#410F0F" d="M527.867 575.964L529.094 576.004C526.497 583.13 523.483 594.965 522.252 602.494C521.418 603.109 520.593 603.57 520.035 604.381C520.495 595.045 522.639 583.845 527.867 575.964Z"/><path fill="#240807" d="M520.035 604.381C520.593 603.57 521.418 603.109 522.252 602.494C521.001 610.962 517.359 629.794 522.88 636.376C522.228 636.257 520.473 635.996 520.12 635.498C515.978 629.642 519.645 610.862 520.035 604.381Z"/><path fill="#080101" d="M631.243 875.958C635.25 877.724 642.433 898.312 641.595 902.695C638.018 894.835 634.246 884.14 631.243 875.958Z"/><path fill="#080101" d="M366.046 563.441L367.362 562.641C370.705 566.05 374.023 569.546 377.044 573.249L373.953 576.291C370.982 570.157 369.392 568.848 366.046 563.441Z"/><path fill="#240807" d="M613.748 499.03C610.806 496.581 606.643 491.724 603.945 488.759L604.267 487.817C607.361 490.934 610.249 493.642 613.497 496.603C614.983 494.678 617.06 491.808 618.6 490.016C617.433 495.103 617.109 495.136 613.748 499.03Z"/><path fill="#410F0F" d="M545.938 390.78C551.211 392.756 557.723 395.243 559.87 400.924C554.469 396.776 551.087 395.528 545.868 392.035L545.938 390.78Z"/><path fill="#080101" d="M539.104 371.49C541.771 376.047 546.304 382.946 546.49 388.112C544.044 386.25 538.902 374.697 539.104 371.49Z"/><path fill="#410F0F" d="M721.199 923.336L720.845 922.716C721.04 919.213 724.946 916.389 728.36 916.594C726.264 919.002 723.882 921.566 721.199 923.336Z"/><path fill="#939094" fill-opacity="0.90588236" d="M693.16 924.074C691.34 925.062 679.292 931.219 678.215 930.857C680.325 928.848 689.906 924.783 693.088 923.301L693.16 924.074Z"/><path fill="#939094" fill-opacity="0.77254903" d="M693.088 923.301C694.13 922.647 706.882 915.691 707.289 915.602C706.513 917.507 695.512 923.042 693.16 924.074L693.088 923.301Z"/><path fill="#EAE9EA" fill-opacity="0.0078431377" d="M512.902 367.624C515.346 367.454 519.968 366.79 521.743 368.198C518.195 369.697 514.453 370.555 510.838 371.96C500.048 376.153 493.717 381.096 485.457 388.795L479.782 395.81C487.268 380.339 495.818 371.464 512.902 367.624Z"/><path fill="#080101" d="M481.165 458.742L482.859 458.107L483.252 458.615C481.704 461.414 479.556 464.404 477.716 467.071C460.893 491.445 450.412 516.301 444.691 545.424C443.36 527.945 461.709 489.684 470.746 474.582C473.443 470.075 478.29 463.986 480.964 459.115L481.165 458.742Z"/><path fill="#080101" d="M355.677 529.211C353.289 518.545 367.828 463.27 381.518 464.895C365.458 479.472 358.044 508.087 355.677 529.211Z"/><path fill="#080101" d="M620.291 504.545C622.005 500.298 635.736 473.049 638.184 471.334C634.009 483.163 628.748 493.507 621.682 503.864C627.024 511.014 628.838 515.069 629.099 524.086C627.668 522.394 626.225 516.144 624.657 513.203C623.338 510.73 621.537 507.084 620.291 504.545Z"/><path fill="#240807" d="M301.692 750.479C301.877 750.317 303.002 749.326 303.28 749.33C313.605 749.474 338.547 746.1 347.173 749.608C332.734 749.728 315.598 750.725 301.692 750.479Z"/><path fill="#410F0F" d="M639.313 458.046C640.693 458.238 644.802 458.769 645.823 459.358C643.793 462.771 647.651 465.331 647.169 470.263C645.349 468.024 645.268 468.041 642.612 466.779L641.346 466.094C641.438 462.361 640.831 461.277 639.313 458.046Z"/><path fill="#240807" d="M210.832 771.313C210.414 767.348 218.444 750.64 221.6 748.901L210.832 771.313Z"/><path fill="#410F0F" d="M469.498 548L469.759 546.526C472.454 543.244 475.854 539.008 480.07 538.215C477.558 540.636 472.033 546.12 469.498 548Z"/><path fill="#EAE9EA" fill-opacity="0.043137256" d="M665.297 911.422L665.737 912.173C663.97 915.049 661.184 916.684 658.39 918.482L658.062 917.802C659.4 915.958 663.361 912.986 665.297 911.422Z"/><path fill="#410F0F" d="M598.492 497.092C600.973 497.337 603.774 499.416 604.685 501.733L604.324 503.208C602.443 501.395 600.317 499.029 598.492 497.092Z"/><path fill="#C44F44" d="M196.737 152.25C201.242 157.728 206.803 166.303 211.023 172.292C215.74 178.986 220.744 185.361 225.416 191.907C241.773 188.12 258.152 186.114 274.49 182.78C274.156 198.599 272.665 215.525 272.583 231.111C277.532 232.425 285.273 236.041 290.149 238.185L318.174 250.532C308.268 263.251 299.584 277.384 289.21 290.703C297.759 303.701 305.893 317.987 313.768 331.491C297.903 335.724 282.366 341.39 266.525 344.922C267.204 359.097 264.982 376.291 264.983 391.014C250.363 386.252 230.428 381.447 216.776 376.342C206.126 387.516 193.55 401.507 182.623 412.07C177.329 403.658 171.371 395.845 166.252 387.719C163.525 384.014 161.565 381.018 159.124 377.104L156.514 373.341C141.371 378.174 123.697 382.665 108.211 387.015C107.958 369.411 107.664 352.013 107.056 334.41C92.3326 328.845 75.8518 322.089 60.7199 318.261C71.8462 303.941 80.7207 289.223 90.9766 275.429C81.1553 261.474 73.2992 249.127 64.0981 234.933C79.7965 232.061 97.5843 225.143 113.382 221.085C113.29 207.574 115.215 185.715 116.549 171.949C129.986 176.323 150.895 183.512 163.493 189.49C171.779 178.876 186.696 160.603 196.737 152.25ZM165.636 197.457C153.794 194.166 134.387 186.297 122.659 181.732C121.92 196.455 120.245 212.509 119.776 226.881C105.277 230.773 90.4241 235.118 75.9514 239.273L99.3012 275.517C92.8282 287.014 80.1053 302.92 72.584 314.647C85.1216 317.93 102.172 324.449 114.448 329.18C115.028 340.702 116.151 366.725 115.261 377.93C127.445 374.053 147.521 367.38 159.72 364.775C164.611 370.836 177.422 390.578 181.485 397.727C182.382 399 182.325 399.449 183.457 399.711C190.959 392.653 198.002 384.749 205.257 377.409C208.04 374.593 211.329 370.773 214.233 368.255C228.016 372.381 244.603 376.852 257.948 381.544C258.697 367.639 259.902 352.635 260.243 338.842C272.585 335.427 291.646 329.436 303.413 327.787C296.598 315.949 287.819 301.406 280.284 289.946L307.709 253.227C293.035 248.876 277.57 239.775 264.449 235.845C265.43 221.411 266.254 206.614 266.532 192.129C252.636 194.021 236.161 197.185 222.35 200.222L204.884 175.922C202.364 172.377 198.331 167.068 196.134 163.508C187.271 172.857 178.541 182.323 170.259 192.191C168.758 193.98 167.285 195.799 165.636 197.457Z"/><path fill="#A13F39" d="M159.124 377.104C162.142 378.863 166.704 384.025 166.252 387.719C163.525 384.014 161.565 381.018 159.124 377.104Z"/><path fill="#C44F44" d="M180.475 200.349C225.999 195.188 267.105 227.864 272.346 273.379C277.588 318.895 244.985 360.059 199.479 365.381C153.859 370.716 112.569 338.013 107.314 292.384C102.06 246.754 134.836 205.522 180.475 200.349ZM229.456 291.741L231.582 282.15C232.031 277.89 232.071 272.315 230.355 268.51C220.913 247.567 193.401 235.64 172.226 244.093C145.567 254.354 131.31 286.285 142.226 313.358C163.863 367.021 236.493 364.258 259.661 313.46C266.585 298.279 267.239 277.537 260.976 261.943C264.491 281.768 259.421 298.967 244 313.544C218.549 337.602 169.934 326.221 171.05 287.125C171.284 278.953 176.622 273.309 182.792 268.301C181.236 270.69 179.356 272.823 177.856 275.296C170.179 286.788 177.736 305.325 188.736 312.292C225.329 335.466 263.52 299.721 255.927 261.109C244.288 201.914 160.306 192.992 128.741 239.599C105.92 272.224 111.91 318.062 144.982 341.312C150.869 345.451 175.931 357.072 182.421 355.853C181.85 354.925 179.426 354.543 178.03 354.104C160.07 348.599 147.164 337.801 138.426 321.07C123.569 292.622 134.826 254.483 163.791 239.92C187.292 228.104 218.765 237.306 231.312 260.659C234.372 266.354 235.713 274.919 233.58 281.035C232.928 284.579 231.03 288.476 229.456 291.741Z"/><path fill="#E07751" d="M231.582 282.15C232.224 281.937 232.988 281.399 233.58 281.035C232.928 284.579 231.03 288.476 229.456 291.741L231.582 282.15Z"/><path fill="#FBCD69" d="M988.305 135.981C990.566 137.923 989.073 138.42 989.63 140.841C989.512 146.594 987.846 153.413 986.341 158.935C980.784 179.33 968.755 200.258 953.044 214.742C900.584 263.104 819.57 273.77 752.216 286.988C725.401 292.25 699.105 298.341 672.918 305.54C648.943 312.131 624.613 318.56 601.279 326.713L556.89 342.639C550.479 345.004 539.438 349.925 533.293 351.385C522.288 354.002 516.206 350.801 504.427 355.384C487.108 362.123 481.392 372.622 468.181 383.078C459.356 390.062 443.262 395.785 433.967 402.866C407.516 419.373 381.695 437.906 357.988 458.171C354.606 461.061 351.163 465.641 348.703 469.389C340.805 485.716 326.247 492.623 312.643 504.054C293.426 520.203 273.451 537.02 255.353 554.606C180.692 627.528 124.034 719.869 87.2805 817.268C80.6214 834.915 73.6607 858.537 68.4711 876.702C68.0747 878.054 66.9941 881.383 66.7647 882.605L65.3225 881.631L66.8642 874.701C69.7568 862.767 71.8308 850.276 74.8418 838.194C78.6135 820.61 85.327 804.154 90.8578 787.197C98.386 764.115 107.723 743.85 118.057 721.984C145.189 664.57 179.932 610.956 222.392 563.646C259.026 522.859 300.854 487.038 340.564 449.357C356.324 434.403 371.394 419.789 389.142 407.038C469.925 349 563.871 312.504 659.603 287.576C692.668 278.966 726.098 271.921 759.655 265.547C816.227 254.663 875.758 249.546 925.977 218.776C957.359 199.58 979.605 171.979 988.305 135.981Z"/><path fill="#D45C48" d="M352.762 369.072C354.487 367.05 356.327 365.166 358.256 363.337C378.034 344.577 397.21 325.157 415.833 305.253L465.463 251.659C477.076 239.051 488.661 225.675 501.501 214.279C601.036 125.943 733.862 76.8928 865.553 65.9034C907.019 62.4431 947.908 62.3635 988.92 68.7604L988.856 69.3192C985.678 69.7532 966.243 69.2063 961.188 69.3104C935.483 69.8395 909.613 70.635 884.02 73.4331C750.281 88.0543 589.506 142.093 495.942 242.56C500.977 244.595 505.187 246.972 507.582 252.153C512.644 263.105 500.344 274.845 489.593 269.857C484.571 267.527 482.612 262.965 480.878 258.05C476.603 263.264 470.577 269.33 465.863 274.291L440.911 300.525C409.482 333.696 375.797 367.034 342.588 398.557L284.009 453.284C282.447 454.764 279.956 457.234 278.89 458.969C276.879 462.242 275.594 466.989 272.451 469.474C254.535 483.642 241.353 447.02 263.385 445.239C264.75 445.129 267.557 445.705 269.038 446.015C283.888 433.482 298.146 420.29 312.301 406.979C321.508 398.319 332.223 388.924 340.855 379.872C321.928 317.106 348.276 251.594 386.683 202.416C391 196.888 396.543 190.981 400.446 185.463L400.814 182.63C402.233 182.853 402.204 182.489 402.92 181.505C402.752 179.569 402.853 179.154 403.434 177.289L403.622 184.239C408.687 182.171 412.218 181.274 417.629 180.315C420.33 180.768 421.435 181.292 423.953 182.275C417.305 188.217 411.809 194.605 406.045 201.382C364.523 250.2 341.481 304.437 352.762 369.072Z"/><path fill="#A13F39" d="M432.96 93.1094C456.234 88.9372 478.495 104.382 482.736 127.644C486.976 150.905 471.597 173.212 448.348 177.52C425.003 181.847 402.582 166.389 398.324 143.031C394.066 119.673 409.59 97.2989 432.96 93.1094ZM441.748 173.528C462.816 172.79 479.287 155.096 478.516 134.029C477.745 112.963 460.024 96.5198 438.959 97.3243C417.941 98.127 401.543 115.799 402.312 136.818C403.081 157.838 420.727 174.263 441.748 173.528Z"/><path fill="#A13F39" d="M471.356 146.026C469.357 151.625 468 155.246 463.964 159.726C446.014 179.647 410.529 168.167 409.658 140.576C409.384 131.899 412.041 124.705 417.98 118.367C420.672 119.337 421.345 118.826 424.111 118.636C401.91 139.338 419.312 168.484 446.585 166.3C458.954 165.309 464.852 155.217 471.356 146.026Z"/><path fill="#AE4035" d="M449.541 120.255C426.346 119.461 427.441 147.146 447.724 150.371C458.054 152.013 467.778 146.315 469.455 135.69C470.042 131.974 467.623 126.613 468.203 123.003C471.125 124.837 472.605 131.174 472.596 134.491C472.578 140.177 470.45 143.619 466.466 147.594C453.071 160.955 428.399 152.813 429.279 132.897C429.456 128.906 431.967 124.517 435.285 122.08C441.003 117.879 446.923 118.151 453.539 119.278C451.995 119.429 450.74 119.35 449.541 120.255Z"/><path fill="#AE4035" d="M428.646 111.899C440.072 109.177 450.332 109.299 458.971 118.81C445.016 111.989 437.969 110.991 424.111 118.636C421.345 118.826 420.672 119.337 417.98 118.367L420.397 115.72L421.021 117.427L422.156 117.483C424.461 116.424 427.139 113.919 428.646 111.899Z"/><path fill="#D45C48" d="M420.397 115.72C424.911 111.526 434.339 105.173 440.738 105.673C442.106 106.476 441.83 105.945 442.132 107.055C436.579 106.996 432.853 107.887 428.344 111.465L428.646 111.899C427.139 113.919 424.461 116.424 422.156 117.483L421.021 117.427L420.397 115.72Z"/><path fill="#C44F44" d="M453.539 119.278C457.269 120.935 461.651 122.952 462.998 127.215L462.407 127.304C458.021 122.397 456.479 121.402 449.541 120.255C450.74 119.35 451.995 119.429 453.539 119.278Z"/><path fill="#410F0F" d="M843.135 808.239C865.655 805.134 886.465 820.768 889.754 843.262C893.042 865.755 877.578 886.692 855.112 890.164C832.386 893.676 811.152 877.993 807.826 855.239C804.499 832.485 820.355 811.38 843.135 808.239ZM854.238 889.225C876.189 886.187 891.574 866.005 888.688 844.034C885.801 822.063 865.725 806.539 843.734 809.274C821.529 812.036 805.82 832.352 808.735 854.538C811.65 876.723 832.073 892.292 854.238 889.225Z"/><path fill="#D45C48" d="M843.734 809.274C865.725 806.539 885.801 822.063 888.688 844.034C891.574 866.005 876.189 886.187 854.238 889.225C832.073 892.292 811.65 876.723 808.735 854.538C805.82 832.352 821.529 812.036 843.734 809.274ZM876.807 873.152C880.348 866.462 880.995 868.265 884.224 858.951C884.807 856.71 885.13 855.317 885.458 853.031L883.277 857.633C879.172 866.948 868.286 873.337 858.677 875.235C835.472 879.995 815.208 854.037 830.162 833.764C840.149 820.225 866.517 823.871 866.332 841.903C864.553 850.849 858.692 855.376 849.734 852.234C846.003 850.217 841.178 846.13 842.623 841.29C845.631 845 844.866 846.662 849.471 850.478L849.983 850.894C857.851 853.868 862.43 849.879 864.397 842.309L864.328 841.673C862.51 826.255 839.445 825.586 833.523 836.432C815.032 870.301 870.545 886.006 881.782 851.071C884.595 841.376 880.884 835.594 875.955 827.739L875.476 827.349C873.066 825.367 870.824 822.536 868.306 820.764C854.319 810.923 836.548 812.284 824.118 824.032C822.614 825.454 820.229 829.041 818.909 830.094C814.259 838.29 811.622 847.079 814.774 856.271C824.904 885.815 853.695 892.679 876.807 873.152Z"/><path fill="#A13F39" d="M883.277 857.633C879.172 866.948 868.286 873.337 858.677 875.235C835.472 879.995 815.208 854.037 830.162 833.764C840.149 820.225 866.517 823.871 866.332 841.903L865.24 841.42L864.397 842.309L864.328 841.673C862.51 826.255 839.445 825.586 833.523 836.432C815.032 870.301 870.545 886.006 881.782 851.071C883.561 854.021 882.516 854.576 883.277 857.633Z"/><path fill="#410F0F" d="M817.369 829.88L818.909 830.094C814.259 838.29 811.622 847.079 814.774 856.271C824.904 885.815 853.695 892.679 876.807 873.152C874.051 878.219 867.596 881.04 862.281 883.056C834.091 893.747 807.049 867.891 813.527 839.337C814.312 835.877 815.712 833.126 817.369 829.88Z"/><path fill="#571716" d="M817.369 829.88C828.286 811.536 854.324 807.333 870.474 821.341C872.348 822.967 875.33 825.317 875.955 827.739L875.476 827.349C873.066 825.367 870.824 822.536 868.306 820.764C854.319 810.923 836.548 812.284 824.118 824.032C822.614 825.454 820.229 829.041 818.909 830.094L817.369 829.88Z"/><path fill="#C44F44" d="M864.397 842.309L865.24 841.42L866.332 841.903C864.553 850.849 858.692 855.376 849.734 852.234L849.983 850.894C857.851 853.868 862.43 849.879 864.397 842.309Z"/><path fill="#AE4035" d="M849.734 852.234C846.003 850.217 841.178 846.13 842.623 841.29C845.631 845 844.866 846.662 849.471 850.478L849.983 850.894L849.734 852.234Z"/><path fill="#A13F39" d="M885.458 853.031C885.734 850.99 885.951 847.265 886.866 845.673C887.225 849.63 886.606 855.611 884.224 858.951C884.807 856.71 885.13 855.317 885.458 853.031Z"/><path fill="#FBCD69" d="M807.766 326.783C818.904 325.809 835.822 326.469 847.162 326.863C890.314 328.364 934.491 335.795 974.9 351.27C979.277 352.946 986.767 357.028 991.096 359.261C897.163 337.224 815.34 339.44 721.703 358.613C688.093 365.082 660.864 373.178 628.418 383.772L598.986 393.528C592.56 395.686 586.598 397.834 579.977 399.451C572.392 401.304 568.614 398.339 567.036 390.743C566.608 388.361 567.096 385.086 568.823 383.271C572.772 379.121 579.995 376.842 585.306 374.852C591.335 372.593 597.618 370.756 603.689 368.716C654.095 351.781 705.74 338.385 758.491 331.265C774.8 329.063 791.351 327.947 807.766 326.783Z"/><path fill="#6FAE7A" d="M961.095 515.313L962.666 517.102C951.708 526.837 939.677 535.929 928.182 545.03C903.972 564.197 879.405 583.119 857.184 604.62C849.508 612.335 842.676 620.031 837.189 629.653C829.847 642.527 824.463 656.179 834.95 669.571C843.888 680.985 872.925 686.555 874.8 666.484C875.042 663.899 871.605 660.177 869.879 658.476C864.558 653.509 858.25 657.705 853.658 661.065C856.324 656.889 858.852 653.626 864.04 652.601C878.847 649.674 884.265 667.541 876.591 677.377C867.227 689.38 845.339 688.23 834.298 679.203C826.831 673.236 823.182 666.245 821.624 656.896C819.44 643.802 826.595 636.522 830.232 625.509C835.215 617.467 837.401 614.648 843.735 607.663C838.921 611.179 833.53 615.817 828.726 619.598C808.143 633.967 788.73 649.152 768.537 663.808C751.667 676.053 736.433 686.117 719.887 699.08C744.62 692.734 812.689 685.108 803.18 728.78C799.103 749.882 761.671 769.01 742.718 762.411C715.636 752.983 731.744 715.013 765.288 726.76C756.065 727.279 743.899 727.069 738.708 736.203C735.121 741.322 735.825 750.633 742.497 753.014C758.417 759.006 785.967 744.3 792.202 729.091C803.068 702.586 757.367 703.258 742.956 705.24C732.319 706.703 710.636 708.221 701.951 713.225C687.014 721.831 673.154 734.602 658.533 744.018C651.501 748.48 645.576 753.737 638.064 757.106L637.386 757.406C635.274 753.691 633.153 750.062 630.965 746.39C650.897 734.421 668.593 721.282 687.402 707.692L743.187 667.847L860.924 585.304C894.011 562.079 927.671 537.943 961.095 515.313Z"/><path fill="#6FAE7A" d="M572.197 796.901C575.242 797.469 578.71 805.291 580.263 808.192C550.432 825.874 519.837 844.864 489.334 861.188C378.2 920.662 252.47 973.051 123.84 958.347C96.6586 955.24 70.3128 947.65 44.8724 937.763C42.044 936.545 33.9119 933.07 31.9375 931.305C35.9987 931.655 43.7556 934.384 48.0792 935.539C196.76 975.236 347.631 922.461 477.99 851.698C509.204 834.753 542.489 816.402 572.197 796.901Z"/><path fill="#FBCD69" d="M62.1398 894.803C60.0485 874.767 62.0234 857.82 64.959 838.193C82.8422 718.625 133.505 602.828 207.07 507.064C217.014 494.12 227.545 481.554 237.324 468.425C243.074 472.735 250.029 475.641 255.76 480.324C251.451 486.365 244.006 494.161 238.829 499.979C153.803 595.543 98.2578 714.395 70.5896 838.751C68.4462 848.384 62.1965 879.964 63.4417 888.647C63.7901 889.955 63.5349 892.174 63.4487 893.624C62.6644 894.568 63.1087 894.184 62.1398 894.803Z"/><path fill="#6FAE7A" d="M526.069 757.486C528.384 757.459 535.903 762.687 539.061 764.352C529.506 771.696 517.434 779.024 507.199 785.452C388.522 859.983 212.154 954.719 68.4079 916.574C60.9117 914.408 58.8384 913.704 51.6895 910.778C52.4479 910.331 54.2363 911.106 55.5131 911.341C84.4359 916.616 112.951 916.993 142.33 914.852C256.879 906.502 364.226 855.178 462.172 798.238C483.905 785.604 505.145 771.039 526.069 757.486Z"/><path fill="#D45C48" d="M223.251 410.533C228.032 412.439 232.493 415.943 237.407 418.184C226.261 429.729 216.441 442.798 206.64 455.492C121.396 565.899 53.04 742.387 55.4964 883.047C55.532 885.087 55.5563 887.127 55.6597 889.165L53.8399 887.195C46.1037 834.951 54.7483 772.135 67.2687 721.581C91.3237 624.453 131.922 530.517 192.005 450.211C202.03 436.811 213.592 423.961 223.251 410.533Z"/><path fill="#D45C48" d="M74.9116 864.633C77.4861 857.032 79.7512 849.244 82.4889 841.764C125.779 723.49 205.619 620.109 302.27 540.304C311.602 532.598 324.814 520.558 335.658 515.098L334.845 534.027C315.925 549.59 297.456 563.183 279.052 579.781C190.663 659.494 121.845 756.035 76.7159 866.333L74.9116 864.633Z"/><path fill="#6FAE7A" d="M843.021 479.384C840.508 492.05 856.505 500.53 862.097 485.975C866.866 473.564 857.858 461.942 846.251 458.079C820.655 449.562 800.991 478.855 812.431 501.193C817.691 511.468 827.122 516.353 837.517 519.806C875.065 532.28 897.651 508.965 915.452 478.936C930.952 452.789 939.129 428.198 948.049 399.362C949.049 401.517 948.72 402.656 949.3 404.817C946.694 436.322 922.345 496.693 897.65 517.355C883.986 528.984 867.462 533.639 849.752 531.716C834.47 530.352 817.25 524.487 807.298 512.121C793.678 495.195 796.86 468.054 814.284 454.794C830.063 442.787 853.243 444.075 865.824 460.087C873.571 469.948 875.868 486.671 864.369 494.749C851.546 503.622 834.101 493.823 840.711 477.521L843.021 479.384Z"/><path fill="#6FAE7A" d="M670.127 496.156C680.055 497.757 704.618 518.928 710.83 527.551C759.361 594.913 652.747 676.071 607.328 709.613L605.995 710.277C603.296 709.355 600.122 703.886 598.495 701.433C604.162 696.28 611.461 690.989 617.456 685.884C631.785 673.68 648.144 661.236 661.525 648.066C683.038 626.893 710.805 595.477 711.723 564.002C712.318 543.629 698.272 524.365 683.328 512.027C679.869 509.171 670.752 503.152 668.75 501.056C668.565 499.38 669.457 497.769 670.127 496.156Z"/><path fill="#EF884A" d="M770.21 132.387C770.35 133.521 770.404 132.884 769.985 134.081C764.827 148.847 760.832 164.014 757.949 179.387C757.232 183.207 756.526 187.062 756.379 190.968C767.308 190.526 786.99 193.231 796.259 191.989C783.379 197.727 769.617 199.625 756.333 207.354C758.113 221.406 761.994 241.834 765.525 255.755C759.777 245.312 746.661 224.914 739.756 215.428C733.93 222.186 727.171 228.994 721.128 235.905C713.639 244.031 706.58 254.108 699.125 261.872C710.264 242.831 719.653 222.215 730.207 202.94C719.511 194.613 706.124 185.335 694.163 179.291C708.165 183.6 724.25 186.531 738.644 189.089C742.294 181.494 747.26 173.41 751.468 165.978L770.21 132.387Z"/><path fill="#AE4035" d="M850.035 785.765C854.598 790.565 858.252 797.77 863.466 803.305C870.482 801.431 879.216 799.676 886.384 798.018C887.209 805.749 888.45 813.315 889.164 821.115C895.943 822.093 905.885 824.939 912.573 826.915C908.69 832.464 904.893 838.248 901.39 844.042C899.291 844.866 898.562 845.381 896.421 845.111C899.429 840.213 903.512 833.467 907.104 829.034C900.758 826.848 892.712 824.634 885.971 824.33C886.219 816.725 884.874 809.698 884.38 802.205L861.957 806.252C857.455 801.791 854.013 795.07 849.815 790.103C845.43 795.681 841.127 801.394 835.984 806.296C829.673 804.49 820.068 801.207 814.162 799.869C813.424 806.503 812.331 815.006 812.244 821.566C806.089 824.704 796.433 826.958 789.745 829.913C793.31 834.738 799.594 843.753 803.393 847.905C798.609 853.771 793.57 860.192 789.132 866.332C796.689 868.745 803.969 871.38 811.451 873.987C811.866 881.557 812.382 889.341 812.564 896.902C818.25 894.911 829.391 891.432 834.387 889.143C837.115 894.899 844.63 904.032 848.852 909.478C852.587 904.134 858.218 895.606 862.618 891.083C869.363 894.432 878.728 895.961 886.253 897.55C886.083 890.451 886.715 879.54 886.192 873.394C890.619 871.836 903.514 867.56 907.97 866.787C909.38 868.203 909.665 868.194 911.619 868.88C907.98 869.642 892.768 874.578 889.472 875.941C889.637 884.701 888.785 893.033 889.284 901.882C882.184 899.657 870.617 897.263 863.173 895.471C858.064 901.557 853.308 908.001 848.561 914.37C842.988 907.167 837.621 900.538 832.797 892.8C825.877 895.031 816.407 898.342 809.755 901.021C809.969 894.136 809.184 882.896 808.536 875.914C800.61 873.131 792.642 870.272 784.66 867.674C789.727 860.844 794.63 854.196 800.007 847.593C794.638 841.255 789.42 834.626 784.22 828.134C792.737 825.921 800.629 822.181 809.574 819.937C809.454 813.421 811.085 802.653 811.798 795.658C819.562 797.882 827.15 800.937 835.12 803.232C840.439 797.133 844.049 791.742 850.035 785.765Z"/><path fill="#EF884A" d="M785.611 393.367L788.742 393.212C786.769 399.243 784.228 411.652 782.673 418.332C793.585 419.018 803.278 420.499 814.192 419.219C804.424 423.418 793.277 426.706 783.182 430.338C784.753 440.592 788.299 451.368 791.439 461.21C786.538 453.279 778.522 443.395 774.473 435.994C760.892 448.181 756.645 455.009 744.84 467.561C752.656 454.517 759.662 441.092 767.65 428.345C760.007 420.931 754.974 417.137 745.991 411.86C756.481 415.062 761.956 415.637 772.372 417.679C777.038 407.939 779.823 402.493 785.611 393.367Z"/><path fill="#AE4035" d="M441.264 68.0062C447.542 74.8738 452.124 80.9113 457.751 88.3105C465.796 85.4287 474.898 82.6357 483.143 79.8082C481.634 88.5911 482.597 97.2024 481.377 105.814C480.431 104.542 479.966 103.002 479.389 101.505L478.666 101.192L479.277 84.6428C471.691 87.2803 464.687 89.7041 456.978 91.9089C451.278 85.6429 446.78 78.5959 441.474 72.507C437.192 78.0346 430.833 85.8269 426.087 90.901C418.592 88.2396 410.956 85.4373 403.423 82.9331C403.519 90.9111 403.731 97.8101 404.22 105.744C396.236 107.814 387.843 110.819 380 113.522C385.596 120.116 389.491 124.847 394.378 132.089C389.721 138.516 385.377 146.779 380.622 152.519L376.801 152.188C381.357 145.374 385.873 138.718 390.701 132.094C385.782 126.297 379.642 118.106 375.067 111.959C382.945 108.966 393.045 105.542 401.026 103.086C400.162 95.6594 400.066 85.5036 400.064 77.9979C408.632 80.7409 416.43 83.4105 424.871 86.518C430.117 80.3082 435.847 74.1195 441.264 68.0062Z"/><path fill="#EF884A" d="M531.774 894.824C538.014 887.085 545.943 873.538 550.968 867.895C546.135 878.659 543.249 885.569 540.576 897.29C548.416 897.591 553.832 897.792 561.692 896.728C554.951 900.081 548.518 903.061 541.65 906.156C542.608 910.986 543.6 916.752 544.789 921.461L542.422 922.659C540.28 918.832 536.804 914.506 534.27 910.082C530.038 912.973 525.562 917.047 521.625 920.436C520.257 919.603 520.271 919.295 519.286 917.939C522.47 912.482 525.39 907.63 528.028 901.881L520.125 896.5C519.962 895.167 519.643 893.962 520.119 892.755C524.07 893.4 527.848 894.046 531.774 894.824Z"/><path fill="#AE4035" d="M487.131 133.826C489.195 134.394 488.244 134.485 490.095 133.731C491.041 136.241 504.036 152.737 506.434 155.401C498.209 158.376 491.485 160.292 482.988 162.385C482.962 170.872 482.575 179.203 482.505 187.611C473.849 183.692 468.182 181.481 458.624 179.731C453.513 186.944 447.041 193.28 441.478 200.127C439.518 197.937 425.976 182.467 423.953 182.275C421.435 181.292 420.33 180.768 417.629 180.315C420.233 179.729 422.377 179.48 425.009 179.143C430.627 183.223 436.524 190.062 441.311 195.262C456.534 177.163 456.606 173.864 479.561 182.347C479.586 174.755 479.843 167.313 479.648 159.702C486.749 157.868 493.822 155.841 500.885 153.855C497.883 149.871 488.766 138.307 486.692 134.601L487.131 133.826Z"/><path fill="#EF884A" d="M605.847 188.487C603.049 198.012 602.221 205.972 601.183 215.761C608.082 214.335 616.453 213.653 623.553 213.054C615.944 216.497 608.124 219.506 600.627 222.931C602.155 228.835 603.914 236.755 606.045 242.292C601.699 237.107 597.712 232.058 594.022 226.357C586.192 231.995 581.085 236.139 573.934 242.604C579.371 234.707 583.01 229.368 588.005 221.117C589.399 218.711 590.129 217.001 591.771 214.578C595.634 206.34 601.42 196.669 605.847 188.487Z"/><path fill="#E07751" d="M918.389 710.7C920.686 706.127 923.763 701.101 926.407 696.667C926.841 697.909 927.288 699.508 927.957 700.574C926.969 706.395 924.393 711.878 932.215 711.505C929.493 713.012 928.52 715.344 928.693 718.481C924.966 722.766 927.84 732.525 928.856 737.743C925.439 732.087 922.918 727.753 918.672 722.65L907.174 732.437L907.322 729.063C909.162 725.669 911.581 723.343 913.968 718.549C910.63 711.727 908.034 709.98 902.23 705.225C906.239 706.978 913.759 709.024 918.389 710.7Z"/><path fill="#EF884A" d="M754.123 805.003C752.259 812.857 748.758 819.817 747.23 826.303C753.998 823.74 761.908 820.557 768.753 818.324L768.246 818.664C762.579 822.376 756.267 824.884 750.349 828.78C750.869 830.164 751.121 830.763 751.814 832.124L751.177 832.653L750.403 831.671C749.484 832.894 749.774 832.407 749.341 833.937C748.452 833.093 746.851 831.481 745.969 830.748L738.443 838.801L736.495 837.262C738.464 834.312 739.778 831.136 742.179 828.556C736.281 826.437 731.266 823.678 725.812 820.695C731.663 822.278 737.283 823.776 743.054 825.641C746.841 818.408 749.781 812.054 754.123 805.003Z"/><path fill="#D45C48" d="M478.666 101.192L479.389 101.505C479.966 103.002 480.431 104.542 481.377 105.814C486.773 107.55 500.058 111.091 504.678 113.373L504.869 114.046C502.58 114.473 502.518 114.577 500.671 116.103C495.034 113.245 483.909 109.487 477.76 108.568C478.366 105.795 478.464 103.984 478.666 101.192Z"/><path fill="#AE4035" d="M396.345 158.011C398.293 158.906 401.088 160.088 402.87 161.145C403.189 165.836 403.78 172.716 403.434 177.289C402.853 179.154 402.752 179.569 402.92 181.505C402.204 182.489 402.233 182.853 400.814 182.63L400.446 185.463C399.829 182.183 399.667 166.527 399.558 162.547L395.516 160.958C395.945 160.018 396.103 159.033 396.345 158.011Z"/><path fill="#AE4035" d="M500.671 116.103C502.518 114.577 502.58 114.473 504.869 114.046C503.78 115.925 502.882 117.434 501.652 119.22C499.09 122.842 493.42 131.405 490.095 133.731C488.244 134.485 489.195 134.394 487.131 133.826C488.398 131.349 497.076 120.646 499.109 118.109L500.671 116.103Z"/><path fill="#E07751" d="M577.737 209.678C582.495 211.44 586.911 213.07 591.771 214.578C590.129 217.001 589.399 218.711 588.005 221.117C584.224 217.526 580.967 214.794 576.96 211.535L577.737 209.678Z"/><path fill="#D45C48" d="M376.801 152.188L380.622 152.519C385.886 154.417 391.036 156.235 396.345 158.011C396.103 159.033 395.945 160.018 395.516 160.958C391.797 159.754 377.998 155.913 376.345 153.95L376.801 152.188Z"/><path fill="#AE4035" d="M899.707 850.97C901.671 853.163 906.024 858.162 907.571 860.567C907.252 861.973 907.09 863.065 906.434 864.358C903.475 860.576 900.49 856.908 897.452 853.193C898.054 852.492 899.017 851.632 899.707 850.97Z"/><path fill="#D45C48" d="M932.215 711.505C937.547 711.318 940.918 710.777 946.153 710.15C940.02 712.49 935.027 714.116 929.581 717.868L929.024 718.247C928.914 718.325 928.804 718.403 928.693 718.481C928.52 715.344 929.493 713.012 932.215 711.505Z"/><path fill="#626462" fill-opacity="0.015686275" d="M828.726 619.598C833.53 615.817 838.921 611.179 843.735 607.663C837.401 614.648 835.215 617.467 830.232 625.509C830.115 624.051 830.427 623.118 830.748 621.703C830.234 620.001 830.698 620.797 828.726 619.598Z"/><path fill="#626462" fill-opacity="0.96470588" d="M961.095 515.313C968.567 509.965 974.073 505.339 981.065 499.363C979.981 501.984 965.681 514.405 962.666 517.102L961.095 515.313Z"/><path fill="#C44F44" d="M74.9116 864.633L76.7159 866.333C74.6624 871.701 71.6155 879.145 70.0218 884.503L68.7355 884.488C70.7328 879.043 73.0367 870.492 74.9116 864.633Z"/><path fill="#D45C48" d="M896.421 845.111C898.562 845.381 899.291 844.866 901.39 844.042C900.4 845.814 898.954 847.904 898.848 849.844L899.707 850.97C899.017 851.632 898.054 852.492 897.452 853.193L893.877 849.799L896.421 845.111Z"/><path fill="#B2A885" fill-opacity="0.98431373" d="M65.3225 881.631L66.7647 882.605C65.9875 884.957 62.905 900.4 62.2907 900.809C61.9105 898.816 62.0828 896.844 62.1398 894.803C63.1087 894.184 62.6644 894.568 63.4487 893.624C63.5349 892.174 63.7901 889.955 63.4417 888.647C64.2313 886.911 64.8689 883.603 65.3225 881.631Z"/><path fill="#E4862C" d="M749.341 833.937C749.774 832.407 749.484 832.894 750.403 831.671L751.177 832.653L751.814 832.124C754.223 835.657 755.713 840.356 757.115 844.399L749.341 833.937Z"/><path fill="#E4862C" d="M511.216 930.413C513.891 926.152 516.473 922.119 519.286 917.939C520.271 919.295 520.257 919.603 521.625 920.436C518.131 923.664 514.746 927.124 511.216 930.413Z"/><path fill="#D45C48" d="M907.571 860.567C909.471 862.794 911.412 864.758 912.628 867.391C912.399 868.593 912.661 868.066 911.619 868.88C909.665 868.194 909.38 868.203 907.97 866.787L906.434 864.358C907.09 863.065 907.252 861.973 907.571 860.567Z"/><path fill="#74B782" d="M950.832 387.998C950.893 393.49 950.185 399.397 949.3 404.817C948.72 402.656 949.049 401.517 948.049 399.362L950.832 387.998Z"/><path fill="#E4862C" fill-opacity="0.98431373" d="M792.239 380.789C791.238 384.55 789.539 389.625 788.742 393.212L785.611 393.367L792.239 380.789Z"/><path fill="#E4862C" d="M729.203 848.456C731.646 845.268 734.314 840.74 736.495 837.262L738.443 838.801C735.388 842.219 732.569 845.329 729.203 848.456Z"/><path fill="#EF884A" d="M926.407 696.667C927.91 693.985 929.886 690.22 931.521 687.732C930.333 691.865 928.916 696.418 927.957 700.574C927.288 699.508 926.841 697.909 926.407 696.667Z"/><path fill="#EF884A" d="M511.309 890.713C514.302 891.358 517.149 892.017 520.119 892.755C519.643 893.962 519.962 895.167 520.125 896.5C517.271 894.409 514.303 892.597 511.309 890.713Z"/><path fill="#74B782" d="M846.698 469.293C845.272 472.663 843.786 475.805 843.021 479.384L840.711 477.521C842.43 474.205 844.324 472.155 846.698 469.293Z"/><path fill="#FBCD69" fill-opacity="0.98039216" d="M990.211 125.972C990.441 128.609 990.552 138.805 989.63 140.841C989.073 138.42 990.566 137.923 988.305 135.981C988.953 132.661 989.639 129.302 990.211 125.972Z"/><path fill="#AF714D" fill-opacity="0.90588236" d="M53.8399 887.195L55.6597 889.165L56.6175 894.961L56.0864 895.625L56.4687 896.165L56.2878 896.102C54.864 893.502 54.4173 890.146 53.8399 887.195Z"/><path fill="#EF884A" fill-opacity="0.96862745" d="M907.322 729.063L907.174 732.437C905.801 733.92 903.658 735.798 902.134 737.222C904.04 733.601 904.89 732.347 907.322 729.063Z"/><path fill="#E4862C" fill-opacity="0.98823529" d="M544.789 921.461C545.347 924.531 545.843 926.352 546.711 929.323C545.512 927.494 543.412 924.471 542.422 922.659L544.789 921.461Z"/><path fill="#EF884A" fill-opacity="0.96078432" d="M570.659 206.752L577.737 209.678L576.96 211.535L570.659 206.752Z"/><path fill="#626462" fill-opacity="0.92156863" d="M68.7355 884.488L70.0218 884.503C69.3969 886.267 68.7042 888.012 68.0267 889.758L68.0218 889.616L67.32 890.73L67.4219 890.678C67.1629 889.2 68.2733 886.098 68.7355 884.488Z"/></svg>