<?xml version="1.0" encoding="utf-8" ?><svg xmlns="http://www.w3.org/2000/svg" xmlns:xlink="http://www.w3.org/1999/xlink" width="1024" height="1024" viewBox="0 0 1024 1024"><path fill="#343548" d="M503.363 252.953C510.559 249.626 518.045 250.484 525.889 250.933C527.801 251.042 528.168 250.524 529.953 249.77C536.597 261.267 534.813 272.329 538.523 284.861C545.954 309.963 555.052 334.868 558.219 360.998C560.267 377.922 558.876 394.834 558.092 411.76C557.44 425.83 554.703 439.76 553.82 453.68L553.221 453.169C541.443 443.014 537.576 436.675 536.472 421.361C548.762 414.564 554.732 411.859 544.032 399.266C549.803 389.785 542.593 391.707 537.392 387.229C536.07 386.091 537.654 386.596 535.712 386.222C533.627 390.638 538.254 392.462 541.623 394.218C544.302 397.251 541.464 397.918 541.148 402L543.429 405.633C548.713 413.933 538.093 416.228 532.123 419.417C535.794 457.541 562.639 458.088 576.905 490.127C582.168 501.946 582.77 519.041 584.672 531.988C586.812 546.548 589.043 559.934 594.048 573.893C578.711 585.596 564.676 590.07 546.789 596.325C542.94 597.671 534.309 600.317 531.077 602.072C532.176 602.772 552.733 597.331 555.687 596.531C566.769 593.531 577.436 588.468 587.761 583.487L587.869 584.118C590.926 602.703 588.551 609.447 598.694 626.864C605.413 638.402 611.002 652.766 618.466 664.274C628.704 683.037 636.071 702.232 650.123 718.794C649.535 739.589 676.073 782.642 686.454 801.831C693.342 814.563 700.969 821.478 704.796 836.731C706.799 834.924 709.752 831.719 712.465 834.369C714.683 836.536 716.047 840.305 717.865 842.921C726.092 854.758 739.389 862.391 753.251 865.632C754.404 866.004 761.096 867.403 761.67 868.206C764.629 872.345 759.163 880.679 755.582 882.929C739.935 892.701 720.135 883.229 703.785 880.596C697.097 879.519 690.096 880.129 683.458 878.676C679.903 877.899 676.128 876.221 677.927 871.851C679.418 871.689 684.583 873.971 687.071 874.353C694.039 875.425 701.135 876.002 708.04 877.303C725.829 880.655 748.455 892.517 760.651 872.646C751.901 879.547 745.545 881.411 734.318 879.512C718.254 876.794 702.431 871.586 686.095 869.489C684.598 869.297 680.798 867.917 679.77 867.028C678.323 862.849 680.484 850.372 681.775 846.228C683.09 845.142 682.616 845.475 684.75 845.452C684.973 839.102 659.952 810.11 654.498 804.25L650.343 799.874C653.393 805.212 665.643 822.515 669.656 827.67L658.825 832.058C654.124 823.571 649.982 814.741 645.378 806.298C633.472 784.466 621.633 762.866 613.963 739.11C612.825 735.818 611.508 732.468 609.428 729.659C603.907 722.204 595.517 716.927 589.207 710.373C578.746 699.509 566.595 688.899 556.31 678.013C546.946 691.675 536.454 718.216 526.374 730.607C520.642 737.653 493.812 746.696 484.991 752.271C456.575 765.54 429.532 781.539 401.947 796.308C395.234 799.902 383.766 811.833 378.107 812.257C362.617 813.418 368.664 791.718 369.922 785.994L376.133 786.712C384.028 780.606 391.391 773.393 399.018 766.817C419.363 749.277 440.084 730.763 465.466 720.891C474.732 717.288 483.432 715.789 492.768 713.24C497.433 687.657 508.802 668.757 516.189 645.328C511.327 627.581 512.248 601.181 516.716 583.512C525.949 547.002 537.841 526.586 506.358 497.465C483.712 508.13 469.878 523.763 451.125 539.608C436.754 551.751 421.574 563.36 406.954 575.249C399.006 581.712 388.646 590.471 379.796 595.321C376.258 593.638 362.396 587.434 364.075 582.427L366.51 581.701C365.717 579.508 364.18 578.91 363.762 576.805C365.7 575.1 368.349 577.557 370.469 577.133C369.159 575.55 366.878 573.544 367.995 571.551C369.895 571.273 371.044 572.099 372.828 572.941C372.29 570.501 370.654 567.225 372.732 565.482C374.283 565.83 376.496 568.481 377.975 569.833L378.593 569.692C377.292 567.539 376.759 566.676 376.467 564.229C377.014 562.702 376.523 563.236 377.96 562.55C383.093 562.65 389.229 568.588 393.181 571.887C399.04 565.451 405.666 559.216 411.659 552.843C418.611 545.451 425.818 538.17 432.89 530.888C437.196 526.454 443.794 523.318 447.817 518.426C466.371 493.961 482.901 468.598 503.93 446.049L504.783 445.335L505.826 443.383C505.253 442.184 500.502 441.653 498.694 441.107C489.978 438.474 484.293 433.293 478.355 426.627C477.442 425.602 476.728 425.538 475.581 425.613C473.933 428.357 478.087 437.074 471.637 444.581C470.148 444.356 471.507 443.514 469.784 441.976L469.346 442.684C469.515 444.395 469.872 445.61 469.049 447.055C466.934 447.664 467.996 446.186 465.628 446.236C464.711 448.37 464.693 449.121 462.434 449.875L461.819 449.342L461.975 447.014L461.604 446.612C461.144 447.413 461.007 447.658 460.458 448.414C459.308 447.622 458.964 447.21 457.596 447.028C455.49 448.748 457.463 451.907 453.282 455.9L452.526 455.787C452.147 454.149 452.946 448.7 453.09 446.277C452.327 447.358 448.991 452.219 448.216 452.359C443.397 453.227 432.429 449.553 430.542 444.971C445.282 442.309 438.574 437.33 443.513 425.989C444.031 424.798 447.962 421.436 449.191 420.348C448.311 420.578 447.675 420.68 446.781 420.839L446.369 420.364C447.609 417.648 452.911 416.532 455.565 416.21C458.344 415.829 464.571 416.578 467.587 416.891C466.962 405.751 466.209 394.13 472.373 383.184C478.727 371.899 497.051 358.829 510.678 365.941C512.91 367.106 513.214 368.74 513.747 371.123C516.242 373.442 520.203 377.29 523.188 378.681C529.353 381.553 532.171 381.97 538.025 385.867C541.399 364.865 533.307 315.523 527.678 294.56C523.142 277.666 518.07 280.234 504.952 274.203C504.788 274.103 504.625 274.002 504.462 273.902C503.03 270.367 499.981 260.928 501.795 257.558C505.283 258.424 506.562 265.123 510.676 267.418L511.349 267.155C511.831 263.436 505.824 256.419 503.363 252.953ZM692.878 848.172C696.667 844.795 701.09 841.006 704.19 837.046C702.702 834.828 701.911 833.284 699.626 831.833C697.104 834.773 688.983 844.63 689.957 848.446L690.826 848.923C691.444 848.707 692.31 848.441 692.878 848.172ZM711.387 856.723C713.63 855.78 716.843 851.845 716.492 849.315L715.457 848.383C712.617 850.101 708.547 851.566 709.785 855.333L711.387 856.723ZM438.729 447.649C440.909 446.606 441.237 446.535 442.951 444.917L443.118 444.177L442.671 444.012C440.998 445.032 439.618 445.816 437.879 446.717L437.815 447.294L438.729 447.649Z"/><path fill="#D5E0DF" d="M504.783 445.335C505.624 447.494 506.029 449.748 506.836 451.975C509.936 460.531 514.075 468.662 519.164 476.207C523.719 483.268 531.213 491.617 534.722 498.87C521.871 486.529 515.106 476.81 508.586 459.788C506.989 455.621 505.501 449.849 503.93 446.049L504.783 445.335Z"/><path fill="#24222C" d="M541.623 394.218C544.302 397.251 541.464 397.918 541.148 402L540.504 402.527C539.093 402.483 538.892 402.11 537.754 401.229C535.979 397.281 538.7 396.088 541.623 394.218Z"/><path fill="#24222C" d="M449.191 420.348C448.311 420.578 447.675 420.68 446.781 420.839L446.369 420.364C447.609 417.648 452.911 416.532 455.565 416.21C454.62 418.398 452.744 422.028 450.019 419.54C449.264 420.122 449.488 419.808 449.191 420.348Z"/><path fill="#24222C" d="M370.469 577.133C369.159 575.55 366.878 573.544 367.995 571.551C369.895 571.273 371.044 572.099 372.828 572.941L373.016 575.422C371.13 577.595 372.047 575.233 370.469 577.133Z"/><path fill="#D5E0DF" fill-opacity="0.019607844" d="M442.671 444.012L443.118 444.177L442.951 444.917C441.237 446.535 440.909 446.606 438.729 447.649L437.815 447.294L437.879 446.717C439.618 445.816 440.998 445.032 442.671 444.012Z"/><path fill="#8BB55F" d="M345.692 36.9673C362.252 55.2278 393.467 102.128 401.973 124.756L402.992 126.284C437.977 197.984 449.288 275.088 438.421 354.04C424.784 453.116 374.414 533.739 291.551 589.788C290.407 590.483 288.585 591.3 288.134 592.304C289.792 592.276 289.859 592.237 291.479 591.817C364.144 580.131 430.219 614.695 458.712 684.119C462.718 693.88 465.158 703.749 467.978 713.881L460.667 716.597C456.049 695.92 450.752 679.016 438.8 661.208C396.598 598.334 312.048 574.886 246.956 618.17C249.245 622.856 251.445 626.478 254.129 630.915C260.243 625.171 273.968 618.085 281.818 615.231C312.311 604.146 344.339 607.364 373.521 620.914C404.355 635.231 428.114 660.528 441.081 691.873C445.086 701.555 446.812 711.509 450.384 721.276L442.44 725.529C437.927 702.216 432.604 684.812 417.775 665.535C396.991 638.517 368.556 621.326 334.562 617.206C301.654 613.218 277.858 621.275 252.122 641.389C248.873 637.024 244.622 629.817 241.506 624.99C229.287 635.191 218.883 644.719 210.048 658.215C131.116 778.787 247.072 935.497 386.245 875.527L389.322 881.913C359.673 894.114 331.947 899.218 300.263 893.82C216.489 879.548 164.591 795.179 179.244 713.589C185.617 678.107 208.265 639.789 237.618 618.968C232.769 612.252 223.94 596.229 220.926 588.674C86.1994 605.616 -9.07089 458.365 55.2115 340.982C73.1616 308.204 99.0862 282.431 132.991 266.226C166.909 250.013 209.64 245.083 245.384 257.535L244.49 264.182C219.84 257.884 199.207 255.881 173.744 260.738C84.6772 277.729 27.8548 366.103 45.7386 454.54C60.2638 526.368 123.541 581.794 197.802 582.53C204.44 582.596 209.996 582.952 216.588 581.618C216.94 580.16 217.754 577.174 219.152 576.695C224.545 574.844 229.553 572.781 234.744 570.433C247.185 564.805 258.047 557.469 269.368 550C313.445 520.923 349.522 479.562 373.211 432.44C375.967 426.945 382.68 412.661 383.797 407.146C384.844 396.538 379.267 383.072 376.131 373.028C359.171 318.716 333.289 267.273 302.471 219.561C297.149 211.322 290.083 203.07 284.21 195.109L285.237 193.051C330.25 236.984 375.984 307.694 397.707 366.915C417.246 286.956 414.31 201.471 386.978 123.458C376.32 93.037 360.629 65.3757 345.692 36.9673Z"/><path fill="#8BB55F" d="M247.326 323.711C247.782 323.664 248.238 323.606 248.696 323.588C261.974 323.07 275.954 328.546 285.74 337.405C297.214 347.793 304.058 362.633 304.82 378.064C306.864 419.462 262.172 490.286 238.495 523.015C232.919 530.723 227.374 538.946 220.955 545.977C213.872 543.939 204.029 539.398 197.083 536.289C173.875 525.903 152.309 514.987 131.039 501.113C108.864 486.923 81.6641 467.413 67.8711 445.004C37.4456 395.574 88.4848 339.938 141.218 354.334C158.546 359.065 172.443 367.456 181.635 383.108C189.494 347.873 210.6 326.853 247.326 323.711ZM203.213 488.889C197.731 454.256 209.996 423.403 230.121 395.661C235.448 388.318 240.843 382.518 247.724 376.61L255.028 370.73C249.82 377.452 244.515 382.873 239.429 390.082C216.772 422.195 210.14 448.959 205.641 486.814C214.854 476.376 226.761 467.821 236.424 457.591C259.562 433.095 268.59 401.033 269.046 368.041C269.085 365.207 270.076 349.195 268.467 347.629C259.989 350.189 251.241 354.317 243.474 358.616C194.434 385.753 181.051 438.784 203.213 488.889ZM195.477 478.226C186.247 462.103 174.196 450.883 154.604 450.259C148.492 450.064 136.187 451.229 130.904 454.255L131.506 455.192C138.905 464.127 146.586 471.261 157.366 475.732C169.953 480.951 182.358 479.071 195.477 478.226Z"/><path fill="#5A5E57" fill-opacity="0.94509804" d="M130.904 454.255C148.203 456.384 162.493 459.555 178.278 467.628C181.367 469.208 185.023 470.642 187.274 473.294L186.641 473.649C184.299 472.564 181.87 470.494 179.223 469.209C166.82 463.186 153.682 458.67 140.041 456.478C137.221 456.025 134.238 455.951 131.506 455.192L130.904 454.255Z"/><path fill="#54ABB9" d="M676.386 751.82C673.948 742.782 672.297 732.774 670.81 723.503C665.312 689.224 666.096 654.312 683.859 623.298C706.436 583.88 748.268 560.359 791.124 548.924C842.327 535.263 897.227 536.582 948.309 550.291C961.768 553.904 973.382 558.549 986.383 563.463C977.082 568.666 966.184 574.859 957.725 581.255C934.292 598.971 913.208 621.461 892.101 641.781C848.869 683.402 798.677 711.352 742.433 731.442C730.002 735.883 712.324 742.567 699.437 745.441C713.444 765.102 756.068 783.478 779.277 787.283C886.583 804.874 979.511 701.495 955.611 596.721C957.952 595.878 960.098 595.128 962.488 594.392C969.649 619.394 967.988 650.077 960.902 674.92C945.277 729.702 899.241 775.579 844.61 791.399C805.204 802.811 762.194 795.67 726.792 775.762C716.068 769.758 702.952 760.602 694.784 751.67C690.607 753.025 684.696 755.134 680.553 756.073C688.061 745.377 693.514 733.055 700.478 722.637C712.433 704.75 731.4 667.669 752.641 660.763C769.143 655.398 797.854 645.771 814.774 644.843C815.588 644.911 815.132 644.954 816.111 644.539C813.713 643.577 804.417 643.824 801.806 644.404C783.509 645.736 771.343 648.029 753.459 651.55C764.438 642.777 776.283 629.107 787.862 622.054C797.483 616.194 823.342 616.251 834.864 616.082C837.437 616.4 841.385 616.789 843.888 616.492C842.529 615.663 840.963 615.53 839.367 615.232C825.985 612.931 809.909 610.861 796.615 613.406C817.697 602.958 825.773 590.587 850.964 591.023C858.924 591.161 865.624 590.444 874.209 591.679C866.757 588.828 852.498 587.443 844.238 587.336C856.872 581.622 864.022 577.668 877.62 573.412C884.392 571.292 903.622 566.762 908.541 564.499C882.785 567.656 859.436 573.712 835.176 582.971C832.326 584.058 829.115 585.213 826.219 586.128C831.134 574.396 835.934 566.726 840.707 556.193C832.688 565.767 823.484 579.313 816.822 589.947C804.941 595.947 794.746 599.104 784.408 608.566C788.286 594.99 793.348 575.221 799.05 562.449C795.6 564.102 783.152 592.759 781.079 598.157C779.301 602.789 776.572 610.054 774.22 614.699C767.646 622.622 756.057 628.339 748.733 636.484C751.23 623.696 751.749 610.506 754.293 597.703C755.37 592.285 756.339 586.814 757.379 581.383C749.297 598.439 743.684 626.265 740.857 644.795C729.534 657.057 723.539 664.059 714.358 678.102C714.269 662.497 713.99 638.084 716.361 623.099C712.615 629.753 708.144 657.751 707.807 666.035C707.602 671.09 707.278 683.165 705.919 687.54C703.637 694.887 696.345 704.624 692.847 711.824C686.439 725.015 681.281 738.051 676.386 751.82Z"/><path fill="#54ABB9" d="M401.973 124.756C410.812 123.881 424.433 125.215 433.358 126.397C498.413 135.018 562.144 158.135 616.184 195.62C622.751 200.175 628.75 205.304 635.191 209.89C656.622 185.645 692.095 170.453 723.994 168.484C803.208 163.592 869.6 232.76 872.311 309.752C872.77 322.766 871.831 341.229 868.094 353.743C865.577 353.069 863.493 352.493 860.914 352.03C870.039 310.63 863.794 274.026 841.382 238.11C803.224 176.959 723.733 156.7 662.746 196.491C601.062 236.737 581.991 318.552 623.373 380.231C642.174 408.255 669.722 427.618 702.954 434.83C724.124 439.247 745.658 438.138 766.385 432.186C773.105 430.257 782.512 426.943 789.039 425.68C784.34 413.538 777.827 400.765 771.721 389.229C769.463 384.962 766.282 380.512 763.862 376.31C766.103 375.224 768.332 374.103 770.631 373.148C777.134 381.141 781.478 390.099 786.057 399.296C786.767 400.723 790.705 409.673 792.225 410.309C792.987 410.627 793.624 409.761 795.803 411.026C800.192 418.472 807.814 442.451 809.795 451.057C859.399 454.274 900.064 474.993 933.349 512.043C939.18 518.533 944.399 526.123 948.266 533.955C946.131 534.497 944.518 535.164 942.429 534.667C939.13 531.917 935.382 526.366 932.519 522.872C907.935 492.875 874.021 470.056 835.708 462.275C828.693 460.85 819.332 459.216 812.046 459.536C804.819 464.128 793.879 466.388 785.662 469.596C702.318 502.139 646.515 574.031 620.588 658.358C612.964 646.202 599.856 620.903 594.533 607.784C597.94 595.526 603.502 585.058 609.189 573.904C634.35 524.55 671.311 481.889 717.194 450.766C719.504 449.199 721.976 447.451 724.144 445.665C714.634 444.447 705.803 443.556 696.614 441.178C611.844 419.24 568.882 322.307 609.567 244.922C612.024 240.247 614.521 235.348 617.773 231.192C610.72 224.66 602.465 216.629 595.132 210.608C549.816 173.397 497.631 148.717 440.934 134.204C428.012 130.896 415.741 129.076 402.992 126.284L401.973 124.756Z"/><path fill="#54ABB9" d="M687.402 259.088C694.056 258.5 698.299 258.887 704.577 260.973C693.639 270.222 690.936 276.963 690.169 291.092C699.963 284.625 707.244 279.109 718.167 274.679C726.338 281.237 733.132 298.419 736.469 308.464C737.996 302.15 740.855 295.067 742.416 288.607C743.592 283.741 744.038 279.891 744.613 274.96C761.291 281.54 764.638 284.362 775.156 299.006C772.514 289.202 769.739 279.903 763.442 271.805C776.739 274.097 787.588 277.798 794.513 290.518C799.187 299.104 798.982 307.951 796.212 317.125C788.761 338.186 763.301 359.697 746.363 373.64C731.97 385.489 714.613 397.913 695.539 388.232C693.043 386.965 690.227 384.206 688.534 381.945C675.96 362.104 668.472 337.34 662.162 314.774C655.988 292.694 662.346 264.791 687.402 259.088Z"/><path fill="#D5E0DF" d="M675.789 313.592C682.066 313.27 686.305 314.839 692.635 314.009C694.327 317.254 695.635 333.68 696.132 338.381C700.947 339.576 706.182 340.553 711.111 341.726C711.918 334.953 712.976 327.984 713.922 321.21C710.306 320.241 697.851 317.894 695.586 316.438L696.593 316.317L695.628 316.646C697.934 314.456 710.276 320.003 713.638 319.466C714.066 318.5 714.214 318.088 714.481 317.089L714.721 316.18L715.181 316.614L715.089 319.476C715.795 320.249 743.218 328.732 746.706 329.994C747.21 329.702 749.676 328.373 750.165 328.529C749.73 329.252 749.349 329.902 748.949 330.644C749.925 331.965 751.934 332.329 753.616 332.981C761.149 335.899 768.859 339.575 775.586 344.01C767.573 341.811 758.425 336.624 750.186 333.55L745.149 332.18C739.798 337.763 735.361 343.4 730.493 349.414C734.159 350.652 737.32 352.374 740.597 354.386C739.225 354.51 731.816 351.298 730.197 350.626C727.51 356.087 723.494 362.318 720.234 367.452C722.864 368.848 728.041 371.454 728.337 374.553L727.822 374.898C726.629 370.789 702.476 358.648 698.854 360.048L698.241 361.832C696.276 360.036 695.257 343.539 694.895 339.697C689.833 338.769 682.842 338.584 677.523 338.198L677.482 337.767L676.516 337.98C679.981 337.042 690.6 337.798 694.649 338.07C693.807 330.865 692.82 323.38 692.377 316.167C686.819 315.362 681.318 314.593 675.789 313.592Z"/><path fill="#54ABB9" d="M715.113 321.669L744.182 331.48C740.658 335.228 738.071 337.875 734.873 341.99C733.65 343.417 731.269 346.845 730.065 348.477C724.114 346.004 718.427 343.988 712.322 341.963C713.129 335.266 714.178 328.369 715.113 321.669Z"/><path fill="#54ABB9" d="M711.944 343.179C717.853 345.524 723.804 347.754 729.751 350.003C727.057 354.176 724.796 357.885 722.296 362.172L719.693 367.261C716.23 365.227 711.954 363.386 708.262 361.684C709.804 355.48 710.821 349.467 711.944 343.179Z"/><path fill="#54ABB9" d="M696.253 339.757C701.019 340.761 705.978 342.086 710.721 343.273C709.667 348.159 708.865 352.87 708.026 357.787C707.336 359.627 707.917 358.993 706.472 359.949C703.917 360.152 701.197 358.963 698.672 358.13C697.782 351.889 697.42 346.067 696.253 339.757Z"/><path fill="#54ABB9" d="M566.918 695.913C574.002 702.252 593.891 720.218 599.562 727.194C583.913 812.051 598.367 890.48 632.319 968.778C634.223 973.168 636.018 977.719 637.868 982.143L636.014 982.108L635.366 981.196C625.7 967.382 614.334 947.079 606.914 931.979C569.536 855.92 552.01 779.912 566.918 695.913Z"/><path fill="#54ABB9" d="M726.481 188.694C728.895 188.406 731.972 188.449 734.407 188.511C778.128 189.751 816.336 215.738 836.531 254.073C853.531 286.341 855.029 315.682 847.385 350.642L840.111 348.868C841.903 340.069 843.618 331.515 844.278 322.649C847.622 277.79 825.507 235.823 787.538 212.074C777.155 205.58 765.893 200.118 753.632 198.037C691.592 187.51 635.167 226.755 623.138 288.584C615.702 335.243 633.415 376.468 673.934 402.031C700.3 418.666 726.054 419.632 756.086 415.861L758.296 422.554C723.305 429.457 684.56 422.927 657.364 399.411C574.046 327.364 617.926 198.924 726.481 188.694Z"/><path fill="#8BB55F" d="M588.843 59.133C591.103 58.8572 590.214 58.55 591.775 59.5004C593.325 63.7261 591.765 69.9819 591.117 74.4102C587.573 98.6322 573.714 120.637 551.195 131.245C543.339 134.946 537.196 136.483 528.676 138.064C527.381 138.256 526.219 138.305 524.919 138.379C524.2 137.778 524.169 137.967 524.088 136.919C521.658 105.343 540.437 74.3303 570.657 63.7464C576.838 61.5814 582.486 60.3439 588.843 59.133Z"/><path fill="#54ABB9" d="M943.42 610.105C944.882 610.033 944.261 609.816 945.355 610.741C949.647 650.678 943.837 679.662 921.008 713.504C900.719 743.581 863.895 769.339 827.881 774.949C788.172 781.133 756.353 771.975 723.81 749.018L720.058 745.942C722.178 744.443 723.603 743.781 725.894 742.65C733.591 747.317 740.241 751.664 748.287 755.841C838.063 802.453 943.636 724.165 939.067 626.991C938.851 622.406 936.003 615.832 938.652 611.812C940.282 610.54 941.319 610.536 943.42 610.105Z"/><path fill="#343548" d="M351.073 785.559C357.199 785.248 363.178 785.564 369.269 786.179C363.776 795.471 361.707 808.25 373.642 813.981C375.786 815.01 379.024 815.384 381.425 815.771C379.721 819.289 376.373 823.866 374.371 827.629C370.136 835.591 367.064 844.415 369.622 853.494C370.574 857.068 372.583 860.65 373.438 864.218C376.878 878.575 363.931 875.073 356.674 869.549C345.84 861.304 344.739 848.491 343.274 835.999C342.486 829.284 341.714 822.488 340.708 815.881C339.672 808.776 337.19 798.884 338.828 791.888C339.166 790.444 342.828 785.838 345.18 787.349C346.456 791.001 345.793 798.562 346.545 802.792C350.346 824.195 345.794 856.381 364.602 871.253C362.637 868.64 360.615 865.827 358.968 863.086C357.169 860.093 354.688 853.696 354.24 850.505C352.701 839.544 348.658 794.59 351.073 785.559Z"/><path fill="#8BB55F" d="M466.887 767.932L467.982 768.493C470.28 772.713 464.633 790.744 463.021 795.492C454.855 819.536 441.266 841.845 423.089 859.63C416.23 866.342 408.531 871.75 400.639 877.129C395.574 870.704 377.909 850.058 377.796 842.586C378.579 840.94 377.981 841.411 379.395 840.842C382.686 841.799 387.761 849.16 390.533 852.359C406.432 839.474 423.565 820.67 432.341 802.141C435.43 795.766 437.077 789.907 439.898 783.641C441.934 779.118 444.878 778.436 449.097 777.191C437.433 814.945 425.626 832.741 394.722 857.251C397.43 860.69 400.057 864.074 402.681 867.577C437.765 839.785 451.979 813.436 461.937 771.465C462.45 769.303 464.963 768.613 466.887 767.932Z"/><path fill="#8BB55F" d="M192.263 271.19C208.451 270.215 233.689 273.78 248.877 280.074L246.023 286.567C188.82 267.299 138.91 283.192 98.6081 326.364C86.2446 340.36 83.0462 347.128 74.8417 363.123L68.9198 358.96C71.5143 350.289 85.0111 330.927 90.878 324.211C117.91 293.267 150.756 274.088 192.263 271.19Z"/><path fill="#8BB55F" d="M290.599 289.732C311.907 288.95 326.173 303.759 337.315 319.746C331.272 322.631 325.774 323.598 319.211 324.336C296.728 324.983 280.729 313.377 271.712 293.179C278.613 291.138 283.495 290.279 290.599 289.732Z"/><path fill="#8BB55F" d="M210.646 151.67C227.623 149.382 245.271 156.96 253.718 172.17C248.186 175.623 242.728 177.296 236.425 178.602C214.564 180.727 205.553 173.555 191.948 158.119C198.708 154.543 203.167 152.904 210.646 151.67Z"/><path fill="#8BB55F" d="M261.358 737.685C266.402 736.963 273.02 738.289 277.973 739.294C266.528 758.123 255.147 767.614 233.605 773.093C228.192 774.296 223.387 774.435 217.903 774.679C226.862 753.857 238.233 740.774 261.358 737.685Z"/><path fill="#BDDC8D" d="M262.997 742.166L263.679 742.185L263.795 742.614C261.022 744.112 257.31 744.625 254.215 745.661C242.855 749.466 238.462 753.189 230.962 761.986L230.448 761.621L230.372 760.754C238.638 749.628 249.539 744.317 262.997 742.166Z"/><path fill="#8BB55F" d="M262.453 116.73C275.264 122.58 284.511 136.982 285.793 150.837C286.668 160.298 284.122 168.17 280.849 176.864C274.533 177.92 261.518 158.424 259.873 152.205C256.676 140.118 256.78 127.975 262.453 116.73Z"/><path fill="#54ABB9" d="M742.047 224.839C746.767 226.758 752.026 229.221 756.733 231.311C742.718 238.413 737.8 250.294 738.677 265.488C739.014 271.326 741.294 276.432 740.987 282.629C740.691 288.604 739.263 292.733 737.581 298.378C732.248 287.637 729.996 277.532 718.688 272.52C708.441 271.71 700.604 279.608 692.477 285.78L692.814 284.821C698.505 269.073 709.424 255.113 727.888 262.745C730.023 246.433 734.105 238.876 742.047 224.839Z"/><path fill="#8BB55F" d="M268.853 656.769C298.176 657.457 311.258 673.103 316.351 701.266C310.25 701.876 299.479 696.893 294.33 693.588C279.322 683.954 272.744 673.955 268.853 656.769Z"/><path fill="#BDDC8D" d="M296.273 671.825C300.65 673.931 310.316 690.327 311.983 695.139C310.997 694.605 297.685 674.35 296.273 671.825Z"/><path fill="#8BB55F" d="M258.905 219.703C275.797 217.297 290.491 226.779 299.374 240.518C292.114 243.549 287.534 244.7 279.795 245.535C261.891 245.761 248.234 240.292 237.857 225.164C245.606 221.777 250.546 220.736 258.905 219.703Z"/><path fill="#8BB55F" d="M373.745 213.314C378.968 216.726 380.889 234.42 380.43 240.575C379.238 256.56 372.34 263.777 360.748 273.641C357.08 269.147 354.424 257.016 354.103 251.11C353.235 235.141 363.744 224.418 373.745 213.314Z"/><path fill="#8BB55F" d="M282.597 256.705C296.822 254.677 312.268 264.361 319.926 275.873C313.64 278.876 305.169 282.047 298.125 282.08C279.271 282.21 271.815 276.118 258.467 264.319C266.295 259.584 273.592 257.634 282.597 256.705Z"/><path fill="#8BB55F" d="M313.145 151.794C327.463 166.641 326.515 193.239 315.868 209.322C315 210.633 314.781 210.973 313.343 211.289L311.977 210.324C295.201 190.426 293.853 170.684 313.145 151.794Z"/><path fill="#8BB55F" d="M398.936 244.858C399.593 245.308 399.935 245.582 400.262 246.348C408.859 266.525 403.588 292.102 382.665 302.143C378.418 299.865 376.794 284.64 377.225 279.865C378.67 263.868 387.138 254.755 398.936 244.858Z"/><path fill="#8BB55F" d="M344.389 181.357C350.016 185.68 354.322 200.049 354.76 207.13C355.672 221.874 350.16 230.504 340.774 241.166C340.008 241.461 339.536 241.417 339.061 240.783C325.281 222.44 329.032 197.184 344.389 181.357Z"/><path fill="#8BB55F" d="M237.302 186.645C252.843 185.129 265.681 192.849 273.682 205.939C267.957 209.956 263.681 211.103 256.967 212.471C240.03 213.128 228.989 208.05 218.589 194.329C224.702 189.538 229.829 187.904 237.302 186.645Z"/><path fill="#54ABB9" d="M760.468 246.668C773.428 245.447 783.936 248.44 795.949 252.459C782.98 258.934 773.312 267.313 758.987 270.15C757.266 270.404 757.097 270.199 755.811 271.155C756.516 272.811 759.915 275.016 761.204 276.572C762.323 277.922 763.09 279.221 764.001 280.705C756.113 273.835 750.852 272.256 740.536 271.207C740.379 265.717 740.033 262.025 740.894 256.558C746.227 249.417 752.236 248.001 760.468 246.668Z"/><path fill="#8BB55F" d="M252.849 673.619C258.904 677.627 264.884 685.157 267.955 691.678C274.455 705.483 273.118 716.578 268.398 730.396C263.169 727.966 257.108 722.632 253.921 717.746C245.371 704.64 249.827 687.826 252.849 673.619Z"/><path fill="#BDDC8D" d="M260.889 690.381C265.93 693.812 267.514 719.99 269.348 727.287C264.581 724.428 265.434 706.858 264.412 701.995C263.73 698.756 261.908 693.753 260.889 690.381Z"/><path fill="#8BB55F" d="M279.836 696.953C285.09 699.207 292.859 704.502 297.153 708.342C310.82 720.563 311.4 731.596 312.309 748.473C306.399 746.867 298.307 742.241 293.737 738.155C282.253 727.887 280.527 711.417 279.836 696.953Z"/><path fill="#BDDC8D" d="M303.286 733.27C306.373 735.143 309.375 741.013 309.985 744.533C307.913 742.977 304.627 735.948 303.286 733.27Z"/><path fill="#8BB55F" d="M272.27 787.252L280.32 787.822C276.382 794.666 273.527 802.409 267.958 808.273C260.669 815.947 249.738 818.373 239.52 818.559L231.732 818.523C239.42 798.402 250.59 787.786 272.27 787.252Z"/><path fill="#BDDC8D" d="M274.408 790.902C274.492 793.602 269.672 800.286 267.831 802.459C261.64 809.768 253.008 813.433 243.487 814.005C244.098 812.688 256.848 809.807 259.294 808.456C266.894 804.257 268.976 797.024 274.408 790.902Z"/><path fill="#54ABB9" d="M687.774 232.67C695.139 231.305 707.743 233.013 714.047 237.242C719.387 240.824 729.867 248.301 725.06 255.468C723.541 256.405 717.359 256.196 715.166 256.224C695.488 257.365 686.82 253.648 675.892 236.488L676.074 235.671C678.824 233.912 684.467 233.185 687.774 232.67Z"/><path fill="#8BB55F" d="M321.038 766.694C325.122 769.933 331.089 780.97 332.55 786.16C336.897 801.599 334.148 815.632 326.989 829.483L326.208 830.438L325.322 830.444C320.894 826.421 316.948 814.724 315.955 808.947C313.656 795.576 316.684 779.37 321.038 766.694Z"/><path fill="#BDDC8D" d="M323.438 778.812C328.439 786.352 329.405 804.657 328.916 813.77L328.597 813.868L328.098 813.556C327.298 802.62 324.929 789.897 323.438 778.812Z"/><path fill="#8BB55F" d="M309.347 769.933C312.544 773.079 308.025 792.246 306.466 796.716C302.361 808.485 294.977 816.954 283.786 822.371L283.36 822.239C282.295 817.871 283.786 803.738 284.686 799.12C287.459 784.891 297.575 777.399 309.347 769.933Z"/><path fill="#BDDC8D" d="M306.308 775.403L306.767 775.92C306.529 782.963 297.853 805.427 294.107 811.622C292.859 810.403 295.792 806.543 296.484 804.947C300.592 795.47 303.107 785.249 306.308 775.403Z"/><path fill="#8BB55F" d="M344.477 753.234C361.749 752.041 372.799 760.967 382.003 774.368C375.008 776.646 373.714 776.555 366.171 776.562C349.861 775.983 338.219 767.238 328.414 754.838C334.543 753.886 338.252 753.406 344.477 753.234Z"/><path fill="#8BB55F" d="M339.675 688.896L340.382 689.568C347.132 707.184 336.651 733.307 321.263 742.958L320.247 742.758C319.192 740.376 319.336 734.222 319.13 731.409C317.927 714.956 325.673 698.109 339.675 688.896Z"/><path fill="#BDDC8D" d="M335.357 697.892C336.365 699.663 334.051 703.413 333.028 705.533C327.657 716.663 326.81 727.899 324.269 739.646L323.663 738.948C322.995 728.231 331.172 707.558 335.357 697.892Z"/><path fill="#8BB55F" d="M333.051 638.452C335.211 640.434 336.756 652.758 337.302 655.903C339.242 667.061 330.83 682.856 323.701 691.275L322.659 690.81C311.707 671.502 313.965 651.529 333.051 638.452Z"/><path fill="#BDDC8D" d="M330.774 653.004C330.629 657.259 326.348 666.096 325.676 670.781C324.608 678.24 326.931 680.819 324.6 688.417C321.773 679.542 326.431 660.882 330.774 653.004Z"/><path fill="#8BB55F" d="M306.901 815.746C312.015 818.482 317.564 831.959 317.975 837.814C318.725 848.484 313.551 856.864 307.153 864.76C306.961 864.871 306.026 865.196 305.781 865.286C302.084 863.555 298.988 852.825 298.083 848.952C295.135 836.337 299.984 826.128 306.901 815.746Z"/><path fill="#BDDC8D" d="M312.296 835.72C314.838 839.58 309.93 851.468 307.813 855.086L307.673 855.048C307.705 853.074 309.889 848.353 310.496 845.792C311.343 842.223 311.77 839.372 312.296 835.72Z"/><path fill="#8BB55F" d="M360.98 726.206C369.307 725.758 376.819 727.944 384.756 730.063C374.169 739.511 366.667 743.8 352.607 746.632C345.291 748.179 338.133 748.084 330.72 747.802C335.609 735.204 348.007 727.729 360.98 726.206Z"/><path fill="#BDDC8D" d="M362.61 732.689C365.328 732.233 370.74 732.489 373.442 733.105C371.674 733.527 367.341 733.74 365.413 733.824C355.85 734.244 351.908 735.13 343.648 739.617C341.237 741.456 339.433 743.047 336.64 744.239C336.74 744.026 336.839 743.813 336.939 743.601C344.415 735.834 352.888 733.744 362.61 732.689Z"/><path fill="#8BB55F" d="M294.684 756.681C300.277 756.319 304.416 756.425 309.961 757.104C298.595 769.892 294.18 775.721 276.524 779.026C270.613 779.16 265.284 777.983 259.375 777.346C271.081 763.351 276.354 758.914 294.684 756.681Z"/><path fill="#BDDC8D" d="M296.395 764.133L296.256 764.759C292.159 767.961 283.108 770.27 278.025 771.387L278.087 770.88L296.395 764.133Z"/><path fill="#8BB55F" d="M395.879 694.097C400.98 693.535 406.985 694.156 412.167 694.539C407.37 707.738 404.417 712.632 390.4 717.394C386.646 718.331 380.902 720.002 377.118 719.651C372.585 716.819 377.877 709.237 379.877 705.68C383.136 699.882 389.362 695.608 395.879 694.097Z"/><path fill="#BDDC8D" d="M391.984 709.045L391.911 709.728C391.042 710.717 379.857 717.001 377.774 718.365C377.636 717.451 377.642 717.977 377.92 716.794C382.015 713.522 387.224 711.275 391.984 709.045Z"/><path fill="#8BB55F" d="M377.083 687.575C374.684 697.921 373.197 708.047 363.28 714.11C359.187 716.613 354.686 717.155 350.118 715.847L348.433 713.693C346.865 706.793 351.867 699.837 356.667 695.322C362.586 689.754 369.393 688.561 377.083 687.575Z"/><path fill="#BDDC8D" d="M348.433 713.693C352.625 711.145 354.903 706.205 358.692 702.8C358.127 705.377 351.66 712.564 350.118 715.847L348.433 713.693Z"/><path fill="#8BB55F" d="M226.34 714.61C237.424 713.73 242.013 720.429 248.927 727.996C244.839 729.845 242.615 730.405 238.25 731.554C225.538 732.362 221.736 727.833 214.223 718.524C218.765 716.621 221.582 715.709 226.34 714.61Z"/><path fill="#8BB55F" d="M386.872 742.663C397.823 733.111 405.554 733.345 417.959 740.446C412.229 744.404 403.607 751.606 397.026 751.545C391.878 752.2 385.123 750.221 380.198 748.88C382.21 746.599 384.574 744.663 386.872 742.663Z"/><path fill="#BDDC8D" d="M384.629 747.657C389.996 741.305 401.713 741.882 409.14 742.984C400.391 743.934 397.823 743.866 388.647 746.059C391.832 748.118 394.09 748.509 397.587 749.753L397.512 750.067C396.287 750.12 395.194 750.171 393.962 750.166C391.205 749.648 387.008 748.996 384.629 747.657Z"/><path fill="#8BB55F" d="M386.872 742.663C385.993 746.77 384.035 744.385 384.629 747.657C387.008 748.996 391.205 749.648 393.962 750.166L396.647 750.784L397.026 751.545C391.878 752.2 385.123 750.221 380.198 748.88C382.21 746.599 384.574 744.663 386.872 742.663Z"/><path fill="#8BB55F" d="M374.131 653.884C375.526 653.879 374.965 653.616 375.942 654.443C377.013 670.297 368.416 676.198 356.22 683.665C347.624 669.655 362.617 658.519 374.131 653.884Z"/><path fill="#54ABB9" d="M754.43 385.891C755.265 385.866 755.115 385.942 755.971 386.282C760.816 391.255 774.768 419.361 775.228 425.829C774.08 426.886 772.294 427.031 770.679 427.38L769.559 427.348C768.282 426.145 764.734 416.75 763.688 414.383C759.516 404.95 755.41 397.351 749.323 388.952C750.944 387.904 752.758 386.88 754.43 385.891Z"/><path fill="#54ABB9" d="M652.483 240.264C655.966 241.839 669.659 259.022 672.117 262.639C669.713 264.925 668.79 266.103 666.76 268.696L666.194 268.749C662.73 265.899 652.232 251.431 647.265 246.252C648.672 244.199 650.763 242.115 652.483 240.264Z"/><path fill="#8BB55F" d="M263.793 820.927C267.501 820.926 269.504 824.066 269.634 827.449C269.932 835.221 266.527 840.416 260.458 844.581L259.34 845.137C256.179 842.498 255.723 833.498 256.876 829.711C258.26 825.168 259.775 823.234 263.793 820.927Z"/><path fill="#8BB55F" d="M397.506 807.824C401.343 809.255 403.158 822.238 403.95 826.143C400.108 826.446 398.619 826.583 394.812 826.208C381.264 820.945 390.603 813.767 397.506 807.824Z"/><path fill="#8BB55F" d="M231.332 776.972C237.694 775.161 245.388 773.819 250.378 779.585C250.746 781.454 250.851 780.557 249.889 782.347L247.681 783.774C243.953 785.408 240.636 786.776 237.426 783.457C234.751 781.471 233.22 779.737 231.332 776.972Z"/><path fill="#BDDC8D" d="M237.426 783.457L238.076 782.702L236.958 782.119L237.071 781.575C239.541 780.562 245.772 781.648 247.681 783.774C243.953 785.408 240.636 786.776 237.426 783.457Z"/><path fill="#858672" fill-opacity="0.96078432" d="M284.21 195.109C282.051 192.32 280.13 189.894 278.236 186.911C280.571 189.009 282.833 191.028 285.237 193.051L284.21 195.109Z"/><path fill="#5C8279" fill-opacity="0.98039216" d="M637.868 982.143L642.538 990.449C640.74 988.454 637.208 984.505 636.014 982.108L637.868 982.143Z"/><path fill="#A4CFD0" fill-opacity="0.58039218" d="M801.806 644.404C804.417 643.824 813.713 643.577 816.111 644.539C815.132 644.954 815.588 644.911 814.774 644.843C811.882 644.209 804.991 644.406 801.806 644.404Z"/><path fill="#D5E0DF" fill-opacity="0.011764706" d="M839.367 615.232C840.963 615.53 842.529 615.663 843.888 616.492C841.385 616.789 837.437 616.4 834.864 616.082C836.857 615.908 837.545 615.953 839.367 615.232Z"/><path fill="#D5E0DF" fill-opacity="0.039215688" d="M291.551 589.788L291.479 591.817C289.859 592.237 289.792 592.276 288.134 592.304C288.585 591.3 290.407 590.483 291.551 589.788Z"/><path fill="#010001" fill-opacity="0.011764706" d="M323.139 197.205L323.814 197.225L323.654 199.032L322.82 197.919L323.139 197.205Z"/></svg>