<?xml version="1.0" encoding="utf-8" ?><svg xmlns="http://www.w3.org/2000/svg" xmlns:xlink="http://www.w3.org/1999/xlink" width="1024" height="1024" viewBox="0 0 1024 1024"><path fill="#173944" d="M867.346 122.957C868.546 123.109 869.624 123.305 870.644 123.985C879.706 130.026 891.797 172.587 894.409 185.001C903.195 226.767 899.905 270.769 875.979 307.238C857.854 334.862 831.242 350.614 799.245 357.327C789.479 399.366 787.612 467.581 794.133 510.167L801.045 512.082C806.491 500.941 811.659 490.482 820.073 481.14C816.366 469.886 817.587 454.296 820.649 443.028C827.115 419.23 844.663 395.233 866.287 383.015C889.662 369.808 920.322 365.671 946.415 371.571C948.011 371.939 950.988 373.488 951.498 375.246C952.921 380.556 951.757 387.16 950.891 392.569C944.622 431.679 923.695 470.288 884.764 484.517C863.741 492.201 845.658 494.841 825.148 485.75C818.898 494.165 812.511 505.692 808.44 515.215C833.323 527.028 861.259 535.458 887.254 546.119C891.675 547.933 931.614 617.637 938.679 627.281C942.704 632.777 937.628 636.48 932.619 638.721C920.209 644.275 907.085 648.809 894.656 654.397C894.266 662.138 892.852 672.944 892.062 680.843L885.735 740.626L876.378 826.741C875.154 838.453 874.357 850.518 873.01 862.111C871.067 864.377 868.862 866.247 866.138 867.482C850.854 874.412 835.348 881.274 820.064 888.167L740.56 924.465L678.297 952.842C668.54 957.295 660.088 961.798 650.024 965.721C641.873 963.398 620.77 953.264 611.867 949.213L535.372 914.061C506.019 900.529 476.806 886.739 447.211 873.74C440.6 870.837 433.633 867.964 427.352 864.446C426.331 859.04 426.107 850.396 425.815 844.56L424.307 807.767C423.344 782.599 421.423 757.663 420.854 732.467C398.526 737.073 371.757 736.211 349.141 733.165C285.399 724.581 233.428 689.613 194.975 638.772C156.132 587.415 141.363 524.061 150.653 460.368C157.285 421.724 171.585 388.421 194.091 356.208C189.287 353.023 184.508 350.127 179.588 347.134C177.257 351.463 176.068 353.439 172.456 356.735C165.075 353.651 141.225 338.435 137.628 331.659C137.476 326.149 166.304 286.863 171.427 286.453C177.649 287.873 194.781 301.517 201.127 305.71C202.022 306.301 203.911 308.876 204.607 309.85L204.454 310.291C202.624 315.692 199.53 318.963 196.035 323.38C202.098 326.716 207.339 330.131 213.012 334.036C232.139 313.652 258.18 296.184 283.704 284.927C281.182 276.298 278.81 266.572 276.41 257.765C273.562 258.738 260.113 263.83 258.743 261.548C254.527 254.529 250.921 237.902 248.448 229.799C245.742 220.937 247.251 219.986 254.74 218.82C255.171 215.464 255.622 212.692 256.444 209.399C264.532 177.001 302.142 160.302 331.616 176.041C339.077 180.025 343.273 184.714 348.581 191.285C351.423 190.738 355.849 189.154 357.319 192.554C360.288 199.425 369.231 226.288 367.587 232.304C364.708 235.075 356.102 236.744 351.928 237.883C354.315 245.701 356.555 256.217 358.473 264.351C382.743 260.631 412.408 263.334 436.052 270.179C437.937 263.452 440.845 255.446 443.11 248.753C428.968 244.905 428.025 246.692 432.14 230.749C434.79 220.482 437.215 210.166 441.202 200.274C448.924 202.102 492.11 213.046 495.739 217.124C496.438 217.91 496.268 220.26 496.164 221.266C495.574 226.995 488.49 253.784 484.603 256.93C480.865 258.002 475.757 256.265 471.841 255.302L464.193 278.972C475.898 283.052 495.237 293.697 505.673 300.362C565.588 338.628 601.673 396.242 617.326 464.576C627.387 461.447 640.39 455.223 651.356 451.423C663.117 454.961 675.087 460.714 686.471 465.262C704.764 472.572 722.994 480.757 741.209 488.117C738.33 481.463 731.885 470.269 727.924 464.4C701.164 455.954 676.619 436.229 665.744 410.012C651.126 374.771 658.881 335.962 674.791 302.643C676.575 298.907 679.666 291.885 683.604 290.247C690.294 290.046 699.88 298.636 705.107 302.761C752.668 340.294 779.122 409.217 735.77 461.137C742.832 472.264 746.573 481.701 752.757 492.503C761.474 497.425 775.325 502.467 784.932 506.267C779.325 454.058 781.66 407.792 790.82 356.113C782.467 349.686 771.262 331.181 766.874 321.355C752.823 289.891 751.537 254.735 763.382 222.486C781.607 172.867 821.048 144.268 867.346 122.957ZM417.197 668.625C416.997 663.96 416.817 659.411 416.423 654.752C409.536 651.59 377.654 638.842 375.249 634.825C374.167 628.691 387.821 608.718 391.508 602.275L407.401 574.663C411.217 567.951 419.917 550.815 426.082 547.497C438.106 541.025 452.172 535.109 464.819 529.681L540.149 497.985C548.963 494.194 560.505 489.561 568.956 485.433C566.256 471.685 563.857 460.175 559.586 446.798C545.936 404.044 518.825 369.334 481.736 344.312C452.139 324.343 408.745 309.721 372.866 312.78C204.288 322.032 137.253 526.88 260.267 638.071C296.879 671.164 346.979 688.794 396.166 685.782C403.329 685.304 410.884 684.413 418.07 683.62C417.342 678.85 417.337 673.49 417.197 668.625ZM439.529 857.098C488.408 878.812 537.077 901.914 585.885 923.983L620.048 939.828C627.416 943.225 638.287 948.236 645.975 950.574L646.067 885.25C646.136 814.461 646.908 741.183 645.376 670.523C631.815 691.289 620.194 713.659 605.503 733.73C603.164 736.926 599.503 737.201 596.07 735.633C540.845 710.399 485.865 685.065 430.015 661.234L436.407 797.61C437.327 816.755 439.068 838.36 439.529 857.098ZM199.034 562.87C181.453 514.903 185.012 459.309 206.633 413.285C250.837 319.191 366.081 276.049 460.492 321.279C528.66 353.936 564.042 409.316 579.238 481.553C588.232 477.82 596.012 473.862 605.277 470.562C603.175 460.191 601.236 450.932 598.106 440.781C568.782 345.698 479.694 276.291 379.612 275.17C377.62 275.148 375.059 275.058 373.109 275.221C251.681 280.521 155.129 384.062 160.219 505.819C164.233 601.813 230.364 687.308 322.697 714.215C357.235 724.313 384.128 724.644 419.556 720.769C419.167 711.26 418.715 701.69 418.469 692.181C326.121 709.691 228.205 652.272 199.034 562.87ZM656.195 651.388C667.639 671.676 680.367 691.36 692.432 711.286C694.56 714.8 696.627 718.668 699.024 721.956C700.051 722.216 699.633 722.309 700.309 721.993C714.065 715.054 728.665 709.015 742.915 703.111C795.069 681.501 846.843 659.013 899.421 638.435C907.906 635.114 916.219 631.634 924.79 628.505C922.013 623.527 918.851 618.787 915.815 613.965C904.903 596.638 895.213 578.57 884.11 561.359C882.795 559.32 881.499 557.317 879.844 555.533C836.651 572.97 792.437 592.44 749.527 610.821L693.332 634.97C681.45 640.09 667.814 645.792 656.195 651.388ZM652.826 673.592L652.99 888.964L653.452 950.187L660.65 947.14C663.78 939.315 667.776 933.146 671.763 925.781C722.258 832.517 785.241 745.509 861.257 671.359C862.595 670.054 869.946 663.954 869.993 663.101L869.565 662.982C829.272 679.311 788.077 697.601 747.916 714.698L715.396 728.535C710.012 730.842 704.672 733.593 699.124 735.474C697.41 736.055 695.389 736.683 693.654 735.81C689.52 733.731 658.12 681.678 652.826 673.592ZM390.298 629.62L515.918 685.396C543.38 697.69 571.398 711.312 598.969 722.631C601.932 715.613 613.072 697.856 617.537 690.497C624.909 678.349 633.251 662.992 641.224 651.685C625.454 643.51 610.86 637.061 594.717 629.718L525.217 598.543L477.025 577.035C463.222 570.895 446.704 563.512 432.436 558.903C417.228 583.165 404.805 605.034 390.298 629.62ZM532.999 593.683C542.892 587.631 556.216 582.343 566.978 577.795C594.152 566.313 621.052 552.705 648.451 541.895C648.474 534.197 649.148 467.512 647.613 465.959L532.747 514.815L475.646 539.3C465.349 543.823 452.586 549.237 442.663 554.37C453.467 557.687 463.301 563.27 473.305 566.966L510.388 583.222C516.21 585.769 527.774 590.671 532.999 593.683ZM655.01 538.674C670.9 531.682 686.766 524.762 702.451 517.319C702.475 513.495 701.848 510.109 704.253 507.478L705.385 507.149C709.612 510.417 707.86 524.711 708.11 530.015C729.295 539.347 749.514 547.595 770.974 556.144C781.509 560.341 804.194 569.332 813.389 574.654C817.533 572.874 822.708 570.825 826.696 568.913C839.283 563.714 853.924 558.062 866.219 552.496C857.169 548.029 846.484 544.488 837.103 540.478C809.992 528.889 782.418 518.727 754.97 508.043C721.665 495.079 688.112 478.315 654.773 465.672C655.028 490.003 654.531 514.38 655.01 538.674ZM654.889 614.47C654.83 623.926 654.891 633.687 654.575 643.115L680.626 631.783L737.416 607.132C745.186 603.78 754.723 600.071 762.153 596.564C753.313 593.639 743.831 589.064 735.021 585.822C732.818 585.011 726.727 582.407 724.639 581.934C701.775 593.952 678.341 603.691 654.889 614.47ZM291.379 208.353C306.021 204.051 322.382 199.583 336.763 194.809C328.17 187.49 319.553 182.433 307.813 182.701C286.45 185.019 273.045 193.769 267.572 215.433L291.379 208.353ZM709.282 574.421C709.2 576.673 709.103 578.691 709.198 580.953L715.367 578.892L715.829 578.299C714.548 576.761 711.237 575.441 709.282 574.421ZM702.018 560.474L672.962 573.398C667.601 575.82 660.387 579.348 654.987 581.346C654.964 584.776 654.506 603.729 655.495 605.452L655.966 605.549C670.816 598.596 687.816 590.234 703.005 584.261C702.997 580.527 703.336 562.237 702.018 560.474ZM442.765 238.6C446.533 239.794 473.63 248.741 475.504 248.28L476.052 247.349C478.803 239.129 481.421 231.083 483.974 222.8C476.238 220.142 468.824 218.241 460.962 216.057C457.984 215.23 451.739 213.604 449.168 212.44C446.905 221.107 445.109 230.016 442.765 238.6ZM150.357 327.982C153.052 329.982 168.886 342.039 170.939 342.2C177.456 332.811 184.645 323.208 191.748 314.234C188.819 311.906 173.791 300.943 170.881 299.82C164.14 308.625 156.661 318.868 150.357 327.982ZM618.453 631.685C622.438 633.659 626.324 635.494 630.365 637.35L648.237 645.605C648.03 636.484 648.365 627.418 648.126 618.273L647.447 617.961C640.23 621.435 625.57 628.934 618.453 631.685ZM346.261 200.521C320.451 207.445 294.689 215.405 269.096 223.115C266.082 224.022 263.004 225.105 260.104 226.321C261.292 231.854 265.211 245.984 267.194 251.139C268.153 251.68 267.672 251.621 268.61 251.462C278.186 248.606 288.034 245.81 297.696 243.27C316.465 238.336 335.434 231.634 354.324 227.308C353.434 223.261 349.234 202.863 346.988 200.485L346.261 200.521ZM466.132 252.275C461.518 250.849 454.077 249.187 450.159 247.828C448.29 255.576 445.962 263.886 443.671 271.56C446.067 272.477 456.028 276.724 457.842 276.123L458.069 275.334C460.67 267.45 463.253 260.061 466.132 252.275ZM793.897 583.52C796.395 582.472 801.391 580.223 803.778 579.522C796.137 575.665 787.167 572.003 779.295 568.507C755.934 558.132 732.192 549.036 708.796 538.699L708.963 566.936C725.248 573.765 741.49 580.447 758.058 586.57C762.538 588.226 767.854 590.272 772.017 592.523C774.424 591.466 791.934 584.001 793.897 583.52ZM192.353 329.35C189.641 332.931 186.942 336.573 184.079 340.031C186.868 341.61 197.631 348.23 199.825 348.651C202.37 345.669 205.179 342.211 207.81 339.363C203.349 336.806 195.965 332.713 192.353 329.35ZM647.011 584.974C625.11 595.227 602.747 604.375 580.656 614.722C584.318 616.378 587.896 617.95 591.6 619.51C597.592 622.334 603.765 624.97 609.84 627.631C622.644 621.32 635.069 615.19 647.989 609.101C648.003 605.718 648.427 586.628 647.509 585L647.011 584.974ZM295.829 284.057C305.974 281.234 316.004 277.749 326.051 274.558C333.011 272.349 340.415 270.549 347.167 267.976C346.123 263.575 341.21 241.628 339.513 239.087C322.032 244.009 305.614 248.275 288.068 253.579C290.171 263.698 294.002 274.808 295.829 284.057ZM656.179 572.628C669.984 566.552 689.405 556.525 702.56 551.609C702.747 548.426 703.239 528.007 701.895 526.562C686.66 532.751 669.783 539.977 654.979 547.02C654.948 551.244 654.544 569.625 655.492 572.389L656.179 572.628ZM647.758 550.538L581.189 579.833C568.387 585.47 554.504 591.199 542.011 597.238L553.381 602.243C559.751 605.087 566.166 608.004 572.571 610.751C586.369 603.441 599.636 597.751 613.933 591.445C625.535 586.327 636.76 581.063 648.536 576.247C648.526 572.994 648.764 551.585 647.758 550.538Z"/><path fill="#173944" d="M353.91 404.18C358.997 405.826 364.717 418.424 367.343 423.349L383.273 453.767C386.492 459.924 390.375 467.774 394.204 473.404C423.093 483.949 422.203 517.814 398.256 533.856C375.002 547.459 346.595 530.074 347.376 503.598C347.721 491.898 351.074 486.965 358.923 479.049C358.34 475.475 357.952 471.571 357.657 467.944C356.028 447.906 353.567 427.855 352.712 407.774C352.654 406.417 353.222 405.305 353.91 404.18Z"/><path fill="#FBD75D" d="M361.542 431.352C366.29 434.794 380.514 467.532 385.01 473.947C390.425 481.454 399.681 483.17 404.988 490.968C410.422 498.953 409.708 508.291 405.223 516.487C402.514 521.434 398.753 524.548 394.106 527.589C375.261 535.612 356.454 524.149 356.503 503.259C356.525 494.098 361.808 488.496 367.926 482.495C365.009 465.858 363.374 448.193 361.542 431.352Z"/><path fill="#173944" d="M552.791 476.224C554.399 475.983 554.292 476.032 555.807 476.679C563.832 486.214 548.539 488.621 542.148 490.124C535.947 491.583 529.738 492.747 523.398 493.389C520.68 492.745 517.527 491.441 517.094 488.423C516.516 484.387 524.554 481.946 527.399 481.189C535.526 479.028 544.486 477.106 552.791 476.224Z"/><path fill="#173944" d="M270.401 577.642C290.844 581.768 253.096 603.89 246.696 605.486C243.85 605.261 242.698 605.403 241.269 602.839C240.818 594.742 263.399 581.326 270.401 577.642Z"/><path fill="#173944" d="M513.224 386.878C521.178 386.644 521.38 395.053 515.05 399.992C507.768 405.673 501.134 412.207 493.413 417.509C491.05 417.726 489.667 417.168 487.685 415.984C484.917 411.488 489.814 406.596 493.14 403.808C499.552 398.434 506.136 391.153 513.224 386.878Z"/><path fill="#173944" d="M240.076 391.899C247.132 392.16 262.592 402.962 268.895 407.182C274.082 410.655 275.664 413.508 271.364 418.519C267.252 418.84 264.506 417.141 260.973 415.171C255.169 411.772 249.182 408.491 243.629 404.688C237.577 400.544 235.217 398.218 240.076 391.899Z"/><path fill="#173944" d="M329.499 328.411C332.931 328.607 334.905 329.534 335.828 332.856C338.707 343.228 342.553 354.234 343.361 364.944C343.455 366.19 340.293 368.144 339.541 368.627C330.678 368.128 330.502 354.819 328.253 347.613C326.254 341.21 323.349 333.036 329.499 328.411Z"/><path fill="#173944" d="M333.987 626.828C338.089 627.946 341.224 629.18 339.973 634.763C338.758 640.18 336.607 645.565 335.024 650.937C333.465 656.226 331.788 662.399 327.171 665.748C322.01 664.807 319.178 662.708 320.923 657.048C323.325 649.261 327.208 631.49 333.987 626.828Z"/><path fill="#173944" d="M429.182 328.449C435.902 328.837 435.776 333.496 433.797 338.553C431.26 345.035 427.559 365.32 421.069 367.589C415.326 366.148 413.777 363.322 415.788 357.698C418.449 350.258 422.528 332.438 429.182 328.449Z"/><path fill="#173944" d="M234.378 495.694C239.551 494.508 246.044 497.704 242.53 502.418C238.524 507.792 223.649 508.35 217.057 508.95C215.319 509.187 210.862 509.717 209.588 508.756C193.981 496.985 231.521 496.003 234.378 495.694Z"/><path fill="#173944" d="M615.692 780.959C620.797 781.843 624.861 786.153 623.234 791.771C622.817 793.212 621.103 794.86 619.866 795.691C609.982 802.326 599.373 807.954 589.09 813.95C578.001 820.001 565.087 828.41 554.006 833.516C547.566 833.717 545.601 828.64 546.739 822.969C547.367 820.944 550.396 818.722 552.081 817.675C568.845 807.264 586.467 798.258 603.36 788.042C607.402 785.597 611.451 783.026 615.692 780.959Z"/><path fill="#173944" d="M615.877 812.458C616.359 812.449 616.491 812.433 617.026 812.495C619.081 812.73 620.979 813.69 622.168 815.433C623.214 816.964 624.214 820.172 623.727 822.027C621.821 829.286 580.48 851.317 572.55 855.484C569.589 855.405 566.851 854.08 565.509 851.29C563.295 846.686 564.306 843.11 568.476 840.246C574.1 836.384 580.058 833.284 585.878 829.74C595.786 824.082 605.621 817.388 615.877 812.458Z"/><path fill="#FBD75D" d="M880.925 662.969C882.694 665.691 876.666 707.06 875.772 713.875C858.878 733.616 841.534 752.567 825.376 772.979C788.837 819.137 760.595 864.2 731.761 915.42C712.506 924.391 692.793 932.999 673.419 941.817L672.917 941.018C673.806 937.811 677.662 931.295 679.415 928.057C727.633 838.962 788.586 756.084 859.767 683.981C866.991 676.663 874.137 670.852 880.925 662.969Z"/><path fill="#FBD75D" d="M874.303 726.893C874.685 729.19 873.797 735.85 873.492 738.503C869.029 777.357 866.062 816.719 860.851 855.46C848.514 862.352 836.047 867.132 823.256 873.022L744.738 909.113C744.491 906.303 751.853 895.857 753.638 892.681C787.216 832.941 828.709 777.952 874.303 726.893Z"/><path fill="#69D28E" d="M686.383 298.365C699.867 308.988 707.123 314.803 718.745 327.871C738.205 348.884 750.148 375.16 749.415 404.274C748.905 424.521 741.703 438.151 731.251 454.785C724.212 441.577 718.789 430.999 713.471 417.125C719.326 408.442 725.283 399.67 729.197 389.926C730.931 385.611 741.03 364.566 735.777 361.785C733.671 364.173 729.516 376.614 727.952 380.286C723.385 391.008 718.921 401.091 711.419 410.215C705.88 399.527 700.336 379.043 697.549 367.385C702.554 358.825 710.454 346.6 712.825 337.422C705.128 344.496 701.203 352.041 695.805 360.943C693.712 353.061 691.204 333.551 687.356 328.283L686.624 328.231C681.942 339.09 701.931 398.315 706.104 411.865C697.432 406.884 689.511 401.897 681.458 395.975C680.673 395.398 679.354 394.798 678.358 394.735L677.339 395.449C676.127 403.222 702.029 415.197 708.445 418.709C713.706 430.855 718.517 441.267 724.317 453.167C709.362 447.183 692.076 438.167 683.337 423.921C677.862 417.632 672.516 406.723 670.273 398.743C660.605 364.343 670.004 328.752 686.383 298.365Z"/><path fill="#FEFEFE" d="M686.383 298.365C699.867 308.988 707.123 314.803 718.745 327.871C717.411 328.185 716.695 327.77 715.351 326.795C706.201 320.158 698.2 314.863 688.24 309.451C674.409 334.123 667.29 370.549 673.638 398.702C674.958 404.557 683.462 420.436 683.337 423.921C677.862 417.632 672.516 406.723 670.273 398.743C660.605 364.343 670.004 328.752 686.383 298.365Z"/><path fill="#69D28E" d="M869.261 141.182C882.863 168.422 889.024 199.36 889.407 229.687C881.012 235.797 872.856 242.275 864.423 248.256C846.549 260.932 828.706 271.336 809.053 280.909C815.315 258.306 823.189 232.394 832.679 210.889C839.455 207.564 865.679 194.931 869.426 189.96L869.137 189.333C863.554 188.292 842.759 199.978 836.357 203.123C841.486 191.336 847.859 180.666 854.618 169.755C856.159 167.267 857.386 164.829 858.217 162.008C841.193 172.733 820.311 223.783 813.953 242.947C809.401 232.786 805.786 222.186 801.945 211.755C800.335 207.385 798.028 198.842 795.818 195.121C797.175 193.941 800.091 190.508 801.29 189.062C820.06 166.42 843.49 154.236 869.261 141.182Z"/><path fill="#69D28E" d="M866.447 135.715L869.261 141.182C843.49 154.236 820.06 166.42 801.29 189.062C800.091 190.508 797.175 193.941 795.818 195.121C793.643 197.121 792.933 197.608 793.027 200.743C798.737 219.079 803.467 234.614 810.803 252.343C802.413 284.992 795.135 314.172 793.877 347.993C789.418 342.046 775.68 322.98 774.644 316.644C761.172 290.644 764.145 247.168 775.247 220.442C791.844 180.487 827.408 152.122 866.447 135.715Z"/><path fill="#FEFEFE" d="M866.447 135.715L869.261 141.182C843.49 154.236 820.06 166.42 801.29 189.062C800.091 190.508 797.175 193.941 795.818 195.121C793.643 197.121 792.933 197.608 793.027 200.743C775.563 229.106 767.384 257.01 770.075 290.798C770.557 296.85 774.785 313.24 774.644 316.644C761.172 290.644 764.145 247.168 775.247 220.442C791.844 180.487 827.408 152.122 866.447 135.715Z"/><path fill="#69D28E" d="M888.226 236.915L888.781 237.76C888.858 255.663 882.037 278.113 873.533 293.607C861.977 314.662 844.745 331.819 822.595 341.539C815.524 344.643 808.496 346.58 801.126 348.761L800.445 347.743C799.248 335.794 805.562 299.157 808.132 287.029C835.566 276.292 865.038 254.645 888.226 236.915Z"/><path fill="#69D28E" d="M887.068 387.971C888.701 387.274 893.601 385.009 894.939 384.7C909.15 381.419 928.791 382.358 943.171 384.525C938.407 413.077 932.017 434.863 911.319 456.447C900.982 455.074 890.988 455.268 880.659 454.535C871.975 453.919 862.631 452.2 854.035 450.704C866.167 438.455 886.458 423.117 900.858 413.741C907.406 415.532 922.212 419.359 928.738 417.95L929.658 417.22C928.094 413.017 909.357 410.332 905.05 409.677C909.764 406.884 929.33 396.491 930.45 392.949C924.487 389.62 889.621 414.144 883.632 419.237C885.584 411.532 887.897 403.41 888.954 395.536C889.343 392.632 889.609 389.869 887.068 387.971Z"/><path fill="#69D28E" d="M831.323 437.372C840.802 406.287 872.246 382.511 903.685 378.632C911.377 377.683 936.239 375.438 942.77 380.211C943.777 382.103 943.373 381.96 943.171 384.525C928.791 382.358 909.15 381.419 894.939 384.7C893.601 385.009 888.701 387.274 887.068 387.971L886.251 388.56C883.036 398.378 879.386 413.354 877.169 423.712C868.973 430.094 858.16 438.676 851.058 446.236C850.865 440.885 850.739 415.87 848.918 412.584L846.771 414.947C840.188 420.859 834.594 435.726 831.323 437.372Z"/><path fill="#FEFEFE" d="M831.323 437.372C840.802 406.287 872.246 382.511 903.685 378.632C911.377 377.683 936.239 375.438 942.77 380.211C943.777 382.103 943.373 381.96 943.171 384.525C928.791 382.358 909.15 381.419 894.939 384.7C893.601 385.009 888.701 387.274 887.068 387.971L886.251 388.56C875.24 391.753 865.546 398.16 856.755 405.404C855.035 406.821 850.092 411.741 848.918 412.584L846.771 414.947C840.188 420.859 834.594 435.726 831.323 437.372Z"/><path fill="#69D28E" d="M850.389 454.317C873.254 460.409 883.443 460.62 906.967 461.035C895.992 469.513 891.898 472.166 879.124 477.709C860.48 484.57 848.387 485.378 829.242 480.114C836.213 470.029 842.292 463.382 850.389 454.317Z"/><path fill="#69D28E" d="M831.323 437.372C834.594 435.726 840.188 420.859 846.771 414.947C844.832 426.244 844.993 439.487 846.438 450.843C838.368 458.752 833.397 464.88 826.202 473.674C825.652 460.149 826.316 449.857 831.323 437.372Z"/><path fill="#3AA173" d="M391.351 801.067C393.384 800.927 393.355 800.967 395.368 801.442C396.786 802.718 396.433 801.95 396.533 803.79C393.866 809.56 382.422 813.052 376.56 815.529L350.254 826.725L278.987 858.151L171.765 905.199C148.76 915.317 126.55 925.585 103.124 934.932C101.23 935.067 101.153 935.136 99.217 934.739C97.8967 933.596 98.2408 934.296 98.1109 932.59C99.106 930.304 102.051 927.733 104.172 926.75C113.727 922.321 123.792 918.131 133.455 913.957L187.892 890.139L391.351 801.067Z"/><path fill="#FBD75D" d="M575.7 152.964C583.732 152.668 601.629 172.483 606.462 179.165C602.02 189.219 587.953 201.63 579.131 208.175C570.919 208.272 554.435 190.596 550.302 183.711C548.279 180.34 550.354 176.259 552.799 173.949C559.897 167.245 566.806 156.997 575.7 152.964ZM557.047 180.59C559.832 183.878 575.016 200.296 578.288 199.881C585.102 193.917 592.288 186.829 598.756 180.38C592.936 174.518 583.736 164.633 577.051 160.372C570.941 165.843 561.994 173.982 557.047 180.59Z"/><path fill="#3AA173" d="M443.424 59.4664C445.527 59.5001 446.037 59.5433 447.67 60.7797C448.061 61.8461 448.435 62.3629 447.745 63.5934C446.534 65.7527 443.77 67.4951 441.606 68.3873C426.424 74.6447 411.187 81.011 396.037 87.3073L316.687 120.811L257.492 145.975C248.353 149.918 236.623 155.867 227.63 159.007C225.315 159.09 224.769 158.927 223.317 157.278C222.748 155.101 224.078 152.188 226.09 151.367C247.483 142.629 268.482 133.083 289.815 124.136L381.74 85.3511C402.361 76.698 422.909 68.4155 443.424 59.4664Z"/><path fill="#3AA173" d="M400.476 853.015C402.161 853.278 402.701 853.213 403.983 854.35C404.937 857.222 402.6 859.76 400.083 860.855C391.916 864.408 383.819 868.111 375.674 871.722L318.843 896.402L187.14 953.993C184.921 954.054 184.332 953.803 183.029 952.196C182.664 949.166 185.738 946.616 188.242 945.479C205.613 937.589 223.265 930.322 240.764 922.716L333.246 882.214C350.892 874.6 368.475 866.881 385.957 858.9C390.442 856.852 395.777 854.371 400.476 853.015Z"/><path fill="#FBD75D" d="M112.097 638.211C124.999 636.285 137.004 645.228 138.85 658.141C140.697 671.055 131.679 683.004 118.755 684.77C105.943 686.521 94.1208 677.6 92.2905 664.799C90.4601 651.998 99.3082 640.121 112.097 638.211Z"/><path fill="#3AA173" d="M400.509 744.479C402.819 744.185 403.394 744.092 405.133 745.506C405.498 746.994 405.717 746.998 404.96 748.619C404.402 749.814 402.614 751.376 401.424 751.886C392.095 755.883 382.552 759.622 373.246 763.647L299.364 795.671L220.942 829.954C208.829 835.197 194.833 841.583 182.627 846.273C180.853 846.899 180.105 846.618 178.77 845.535C178.222 844.148 178.04 843.57 178.601 842.095C179.059 840.889 180.234 839.372 181.403 838.847C189.666 835.136 198.203 831.529 206.509 827.978L260.338 805.101L400.509 744.479Z"/><path fill="#3AA173" d="M692.871 244.502C694.943 244.917 695.168 245.275 696.322 246.63C696.616 248.409 696.523 250.11 694.541 250.955C650.89 269.568 606.42 288.71 562.072 305.483C560.251 305.27 560.256 305.379 558.853 304.079C558.495 303.036 558.008 301.797 558.675 300.857C561.496 296.887 574.321 292.706 578.286 291.089L609.61 278.384L692.871 244.502Z"/><path fill="#3AA173" d="M205 711.947C206.948 712.236 207.388 712.533 208.55 713.778C208.628 714.496 208.896 715.356 208.457 715.845C203.211 721.688 187.678 727.618 180.984 730.617L140.458 748.571L105.991 763.899C100.269 766.477 90.82 771.136 85.1309 772.98C77.5114 772.383 81.6132 766.585 86.4377 764.482C126.015 747.23 165.39 729.07 205 711.947Z"/><path fill="#3AA173" d="M87.3184 418.273C95.8599 416.415 104.278 421.875 106.066 430.431C107.854 438.988 102.326 447.361 93.7558 449.08C85.2833 450.778 77.026 445.327 75.2585 436.869C73.491 428.41 78.8746 420.109 87.3184 418.273ZM81.1048 433.5C81.1095 436.411 82.4337 439.164 84.7057 440.985C86.9776 442.805 89.9524 443.498 92.795 442.868C96.1829 442.118 98.9033 439.6 99.9125 436.28C100.922 432.96 100.063 429.353 97.6659 426.844C95.2688 424.335 91.7054 423.313 88.3428 424.17C84.0791 425.257 81.0976 429.1 81.1048 433.5Z"/><path fill="#3AA173" d="M484.902 115.994C487.736 116.227 489.673 118.084 488.724 120.982C481.693 126.604 410.45 155.43 399.058 158.938C397.305 158.985 396.661 158.689 395.525 157.657C394.636 154.087 397.587 152.409 400.444 150.848C407.57 146.956 415.453 144.557 422.937 141.518L452.687 129.141C463.266 124.86 474.563 120.587 484.902 115.994Z"/><path fill="#3AA173" d="M688.528 137.263C692.41 139.652 692.146 143.794 692.524 147.9C695.719 147.935 701.35 147.425 702.153 151.36C700.274 154.943 695.511 154.341 692.018 154.367C692.144 159.475 692.601 161.639 689.324 165.391C685.099 163.705 685.984 158.398 685.963 154.483C683.178 154.498 674.829 154.321 676.529 149.561C679.339 147.18 682.025 147.829 685.83 147.93C685.518 143.08 684.909 140.901 688.528 137.263Z"/><path fill="#3AA173" d="M84.2748 936.066C86.4268 935.993 88.642 935.585 89.181 937.945C87.3647 941.404 81.679 943.704 78.1019 945.084C76.5871 945.656 75.7974 945.754 74.4432 945.031C73.4559 943.274 73.6274 944.181 73.8544 942.224C76.1223 938.995 80.5808 937.646 84.2748 936.066Z"/><path fill="#3AA173" d="M503.517 108.465C505.71 108.368 507.248 108.308 508.538 110.172C508.581 113.755 503.934 115.921 501.257 117.348C499.931 117.513 498.382 117.103 497.209 116.475C495.175 112.269 500.501 109.736 503.517 108.465Z"/></svg>