<?xml version="1.0" encoding="utf-8" ?><svg xmlns="http://www.w3.org/2000/svg" xmlns:xlink="http://www.w3.org/1999/xlink" width="1024" height="1024" viewBox="0 0 1024 1024"><path d="M430.367 141.312L431.18 140.942C437.724 137.912 445.252 132.859 451.76 129.329C520.809 91.8748 594.37 62.7339 671.271 46.1847C675.98 45.1716 694.173 40.1639 696.956 44.2272C694.666 49.4317 688.267 56.986 684.888 62.1008C677.687 72.8019 671.985 84.4152 667.266 96.4153C637.819 171.29 666.076 251.159 665.954 328.243C665.897 364.585 661.75 403.696 647.759 437.383C624.034 494.505 573.04 532.389 519.703 559.897C472.278 584.693 420.995 609.893 382.86 648.211C376.577 654.523 370.176 663.338 364.842 670.62C369.361 713.409 385.388 770.919 401.772 811.128C403.06 799.759 403.318 792.467 405.705 781.079C414.492 739.159 436.488 704.819 470.11 678.407C496.324 657.814 520.969 646.279 554.022 641.716C540.195 651.724 527.17 658.835 514.067 670.179C475.751 703.35 453.194 750.586 445.59 800.214C442.673 819.247 440.661 846.803 443.855 865.875C466.805 794.808 528.235 737.396 604.082 729.923C596.815 735.949 586.636 743.884 580.264 750.41C549.815 781.6 519.708 830.769 507.552 872.714L508.03 872.217C509.9 870.249 511.52 868.204 513.134 866.001C519.051 857.922 525.066 850.475 531.953 843.182C555.262 818.495 590.65 804.994 624.148 802.812C624.801 802.774 625.612 802.772 626.28 802.772L626.477 803.159C625.286 805.843 615.37 816.03 612.712 819.173C600.724 833.345 585.599 848.384 574.979 863.491C588.048 858.012 601.741 852.835 615.912 851.282C620.65 850.763 632.6 849.151 636.495 850.727L636.698 851.277C630.711 855.017 622.99 858.074 617.434 861.75C605.751 869.482 593.464 882.917 584.115 893.494C609.785 892.003 630.557 890.951 656.39 890.714C658.284 879.1 670.18 814.723 666.73 809.875C666.24 809.186 665.639 808.979 664.902 808.627C663.611 803.098 672.028 770.097 674.755 763.07C669.636 770.655 653.47 801.234 659.834 809.853C660.007 812.096 660.383 812.05 659.465 813.626C657.769 814.131 655.456 813.412 653.631 813.04C652.67 811.471 651.781 810.031 650.911 808.411L650.722 809.381C650.332 811.329 650.251 812.211 648.803 813.223C646.94 813.246 646.513 812.673 645.01 811.567C644.516 809.956 645.02 810.469 643.718 809.762C640.969 811.401 641.249 811.849 638.681 811.3C637.409 810.184 637.825 810.875 637.54 809.071C639.077 804.109 643.436 800.016 647.674 797.185C651.311 777.723 654.131 756.394 666.404 739.935C669.399 735.919 674.472 731.455 678.268 728.101C675.838 723.471 675.354 722.675 671.154 719.228C658.603 726.881 654.181 723.046 645.269 712.99C642.763 712.954 640.697 713.19 638.417 712.028C633.053 709.295 632.313 705.363 635.252 700.903C644.255 687.24 650.59 695.357 661.52 695.226C670.985 692.471 672.91 677.907 685.736 686.434C690.431 689.555 694.944 695.352 696.283 701.452C697.885 708.756 693.387 713.653 692.565 719.223L693.054 719.645C700.398 715.185 706.008 703.935 708.115 695.398C710.52 685.655 710.134 671.015 705.412 661.826C704.478 660.007 702.992 659.195 701.426 655.647L707.792 650.864C710.582 651.343 711.943 652.805 713.55 655.153C729.703 678.761 730.1 713.639 704.895 732.129C714.801 754.513 716.917 787.507 720.946 811.594C722.819 822.794 726.867 838.296 729.744 849.39C733.234 862.849 738.063 881.524 742.884 894.446C761.305 895.117 783.557 901.481 801.669 904.454C796.938 898.946 791.761 894.336 787.073 889.02C775.643 876.06 768.133 859.138 769.44 841.614C769.862 835.95 772.191 825.954 775.633 821.566L776.726 821.132C778.305 822.711 778.825 830.173 779.503 833.108C781.807 843.084 787.257 850.988 793.723 858.761C806.526 873.34 810.436 883.131 811.915 902.32L812.538 905.379L813.095 905.56C813.522 904.662 813.877 903.923 814.262 903.007C815.976 896.775 818.72 890.662 820.56 884.211C816.893 866.447 813.162 860.658 803.239 846.285C785.51 820.604 788.8 776.787 809.101 753.368C810 752.33 810.705 751.994 811.994 752.053C813.01 754.291 808.781 761.281 808.064 764.4C802.322 789.385 818.947 808.16 827.574 829.837C829.788 835.399 830.601 840.922 831.302 847.122C830.994 850.07 830.705 855.99 831.231 858.777L831.679 858.966C831.936 858.498 832.594 857.376 832.769 856.947C837.84 848.453 840.896 842.828 846.869 834.601C845.027 806.764 827.747 800.98 826.271 773.286C825.102 751.363 833.595 726.206 847.906 709.813C847.406 719.52 845.093 729.584 846.779 739.156C852.043 769.041 867.948 779.672 862.198 812.182C868.323 804.958 870.872 801.626 875.488 793.277C874.204 783.625 872.683 775.252 869.294 766.227C858.889 738.515 848.777 721.054 862.07 691.532C863.8 687.69 870.723 672.586 874.543 671.013L875.496 671.557C877.015 675.079 876.167 679.19 876.759 682.989C881.516 713.491 898.297 740.381 893.762 772.146C899.291 764.605 907.426 751.92 911.291 743.18C912.293 740.916 911.407 734.145 910.86 731.528C904.716 702.146 885.221 687.37 896.124 654.922C898.845 646.825 901.333 639.234 909.415 634.942C909.744 643.052 909.423 652.137 910.792 660.088C913.174 673.923 918.63 687.315 920.341 701.286C921.147 707.866 920.709 713.531 920.369 720.108C936.917 688.026 930.615 673.959 925.918 640.172C923.606 623.542 926.29 605.951 937.235 592.912C939.355 590.386 942.345 586.057 945.624 585.683L946.477 586.647C947.284 590.06 946.599 593.856 946.726 597.464C946.862 601.355 947.383 605.15 948.183 608.904C954.611 639.072 965.027 660.517 943.2 687.752C934.124 699.078 929.235 701.72 925.813 716.436C939.769 702.101 955.805 693.543 966.856 677.658C968.877 674.753 974.914 662.645 977.001 662.053L977.598 662.615C980.034 669.758 976.724 691.334 973.457 698.966C961.219 727.562 936.539 738.396 910.031 749.312L904.318 759.976C902.167 763.641 897.131 771.568 895.757 774.968L897.634 774.634C900.519 769.972 905.421 766.992 909.984 764.309C928.514 755.528 948.15 749.691 964.223 737.273C966.635 735.41 972.061 731.127 974.86 729.691C975.233 729.802 975.607 729.914 975.98 730.026C976.846 731.589 976.698 734.076 976.096 735.691C966.342 761.88 951.555 777.308 923.49 782.288C904.202 785.71 879.239 787.243 870.372 807.809C870.315 808.002 870.258 808.195 870.2 808.388C868.622 807.94 919.393 797.741 923.387 798.599C930.162 800.055 961.087 785.989 963.112 786.518C963.757 787.897 963.065 789.69 962.464 791.073C950.416 818.929 928.376 838.285 896.864 836.034C882.996 835.043 856.013 833.917 845.961 843.632C837.541 851.771 822.967 884.696 820.477 896.319C824.942 891.522 828.213 887.965 832.954 883.536C854.733 863.197 881.133 867.935 907.828 860.692C918.837 857.705 923.705 852.893 932.649 849.45C928.403 865.575 919.961 881.042 905.256 889.693C876.328 906.71 848.838 894.117 819.639 908.734C839.6 915.017 860.201 920.699 879.138 929.619C908.464 943.433 936.811 958.801 958.969 982.841C945.668 973.783 932.886 964.264 919.038 956.008C875.71 930.178 827.104 913.799 777.58 904.921C773.264 904.148 747.456 899.497 744.575 901.092C743.969 902.761 744.009 901.933 744.468 903.663C748.423 907.268 755.412 903.063 758.863 907.142C758.334 912.945 740.17 922.047 734.821 923.073C730.926 916.27 724.404 904.727 721.887 897.582C707.227 896.297 692.637 894.978 677.91 894.656C675.136 900.945 672.333 907.179 669.806 913.572C673.873 915.729 676.283 916.35 678.468 920.194C678.609 926.935 657.541 924.529 653.556 920.514C650.912 913.897 653.409 902.457 655.003 895.617C622.213 895.099 586.953 897.974 554.378 901.923C524.274 905.574 488.694 910.858 459.446 918.839L467.121 927.91C480.118 922.036 483.667 933.209 479.936 944.043C487.009 947.127 495.849 949.537 503.257 952.149C492.743 951.115 488.462 949.994 478.577 946.434C470.116 953.332 461.541 954.507 450.855 953.74C446.329 953.415 436.863 950.711 434.55 947.272C431.279 942.407 430.944 941.217 426.8 936.536C422.602 937.815 418.594 939.565 414.505 941.144C381.007 954.08 348.107 968.415 314.991 982.274C310.218 984.272 303.656 986.56 298.673 987.562C321.667 975.448 346.337 965.674 370.105 955.156C381.178 950.257 392.492 946.026 403.444 940.781C322.586 934.81 241.897 957.721 166.355 984.003C162.057 985.498 157.422 987.549 152.973 988.406C181.095 973.428 209.161 963.641 239.89 955.185C222.441 946.89 206.285 941.711 186.7 941.965C183.913 942.001 181.482 941.886 180.081 939.276C180.506 937.12 182.443 935.665 184.261 934.519C216.636 914.106 264.254 910.037 294.434 936.648C297.276 939.154 299.444 940.861 302.774 942.764L302.393 942.087C298.923 935.98 291.973 929.492 286.717 924.474C255.471 894.646 217.042 870.861 175.534 858.455C169.37 856.613 163.144 855.34 157.126 853.112C155.356 852.481 155.534 852.205 155.645 851.144C160.551 845.732 186.872 841.949 194.401 841.497C217.046 840.139 242.285 846.656 263.55 854.579C253.291 841.866 242.354 824.748 231.305 813.044C225.235 806.614 206.275 798.104 197.341 795.973C190.833 795.966 183.174 797.87 176.788 798.345C149.146 800.401 120.273 793.055 101.837 771.162C97.7906 766.357 85.6931 750.558 89.0272 744.302L89.948 743.642C92.2137 744.048 96.5996 747.562 99.4192 748.688C138.008 764.103 169.622 751.413 196.116 791.985C209.594 795.983 218.791 801.046 230.5 808.693C226.645 800.509 218.527 787.605 213.971 779.354C211.654 775.159 199.668 753.199 197.642 751.609C183.211 740.281 158.83 727.97 142.387 719.573C135.483 717.468 126.567 716.018 119.669 714.653C93.9239 709.556 70.4361 696.479 59.955 671.357C58.4532 667.757 53.2323 659.379 57.6312 656.654C60.4833 656.432 64.6073 657.736 67.5 658.385C83.8814 662.06 98.6006 667.709 111.523 678.679C124.973 690.096 133.784 705.812 146.315 717.867C149.777 721.198 158.354 724.115 162.615 726.89C172.055 732.119 187.171 739.926 195.497 746.366C182.197 720.911 170.074 695.904 158.624 669.566C154.9 661.001 151.812 651.104 147.148 643.014C138.173 631.622 125.416 616.649 114.74 606.761C108.784 602.355 100.818 598.304 94.3075 594.932C77.2846 586.113 63.9431 572.455 59.9507 553.268C58.8649 548.05 56.6653 538.658 59.1691 533.655C62.9968 532.002 70.6032 540.269 74.0173 542.112C91.3153 551.45 103.325 567.115 111.149 584.903C114.075 591.553 116.04 599.864 119.733 606.187C127.496 616.706 137.863 626.838 146.406 637.067C136.453 610.524 130.035 582.432 123.901 554.756C120.813 540.824 120.807 525.998 114.657 512.412C110.036 502.288 105.486 490.949 98.879 481.982C96.2539 478.419 90.4956 473.452 87.0512 470.434C63.9767 450.216 59.4379 427.02 67.3768 398.026C84.7673 408.405 95.0482 427.165 100.292 446.228C103.868 459.226 102.373 470.185 104.268 481.562C105.164 486.941 115.087 506.92 118.074 514.399C115.052 497.914 115.09 476.864 115.378 460.065C115.363 452.894 116.477 445.482 116.271 438.344C115.955 432.349 113.774 426.572 112.546 420.728C108.335 400.694 109.193 378.693 121.141 361.35C122.925 358.128 139.757 339.211 143.198 343.4C147.882 349.102 150.023 365.872 149.479 373.238C147.758 396.551 132.91 420.857 119.581 439.58C117.612 467.008 118.195 488.486 121.504 516.193C122.907 527.939 127.142 545.197 128.014 555.841C130.728 540.999 135.464 531.282 140.34 517.372C142.331 511.691 141.572 503.437 142.529 497.376C145.309 479.756 156.081 462.031 170.744 451.805C175.54 448.46 187.457 442.387 193.071 442.898C194.313 443.746 195.162 444.687 195.324 446.295C198.995 482.713 172.002 499.505 144.986 515.035C141.241 522.215 128.889 551.816 129.791 558.68C133.771 588.946 146.498 626.877 157.996 654.848C155.043 637.065 155.897 619.369 155.162 601.202C154.638 588.269 151.824 578.307 153.525 564.248C156.036 543.5 170.762 525.891 189.619 517.454C190.449 517.271 192 517.764 192.346 518.549C196.386 527.737 195.091 540.226 193.418 549.568C189.294 572.602 169.93 583.494 159.094 602.023C157.281 605.123 158.38 617.861 157.986 621.796C158.016 632.854 158.603 649.841 160.849 660.264C162.212 666.584 169.918 680.522 172.98 687.057C188.095 719.312 206.435 751.374 224.195 782.396C213.918 747.914 208.106 714.429 205.813 678.769C204.721 672.75 201.012 666.551 199.071 660.986C192.35 641.72 191.88 617.273 201.748 598.969C204.549 593.774 216.209 575.342 222.837 577.611C227.013 581.761 230.105 603.595 230.025 610.395C230.044 627.671 224.206 643.879 217.137 659.433C215.967 662.008 209.933 672.29 209.852 674.577C208.802 704.158 216.05 735.298 222.456 764.09C224.792 774.59 226.867 781.615 230.287 791.428C232.824 797.767 241.673 809.659 245.847 815.551C242.834 795.313 242.114 775.643 241.901 755.226C241.838 749.111 239.366 741.189 238.836 734.748C235.91 699.212 247.436 666.313 279.067 647.721C285.69 660.267 284.789 679.404 280.728 693.149C274.133 715.471 254.155 735.131 245.8 756.194C242.982 763.3 246.408 784.772 246.244 792.616C246.554 797.671 248.865 819.85 250.996 823.403C258.591 836.065 272.542 852.644 283.605 862.703C287.36 866.118 295.728 870.737 300.101 874.114C309.19 881.132 317.016 888.682 325.11 896.7C322.971 892.65 319.659 888.523 317.045 884.719C311.994 877.371 306.704 870.168 302.092 862.522C284.499 833.188 265.97 783.923 266.451 749.627C271.62 758.758 276.627 767.134 282.816 775.626C296.036 793.765 311.237 810.265 324.089 828.709C325.838 831.156 327.443 833.339 329.306 835.703C328.228 832.925 327.329 830.044 326.403 827.209C312.098 785.233 313.265 738.582 325.9 696.348L327.536 695.865C334.822 768.599 346.799 824.376 387.994 886.458C397.638 900.992 410.646 920.342 423.481 932.064C375.947 861.384 344.785 761.687 339.033 677.056C309.488 661.016 281.25 638.26 261.382 610.961C219.846 553.89 217.16 465.011 228.059 398.117C241.791 313.837 286.841 244.905 353.728 192.965C363.6 185.298 373.655 178.136 383.953 170.859L387.004 168.845C397.399 161.94 407.112 155.73 417.68 149.1C421.825 146.65 426.424 144.025 430.367 141.312ZM666.907 911.053C679.058 883.829 688.139 854.375 691.258 824.623C691.475 820.997 691.616 817.319 692.058 813.713C694.799 818.134 695.775 823.921 697.403 828.858C699.02 833.762 700.963 838.589 702.83 843.405C711.42 865.568 720.727 887.81 731.289 909.104L741.899 903.878C734.648 879.337 727.804 854.735 721.442 829.95C719.621 822.853 719.695 814.576 717.002 807.856C716.031 807.355 715.484 807.476 714.425 807.635C699.451 811.112 685.79 812.447 670.665 808.731C667.716 840.628 664.594 875.92 655.863 906.762C659.834 907.667 663.356 909.046 666.907 911.053ZM647.531 806.657L646.524 808.383C647.257 808.955 647.927 808.758 648.835 808.785L649.386 807.716C648.671 806.892 648.522 806.97 647.531 806.657ZM654.52 697.419C652.188 696.01 651.855 695.857 648.993 696.046C650.815 696.572 652.648 697.172 654.52 697.419ZM652.583 802.364C653.145 807.148 653.922 807.946 656.566 811.866C656.457 809.075 655.765 801.495 654.932 799.003C654.1 799.51 652.877 799.914 652.641 800.881C652.429 801.753 652.477 801.411 652.583 802.364ZM712.443 661.391C712.881 660.913 713.177 660.855 713.797 660.526L713.266 658.713L712.772 658.493C712.561 659.702 712.458 660.174 712.443 661.391ZM693.576 832.574C692.799 835.804 692.11 839.35 691.527 842.641C688.635 858.976 684.088 874.622 679.354 890.513C694.563 890.44 705.356 891.801 719.429 892.116C712.144 876.228 701.123 849.776 695.774 833.368C695.341 832.459 694.9 831.632 694.432 830.744L693.839 830.768L693.576 832.574ZM818.301 901.756L817.501 900.84C816.762 902.959 816.187 903.998 816.354 906.17L816.866 906.153C817.775 904.403 817.849 903.712 818.301 901.756ZM708.891 657.567C708.641 656.07 708.738 656.08 707.899 654.85C707.322 656.104 707.645 656.146 708 657.831L708.891 657.567ZM100.196 472.533L98.7097 473.032L99.58 474.929L99.9709 474.641L100.196 472.533ZM648.645 712.64C646.168 710.427 643.723 709.952 640.402 710.2C641.363 711.243 647.01 712.35 648.645 712.64ZM175.089 853.724C176.86 852.819 180.055 853.004 182.182 852.958C178.964 852.459 175.19 852.218 171.984 852.883C172.99 853.744 173.501 853.518 175.089 853.724ZM651.612 709.478C647.995 706.568 643 707.146 638.606 707.774C639.661 708.32 649.738 709.368 651.612 709.478ZM646.066 697.899C646.814 698.537 655.133 701.423 656.202 701.615C653.131 699.189 650.852 698.372 647.028 697.63L646.066 697.899Z"/><path fill="#B4D1A4" d="M964.63 743.091C967.584 740.104 968.919 738.858 972.268 736.37C964.039 754.596 955.641 768.571 935.947 775.71C918.703 781.962 902.943 781.559 885.646 787.828C887.881 785.936 890.543 783.796 892.676 781.853L897.182 777.853C911.695 763.192 924.101 762.442 942.164 753.74C948.69 750.595 956.371 745.612 963.154 742.27L963.916 742.76L964.63 743.091Z"/><path d="M959.11 748.992L959.611 749.667C946.539 763.852 926.393 769.758 909.128 777.092C904.057 779.246 898.814 782.365 893.761 784.884C906.067 774.388 915.667 772.573 930.089 766.608C939.873 762.561 951.194 756.057 959.11 748.992Z"/><path fill="#6D7468" d="M959.11 748.992C960.344 747.21 962.538 744.542 963.916 742.76L964.63 743.091C962.976 745.328 961.389 747.523 959.611 749.667L959.11 748.992Z"/><path fill="#D7D7C8" d="M895.757 774.968L897.634 774.634L896.522 776.303L897.182 777.853L892.676 781.853L891.607 781.419L890.83 781.667C891.472 779.883 894.334 776.219 895.757 774.968Z"/><path fill="#111715" d="M896.522 776.303L897.182 777.853L892.676 781.853L891.607 781.419C893.206 779.929 894.994 777.922 896.522 776.303Z"/><path fill="#B4D1A4" d="M338.606 672.847C281.333 636.289 249.073 603.786 234.117 535.755C215.526 451.194 229.067 355.31 276.044 281.935C293.226 255.1 315 231.387 338.969 210.469C421.17 138.735 557.18 75.1462 663.696 51.9427C672.773 49.9654 681.897 48.2459 691.077 46.8215C675.329 69.4657 664.435 88.9693 657.102 115.823C642.122 170.653 653.667 227.744 659.227 282.939C665.198 342.207 662.208 411.481 629.564 463.442C568.083 561.306 432.033 572.929 364.594 664.47C362.389 636.194 362.266 607.337 365.781 579.173C366.714 571.699 367.481 560.224 372.831 554.866C402.601 525.048 442.593 519.27 482.561 516.043C492.802 515.216 508.041 512.95 517.531 509.714C516.002 508.541 514.829 508.895 512.732 508.953C503.28 509.276 490.936 511.021 481.143 511.721C437.433 514.844 405.472 522.289 371.083 551.463C371.738 548.039 373.438 542.682 374.431 539.191C434.631 489.309 511.069 525.437 573.503 476.573L573.04 475.313C553.642 486.518 531.473 495.487 509.353 499.416C461.383 507.936 416.389 500.777 375.541 533.915C381.663 512.285 394.774 474.902 406.234 456.015C419.948 433.411 471.809 425.683 497.117 421.508C550.964 412.624 599.806 398.57 631.132 349.429C617.704 361.587 605.936 375.43 590.794 385.677C567.426 401.456 538.739 410.349 511.121 415.144C473.741 421.634 444.633 423.81 411.846 444.769C416.917 435.736 418.068 431.74 428.303 427.45C459.559 414.348 493.749 412.876 526.587 405.623C570.337 395.961 616.363 373.18 631.162 327.546C623.565 338.77 620.749 345.632 610.907 356.638C582.011 388.954 542.71 399.692 501.663 406.32C472.93 410.96 450.361 413.384 423.75 425.772C441.954 394.568 463.897 365.461 484.816 336.058C490.029 328.732 494.976 321.446 500.724 314.52C510.439 310.998 520.205 308.687 530.234 305.546C556.864 297.205 583.595 283.772 602.902 263.233C606.235 259.688 610.151 254.46 611.602 249.89C603.872 256.836 597.146 265.128 588.931 271.689C564.49 291.211 531.632 300.363 502.548 311.161C504.797 307.148 507.357 303.83 510.274 300.3C516.691 298.637 523.126 297.656 529.775 295.774C561.24 286.87 590.941 269.096 613.519 245.433C616.603 242.2 620.236 236.881 622.635 233.232C624.861 229.845 630.79 220.969 628.727 217.1L627.604 217.067C625.631 218.842 622.238 226.096 620.538 228.728C595.865 266.91 554.159 285.986 511.846 296.996C526.078 273.91 539.521 252.709 551.32 228.023C568.86 191.326 581.823 152.514 608.801 121.36C621.093 107.164 631.858 102.675 644.91 91.6308L645.497 91.1291C611.467 104.168 585.762 143.165 568.611 173.91C573.851 153.387 581.608 131.941 592.811 113.888C596.622 107.747 601.461 103.06 605.464 96.3998C598.752 100.213 595.657 105.431 591.401 111.547C575.903 133.819 571.373 158.496 561.407 182.907C556.016 196.112 547.194 212.14 540.481 224.989C522.357 259.677 500.187 290.572 477.722 322.448C470.964 281.015 468.376 227.92 482.255 187.819C485.439 178.209 489.657 169.134 494.547 160.284C496.247 157.207 503.369 147.923 500.233 144.847C495.177 144.956 486.099 158.093 483.623 162.167C453.908 211.069 455.003 281.989 467.142 335.995C445.91 365.352 422.455 392.887 404.444 424.62C401.117 417.248 397.79 405.294 395.932 397.121C386.107 353.905 385.156 307.66 396.784 264.7C401.629 246.802 408.261 236.016 414.38 219.673C406.719 229.577 400.011 243.815 395.769 255.829C380.926 297.869 381.972 347.906 390.567 391.179C392.992 403.389 396.753 417.906 401.977 429.012L396.112 439.175C374.193 371.126 372.719 301.697 390.746 232.666L389.579 231.603C366.451 298.763 371.455 376.046 393.235 442.809C387.752 453.615 381.82 464.026 376.519 474.926C368.828 490.74 362.648 506.8 356.484 523.25C325.67 466.683 293.747 406.565 304.475 339.908C305.263 335.007 306.507 329.025 306.683 324.156C282.187 380.518 317.301 462.533 345.608 511.559C348.8 517.086 351.828 523.361 355.268 528.685L352.479 536.998C343.154 518.177 333.031 499.794 323.69 480.992C300.119 433.545 288.915 383.168 289.567 330.263C289.528 328.174 289.77 325.546 288.69 323.897C286.288 334.708 286.355 348.58 286.839 359.698C289.225 414.509 309.959 466.951 336.048 514.567C340.788 523.219 345.802 532.183 350.67 540.808C350.931 541.205 351.192 541.602 351.453 541.998C345.356 564.518 343.518 579.6 339.309 601.854C302.963 571.325 277.04 530.017 265.206 484.047C260.137 464.354 258.717 443.72 256.574 423.565C256.43 422.207 256.248 421.208 255.362 420.214C251.944 422.403 251.691 440.521 251.464 445.119C248.543 504.371 277.927 559.313 317.773 601.27C324.117 607.951 331.558 614.095 338.014 620.872C337.019 638.072 337.197 655.669 338.606 672.847Z"/><path fill="#111715" d="M512.732 508.953C516.315 508.4 519.784 508.082 523.391 507.729C521.581 508.395 519.366 509.318 517.531 509.714C516.002 508.541 514.829 508.895 512.732 508.953Z"/><path fill="#111715" d="M288.69 323.897C288.952 322.528 288.815 321.944 289.6 321.064C290.255 324.204 290.017 327.111 289.567 330.263C289.528 328.174 289.77 325.546 288.69 323.897Z"/><path fill="#111715" d="M389.579 231.603C390.102 230.497 390.52 228.964 391.356 228.641C391.223 230.512 391.19 230.86 390.746 232.666L389.579 231.603Z"/><path fill="#111715" d="M573.04 475.313C574.341 474.546 574.506 474.103 575.609 474.327C574.751 475.661 574.766 475.586 573.503 476.573L573.04 475.313Z"/><path fill="#FDFBEB" d="M566.077 185.088L566.714 186.226C554.572 211.477 543.572 236.03 529.557 260.45C479.256 348.097 404.522 421.959 373.287 520.173C372.513 522.607 370.989 526.484 370.607 528.811L371.722 529.358C373.003 534.946 367.477 554.462 365.991 561.155C361.886 579.643 360.248 598.136 360.43 617.031C360.705 645.783 360.68 671.15 366.094 699.615C373.196 736.95 385.126 771.626 397.311 807.514C397.944 809.451 398.877 811.881 399.688 813.773C414.245 847.761 428.249 882.686 451.192 912.08C454.562 916.397 464.704 930.172 469.331 931.36L469.837 931.03C476.217 928.538 477.03 932.395 476.421 937.66C472.972 950.702 469.511 945.853 459.357 949.272C456.436 950.092 454.227 949.984 451.23 950.016C450.723 949.527 450.217 949.036 449.718 948.539C404.401 903.361 363.055 778.058 352.21 715.984C346.701 684.452 345.087 652.839 345.031 620.901C343.729 619.61 342.383 617.871 341.58 616.219C339.851 612.659 343.745 590.444 345.438 586.221C346.18 584.369 346.817 583.999 348.641 583.237C350.475 571.238 352.382 556.631 355.382 545.056C365.759 505.023 383.273 466.785 404.939 431.644C410.658 422.31 415.968 412.485 422.32 403.558C461.105 349.048 504.442 297.549 537.415 239.091C547.397 221.394 556.48 203.038 566.077 185.088Z"/><path fill="#173126" d="M370.607 528.811L371.722 529.358C373.003 534.946 367.477 554.462 365.991 561.155C361.886 579.643 360.248 598.136 360.43 617.031C360.705 645.783 360.68 671.15 366.094 699.615C373.196 736.95 385.126 771.626 397.311 807.514C397.944 809.451 398.877 811.881 399.688 813.773C414.245 847.761 428.249 882.686 451.192 912.08C454.562 916.397 464.704 930.172 469.331 931.36L469.837 931.03C476.217 928.538 477.03 932.395 476.421 937.66C472.972 950.702 469.511 945.853 459.357 949.272C455.584 943.39 445.677 932.193 440.751 925.306C426.984 905.863 413.759 884.405 404.319 862.448C360.878 761.408 331.183 635.244 370.607 528.811Z"/><path fill="#FDFBEB" d="M469.837 931.03C476.217 928.538 477.03 932.395 476.421 937.66C473.783 935.608 472.057 933.515 469.837 931.03Z"/><path fill="#111715" d="M345.031 620.901C343.729 619.61 342.383 617.871 341.58 616.219C339.851 612.659 343.745 590.444 345.438 586.221C346.18 584.369 346.817 583.999 348.641 583.237C346.542 595.694 346.528 608.592 345.031 620.901Z"/><path fill="#668F64" d="M324.956 712.143L325.923 712.106C332.311 772.319 345.534 825.368 378.269 877.053C389.409 894.642 400.337 912.168 414.655 927.359C415.589 928.349 420.102 933.116 419.334 934.087C416.995 932.938 413.33 930.031 411.812 929.805C412.449 931.908 413.921 933.446 415.302 935.215L409.038 936.502C404.754 928.967 399.478 922.593 394.128 915.798C365.659 879.64 342.979 840.316 333.199 794.932C330.846 784.013 329.188 772.83 326.835 762.101L325.916 762.944C326.421 770.62 328.398 781.22 329.832 788.697C337.488 828.601 354.76 864.326 378.012 897.432C383.097 904.673 388.256 911.875 393.595 918.979C397.728 924.476 402.776 930.215 406.552 935.868L406.978 936.513C395.726 936.138 385.231 935.414 373.72 935.182C367.906 928.409 362.137 919.977 356.977 912.605C334.808 880.932 315.489 847.348 295.775 814.132C291.389 806.742 287.072 799.036 281.743 792.294C283.945 797.564 286.367 802.452 289.152 807.432C310.405 845.439 333.539 882.381 358.3 918.198C362.312 924.002 366.828 929.625 371.282 935.1L357.505 935.498C347.784 920.641 335.366 905.723 324.951 891.088C294.636 848.492 277.742 812.024 270.148 760.613C285.629 787.332 306.245 809.865 324.3 834.823C335.073 849.716 339.777 863.019 347.846 878.743C358.444 899.397 377.169 924.724 397.749 935.753C387.975 924.049 377.966 915.762 368.529 903.281C355.547 886.112 348.756 871.328 339.936 852.298C323.86 817.614 316.889 783.945 320.2 745.615C321.199 734.055 323.348 723.621 324.956 712.143Z"/><path fill="#111715" d="M325.916 762.944C325.547 761.031 325.285 760.434 325.796 758.53C326.771 759.484 326.57 760.397 326.835 762.101L325.916 762.944Z"/><path fill="#FBC68E" d="M412.511 836.869C405.21 820.392 404.731 817.756 406.715 799.553C411.73 754.44 431.557 715.592 466.169 686.078C491.942 664.101 508.474 655.891 540.602 646.793C537.831 649.063 534.536 651.343 531.51 653.248C464.214 695.602 434.283 779.994 439.561 856.78C439.986 862.95 440.968 869.573 440.953 875.764C440.941 880.59 440.182 886.116 439.659 890.984C430.374 877.106 417.51 854.318 417.347 837.529C416.87 788.396 432.388 740.6 462.926 701.939C471.094 691.598 480.561 682.283 489.778 672.886C484.413 675.998 477.046 682.16 472.659 686.572C443.436 715.962 424.161 756.405 417.063 797.048C414.933 809.245 414.206 824.265 414.159 836.559L412.511 836.869Z"/><path fill="#B4D1A4" d="M591.807 736.033C585.694 741.512 578.255 747.92 572.7 753.904C543.583 785.267 522.152 824.116 507.134 864.003C501.939 877.801 498.395 892.382 492.999 906.336C483.356 907.092 476.694 909.302 467.374 911.454C476.026 847.904 503.087 796.973 554.471 757.042C560.205 752.586 571.209 745.07 577.478 741.868L576.568 741.071L578.034 740.172L578.487 738.234C580.137 737.826 580.502 737.67 582.251 737.75L583.704 738.7C586.397 737.798 589.094 736.873 591.807 736.033Z"/><path fill="#111715" d="M578.487 738.234C580.137 737.826 580.502 737.67 582.251 737.75L583.704 738.7C581.732 739.688 579.362 740.793 577.478 741.868L576.568 741.071L578.034 740.172L578.487 738.234Z"/><path fill="#A5B991" d="M578.487 738.234C580.137 737.826 580.502 737.67 582.251 737.75C580.423 739.061 580.079 739.262 578.034 740.172L578.487 738.234Z"/><path fill="#668F64" d="M615.825 806.7C616.842 806.545 617.484 806.516 618.484 806.775C618.971 809.499 608.812 819.252 606.632 821.673C593.667 836.072 579.931 850.313 568.453 865.951C561.059 876.024 554.824 886.813 548.502 897.571C537.84 899.49 526.971 900.413 516.255 902.059C522.073 892.064 526.519 881.581 533.02 871.931C539.074 862.945 546.077 854.555 553.44 846.618C557.882 841.831 562.646 837.311 566.869 832.328C562.652 835.133 558.98 838.285 555.363 841.824C537.721 859.257 523.715 879.035 514.772 902.279L496.323 905.489C501.863 888.269 512.75 872.063 523.947 857.972C547.356 828.512 578.431 810.994 615.825 806.7Z"/><path d="M566.097 855.377L566.6 855.52C566.492 857.157 561.881 861.097 560.613 862.466C552.764 870.941 546.403 880.769 539.694 890.15L539.393 890.24L539.108 889.599C543.305 877.596 556.38 863.407 566.097 855.377Z"/><path fill="#F58A7D" d="M708 657.831L708.891 657.567C709.74 660.106 709.234 659.864 710.985 661.309L712.443 661.391C712.881 660.913 713.177 660.855 713.797 660.526C714.736 663.656 716.51 666.683 717.896 669.653C727.97 691.237 720.135 714.887 703.579 730.365C701.85 728.751 696.773 723.596 694.698 724.028C695.087 726.283 700.248 730.93 701.852 733.646C703.509 736.454 704.737 738.262 705.678 741.574C711.374 761.613 713.523 782.815 716.712 803.312C705.792 807.259 680.833 811.093 669.778 803.507C668.819 802.848 668.667 800.637 668.836 799.467C670.673 786.745 674.113 773.507 678.86 761.575C679.594 759.763 685.705 754.41 687.199 753.068C664.887 762.612 663.952 776.318 656.7 797.427C654.671 796.865 652.638 796.223 650.622 795.61C654.564 774.716 658.178 753.802 672.223 736.857C679.336 728.275 681.466 730.783 690.699 727.386C692.265 726.81 692.561 724.158 693.796 723.039C701.725 715.861 708.244 707.424 710.933 696.905C714.065 686.164 712.44 669.387 706.812 659.609L707.821 658.754L708 657.831Z"/><path fill="#B4D1A4" d="M443.13 896.368C443.747 885.022 444.69 874.717 448.289 863.882C468.574 802.82 516.941 755.945 578.487 738.234L578.034 740.172L576.568 741.071C568.271 744.327 548.35 759.748 541.159 765.825C497.958 802.331 469.296 855.372 464.967 912.113C462.202 912.871 459.15 913.891 456.384 914.754C451.182 909.039 447.22 902.858 443.13 896.368Z"/><path fill="#B4D1A4" d="M194.871 845.692C204.752 844.868 215.029 845.988 224.752 847.699C282.165 857.805 319.957 888.566 352.768 935.425L331.921 937.328L330.061 934.601C323.493 924.232 315.067 914.506 306.251 905.979C278.475 879.116 240.438 858.918 202.182 852.621C190.337 850.671 178.551 850.386 166.575 850.573C175.622 847.898 185.504 846.674 194.871 845.692Z"/><path fill="#B4D1A4" d="M182.182 852.958C231.93 854.969 278.542 881.383 312.311 917.181C318.052 923.267 323.573 930.458 327.673 937.77C321.754 938.697 312.805 940.262 306.907 940.636C275.657 904.295 244.845 881.642 200.052 863.134C192.329 859.942 183.017 855.953 175.089 853.724C176.86 852.819 180.055 853.004 182.182 852.958Z"/><path fill="#B4D1A4" d="M92.1799 748.588C100.7 752.748 107.045 755.089 116.405 757.196C137.336 761.907 159.683 761.916 177.546 775.421C183.379 779.831 187.123 784.523 191.551 790.192C186.666 788.107 179.065 784.855 174.087 783.527C150.638 777.273 132.941 775.288 110.214 765.676L109.773 766.703C126.562 777.524 154.447 780.317 173.785 786.119C181.313 788.378 185.348 789.95 192.414 793.263C154.271 802.174 106.509 788.433 92.1799 748.588Z"/><path fill="#111715" d="M109.773 766.703C109.21 766.252 108.547 765.574 108.029 765.077L108.379 764.744L110.214 765.676L109.773 766.703Z"/><path fill="#B4D1A4" d="M954.461 792.491C954.857 792.871 954.676 792.605 954.768 793.408C928.049 822.41 873.618 814.152 853.243 833.477C861.779 830.955 871.553 825.998 879.889 824.029C910.703 816.753 931.817 817.675 956.677 795.336C955.422 797.805 953.997 800.366 952.684 802.822C944.186 818.081 922.8 833.988 905.182 833.416C882.214 832.67 871.381 830.573 848.662 838.082C851.318 833.851 862.111 817.708 865.612 815.644C892.398 799.85 926.525 807.127 954.461 792.491Z"/><path fill="#B4D1A4" d="M233.77 922.191C234.177 922.141 234.584 922.091 234.992 922.052C257.958 919.858 279.234 928.218 296.65 942.68L249.044 952.735C247.679 953.134 246.157 953.606 244.724 953.312C240.189 952.38 235.211 948.941 231.022 946.967C228.456 945.758 225.718 944.9 223.017 944.05C210.662 940.161 198.101 938.988 185.263 938.055C200.731 929.403 216.045 923.9 233.77 922.191Z"/><path fill="#B4D1A4" d="M276.916 652.363C280.63 654.605 280.752 665.651 280.967 669.608C282.243 693.046 268.747 712.893 256.51 731.634C252.381 737.956 248.865 744.925 244.602 751.045C248.264 726.147 252.549 714.846 263.02 692.37C264.218 689.574 265.097 686.7 266.049 683.809C254.413 700.736 246.463 725.087 243.487 745.265C236.443 706.703 246.167 676.892 276.916 652.363Z"/><path fill="#B4D1A4" d="M925.988 857.045L926.186 857.239C926.616 860.728 922.505 867.241 920.615 870.202C902.936 897.91 874.682 895.335 846.378 898.356C839.775 899.061 833.369 900.478 826.904 901.942C842.985 885.61 861.106 885.207 882.251 881.43C899.078 878.424 915.716 872.72 925.859 858.159C923.899 859.637 922.141 861.286 920.347 862.956C898.436 882.107 873.189 876.597 848.417 885.07C843.101 886.888 837.58 889.486 833.158 892.995C829.704 895.735 825.985 901.67 821.876 903.032L821.735 902.234C824.238 896.687 828.097 892.241 832.424 888.022C852.06 868.873 877.135 870.081 902.112 864.884C910.353 863.169 918.143 860.018 925.988 857.045Z"/><path fill="#B4D1A4" d="M204.213 666.396C198.974 654.74 197.267 644.42 197.222 631.75C197.143 609.612 205.251 595.416 220.559 580.159C235.561 608.073 221.858 645.991 208.208 671.82C206.79 660.023 207.648 647.077 210.088 635.436C211.293 629.689 213.406 622.637 213.83 616.94C206.26 630.09 205.763 648.247 205.505 663.32C205.53 664.878 205.762 666.774 205.182 668.078C204.884 667.591 204.408 666.894 204.213 666.396Z"/><path fill="#A5B991" d="M204.213 666.396L205.505 663.32C205.53 664.878 205.762 666.774 205.182 668.078C204.884 667.591 204.408 666.894 204.213 666.396Z"/><path fill="#B4D1A4" d="M141.556 345.517C146.486 350.989 147.77 372.82 146.072 379.869C141.635 398.291 131.416 417.868 120.237 432.916C122.789 411.133 125.359 394.783 132.401 374.233C132.343 373.771 132.413 374.084 131.949 373.384L131.069 373.857C123.982 384.851 120.126 415.547 118.215 429.542C106.836 394.905 112.579 368.214 141.556 345.517Z"/><path fill="#B4D1A4" d="M58.9373 660.014C67.2583 660.93 75.192 663.201 83.0342 665.852C110.319 675.076 120.363 692.531 137.989 712.76C120.786 703.61 103.116 693.959 87.2605 682.714C83.7279 680.209 80.1591 677.802 76.5393 675.426L75.9181 676.253C77.86 680.512 106.831 698.966 112.117 701.901C118.557 705.476 128.121 710.373 135.09 714.577C99.7787 707.489 71.2388 697.817 58.9373 660.014Z"/><path fill="#B4D1A4" d="M944 589.234C944.149 594.302 944.179 603.23 945.302 607.844C953.998 643.564 962.043 663.364 935.311 693.475C947.611 664.356 943.913 640.721 941.906 610.196C940.726 610.583 941.195 610.243 940.469 611.168C939.329 639.589 946.862 662.613 933.403 690.916C937.544 652.903 913.057 621.645 944 589.234Z"/><path fill="#3B4638" d="M941.183 606.434C941.381 606.915 941.785 607.972 942.017 608.39L941.906 610.196C940.726 610.583 941.195 610.243 940.469 611.168L941.183 606.434Z"/><path fill="#898E7C" d="M941.183 606.434L941.431 605.77C941.748 606.913 941.903 607.237 942.017 608.39C941.785 607.972 941.381 606.915 941.183 606.434Z"/><path fill="#B4D1A4" d="M144.996 499.475C145.556 486.023 156.383 468.308 166.19 459.463C173.705 452.683 182.369 448.165 192.075 445.587C196.85 475.58 176.032 493.389 152.539 507.833C150.466 509.108 148.474 510.287 146.257 511.324C152.982 498.349 161.817 486.292 170.586 474.642C171.574 473.329 174.426 469.885 174.798 468.507L174.235 468.096C168.973 470.927 151.124 498.124 147.859 504.225C146.723 506.035 145.435 508.49 144.361 510.397C144.37 506.983 144.261 502.745 144.996 499.475Z"/><path fill="#A5B991" d="M144.996 499.475C145.042 500.8 145.093 502.071 145.179 503.398C146.309 504.215 146.427 504.08 147.859 504.225C146.723 506.035 145.435 508.49 144.361 510.397C144.37 506.983 144.261 502.745 144.996 499.475Z"/><path fill="#B4D1A4" d="M189.457 520.44C191.795 522.688 191.777 531.967 191.894 535.499C192.708 560.132 176.191 577.222 160.36 593.786C163.538 580.789 167.17 570.829 173.094 558.882C175.208 554.618 180.56 545.115 181.647 541.336L181.175 540.919L179.908 542.316C167.935 560.943 162.889 575.827 157.267 596.775C156.143 584.251 154.729 573.223 157.428 560.933C162.271 538.879 171.705 531.856 189.457 520.44Z"/><path fill="#B4D1A4" d="M69.2572 402.205C92.8274 420.686 99.1851 443.959 100.196 472.533L98.7097 473.032C93.438 461.188 84.8118 440.209 76.9822 430.735C79.6068 438.484 85.3381 448.759 88.9128 456.275C92.2919 463.379 95.2572 470.761 98.5787 477.755C74.6178 454.038 59.3811 438.259 69.2572 402.205Z"/><path fill="#B4D1A4" d="M61.0526 536.733C90.9553 554.521 102.448 567.178 113.587 600.15C109.163 594.562 78.479 560.764 73.2136 558.823C76.0028 563.199 83.9642 571.444 87.6521 575.399L111.681 601.24C81.488 587.663 62.9638 570.886 61.0526 536.733Z"/><path fill="#B4D1A4" d="M623.784 853.703L624.302 853.765C623.57 854.817 608.833 864.088 605.737 866.674C595.946 874.852 587.498 885.03 578.852 894.391C570.159 894.956 561.496 895.975 552.817 896.733L552.341 896.462C552.913 894.215 565.039 876.346 567.135 873.632C577.842 859.776 606.882 855.834 623.784 853.703Z"/><path fill="#B4D1A4" d="M873.336 679.324L874.637 680.308C876.246 705.168 892.936 735.254 892.148 761.571C892.053 764.732 890.18 773.237 889.548 776.988L881.313 787.283C890.676 745.089 858.432 722.266 873.336 679.324Z"/><path fill="#B4D1A4" d="M254.502 443.964L255.887 443.412C256.795 454.079 257.698 464.765 259.833 475.274C270.14 526.019 298.31 573.952 338.86 606.363C338.616 609.784 338.438 612.72 338.411 616.148C329.479 607.383 319.554 598.19 311.459 588.661C286.731 559.553 266.018 524.331 258.001 486.673C255.263 473.814 254.307 457.185 254.502 443.964Z"/><path fill="#B4D1A4" d="M844.612 719.167C844.184 727.531 843.334 735.908 845.305 744.115C851.63 770.438 870.629 795.21 855.266 822.609C853.454 793.423 838.396 771.894 836.833 747.625C836.706 744.488 836.862 741.113 836.944 737.95C838.301 729.249 839.896 726.704 844.612 719.167Z"/><path fill="#B4D1A4" d="M867.78 686.41C868.792 687.919 868.671 687.279 868.789 688.898C868.067 693.711 867.197 700.324 867.57 705.169C870.189 739.152 886.115 753.84 878.433 789.426C873.095 748.775 843.435 731.162 867.78 686.41Z"/><path fill="#B4D1A4" d="M804.843 764.673L805.713 763.261C806.376 764.435 805.886 767.317 805.593 768.68C805.17 774.276 804.79 779.826 805.909 785.369C812.396 817.515 837.362 832.149 826.396 867.371C822.46 843.585 813.967 836.224 805.564 815.169C799.848 800.848 798.03 779.19 804.843 764.673Z"/><path fill="#A5B991" d="M804.843 764.673L805.713 763.261C806.376 764.435 805.886 767.317 805.593 768.68C805.394 766.833 805.335 766.456 804.843 764.673Z"/><path fill="#B4D1A4" d="M835.097 737.797L835.489 737.16L836.944 737.95C836.862 741.113 836.706 744.488 836.833 747.625C835.884 749.569 836.054 751.785 835.978 754.017C836.829 769.954 850.066 795.313 851.491 812.496C851.756 815.692 852.344 824.563 850.414 826.999C848.415 825.31 847.502 819.067 846.176 816.685C830.664 788.828 822.304 772.813 834.15 740.511L835.097 737.797Z"/><path fill="#111715" d="M835.097 737.797L835.489 737.16L836.944 737.95C836.862 741.113 836.706 744.488 836.833 747.625C835.884 749.569 836.054 751.785 835.978 754.017C835.344 750.328 835.542 745.073 835.587 741.21L834.15 740.511L835.097 737.797Z"/><path fill="#A5B991" d="M835.097 737.797L835.587 741.21L834.15 740.511L835.097 737.797Z"/><path fill="#B4D1A4" d="M490.839 158.447C490.668 160.526 486.282 168.346 485.015 171.016C461.361 220.897 468.344 273.105 474.698 326.247C473.267 328.452 471.85 330.272 470.257 332.345C461.934 276.35 455.577 207.541 490.839 158.447Z"/><path fill="#B4D1A4" d="M799.867 774.6C799.966 776.647 799.14 782.655 798.968 785.023C798.338 792.38 799.215 799.669 800.82 806.833C806.088 830.337 824.67 848.446 823.439 873.757C823.378 874.996 823.29 876.232 822.374 877.027L821.896 875.898C818.089 859.19 805.655 847.81 799.362 832.042C792.51 814.871 792.687 791.57 799.867 774.6Z"/><path fill="#B4D1A4" d="M973.336 678.02L974.645 679.382C973.683 686.85 972.938 691.634 970.383 698.757C962.424 720.946 938.332 733.367 917.792 742.631C921.207 738.42 927.956 730.688 932.199 727.582C953.187 712.221 962.851 702.623 973.336 678.02Z"/><path fill="#B4D1A4" d="M973.911 672.411C974.416 681.981 954.594 707.521 946.778 713.39C934.295 722.764 924.424 731.658 914.147 743.577C913.997 741.265 916.801 736.974 917.74 734.806C926.508 714.564 944.025 705.122 959.402 690.657C964.061 686.275 969.961 678.004 973.911 672.411Z"/><path fill="#B4D1A4" d="M903.977 644.366L905.579 645.472C899.043 670.482 911.348 701.361 912.666 728.066C908.545 712.228 901.747 701.511 897.154 686.376C893.083 672.961 896.962 656.362 903.977 644.366Z"/><path fill="#B4D1A4" d="M774.816 831.868L776.19 830.925C782.335 861.955 809.416 865.573 809.706 906.457C808.636 903.79 807.835 901.295 806.967 898.587C802.305 884.046 789 874.768 781.99 861.331C776.743 851.273 774.98 843.087 774.816 831.868Z"/><path fill="#B4D1A4" d="M907.146 644.465C907.676 649.006 908.702 661.297 909.479 664.675C915.379 690.362 923.249 705.847 915.17 732.392C915.033 733.05 914.866 733.3 914.591 733.921C913.822 732.863 914.087 732.447 914.012 730.865C912.602 701.715 901.115 671.646 907.146 644.465Z"/><path fill="#A5B991" d="M914.012 730.865L915.17 732.392C915.033 733.05 914.866 733.3 914.591 733.921C913.822 732.863 914.087 732.447 914.012 730.865Z"/><path fill="#B4D1A4" d="M773.007 835.805C773.843 838.006 773.966 840.591 774.272 842.922C775.153 849.635 776.161 855.734 779.353 861.803C785.513 873.514 803.503 889.579 805.67 901.237C805.933 902.648 806.123 903.429 805.33 904.615C797.174 894.679 787.346 886.263 780.552 875.216C773.237 863.32 769.74 849.556 773.007 835.805Z"/><path fill="#F58A7D" d="M684.156 707.62L684.591 708.965L685.584 709.441C687.716 708.151 686.741 706.553 689.018 705.241C690.202 705.53 690.118 705.512 691.05 706.311C692.188 703.319 689.401 705.526 691.816 702.738L692.821 702.648C699.982 711.071 682.702 724.132 672.411 713.693L673.55 711.522C675.654 712.004 678.103 712.939 679.992 712.342L680.42 711.477C681.537 709.155 681.566 707.85 684.156 707.62Z"/><path fill="#DA967B" d="M686.085 698.172L684.923 696.771C684.617 694.762 684.534 695.733 685.291 693.759C686.932 692.524 686.024 692.919 688.171 692.667C690.127 693.472 689.578 693.321 691.072 695.212L692.327 697.625C692.637 699.917 692.966 699.573 692.077 701.21C685.771 701.634 689.071 703.425 685.244 707.105C684.216 704.666 682.919 703.05 682.602 700.433C684.777 700.419 684.83 700.803 686.152 699.753L686.085 698.172Z"/><path fill="#F58A7D" d="M686.085 698.172L684.923 696.771C684.617 694.762 684.534 695.733 685.291 693.759C686.932 692.524 686.024 692.919 688.171 692.667C690.127 693.472 689.578 693.321 691.072 695.212L689.526 695.551C688.2 696.173 687.197 696.52 686.14 697.538L686.085 698.172Z"/><path d="M691.072 695.212L692.327 697.625L690.678 698.85C688.018 699.121 688.073 698.796 686.14 697.538C687.197 696.52 688.2 696.173 689.526 695.551L691.072 695.212Z"/><path fill="#DC876D" d="M691.072 695.212L692.327 697.625L690.678 698.85L689.526 695.551L691.072 695.212Z"/><path fill="#F58A7D" d="M686.431 719.109C688.298 720.096 688.847 721.849 688.547 723.784C686.159 726.693 685.333 726.469 681.597 727.08C680.027 726.876 680.775 727.046 679.31 725.938C678.028 721.657 683.159 719.671 686.431 719.109Z"/><path fill="#FBC68E" d="M680.42 711.477C675.688 705.856 675.769 703.322 682.132 699.214L682.602 700.433C682.919 703.05 684.216 704.666 685.244 707.105L684.156 707.62C681.566 707.85 681.537 709.155 680.42 711.477Z"/><path fill="#F58A7D" d="M648.886 797.655C650.991 798.227 652.8 798.584 654.932 799.003C654.1 799.51 652.877 799.914 652.641 800.881C652.429 801.753 652.477 801.411 652.583 802.364C648.017 801.981 647.949 805.641 642.941 806.27L642.874 805.468C644.562 802.406 646.596 800.285 648.886 797.655Z"/><path fill="#DC876D" fill-opacity="0.015686275" d="M654.932 799.003C655.765 801.495 656.457 809.075 656.566 811.866C653.922 807.946 653.145 807.148 652.583 802.364C652.477 801.411 652.429 801.753 652.641 800.881C652.877 799.914 654.1 799.51 654.932 799.003Z"/><path fill="#434440" d="M641.659 700.191C648.732 699.801 655.718 702.172 659.081 708.72C656.915 707.388 655.198 704.251 652.793 703.239C649.686 701.931 644.609 701.717 641.659 700.191Z"/><path fill="#5D5C59" fill-opacity="0.98823529" d="M638.606 707.774C643 707.146 647.995 706.568 651.612 709.478C649.738 709.368 639.661 708.32 638.606 707.774Z"/><path fill="#668F64" d="M254.502 443.964C254.308 439.325 254.776 435.691 255.365 431.104C255.796 434.52 255.787 439.838 255.887 443.412L254.502 443.964Z"/><path fill="#6D7468" d="M640.443 703.076C642.325 702.926 644.773 702.629 646.381 703.747C644.91 704.46 643.168 704.049 641.319 703.936C639.52 704.41 637.939 705.004 636.117 704.745C637.481 703.659 638.743 703.511 640.443 703.076Z"/><path fill="#434440" fill-opacity="0.98823529" d="M646.066 697.899L647.028 697.63C650.852 698.372 653.131 699.189 656.202 701.615C655.133 701.423 646.814 698.537 646.066 697.899Z"/><path fill="#898E7C" d="M656.785 698.779C659.547 699.537 662.318 699.984 665.186 700.779C660.78 702.233 660.156 701.88 656.785 698.779Z"/><path fill="#5D5C59" fill-opacity="0.98039216" d="M640.402 710.2C643.723 709.952 646.168 710.427 648.645 712.64C647.01 712.35 641.363 711.243 640.402 710.2Z"/><path fill="#6D7468" fill-opacity="0.98823529" d="M175.089 853.724C173.501 853.518 172.99 853.744 171.984 852.883C175.19 852.218 178.964 852.459 182.182 852.958C180.055 853.004 176.86 852.819 175.089 853.724Z"/><path fill="#DA967B" d="M672.411 713.693C671.714 711.822 671.174 708.725 673.848 708.283C674.467 708.802 674.173 708.437 674.481 709.538L673.477 710.749L673.55 711.522L672.411 713.693Z"/><path fill="#3B4638" d="M754.014 907.449L754.271 907.692C754.091 909.054 751.064 910.912 749.914 911.845L749.622 911.699L749.411 911.039C750.611 909.398 752.318 908.501 754.014 907.449Z"/><path fill="#D7D7C8" d="M568.996 179.73L569.63 180.19L566.714 186.226L566.077 185.088C566.932 183.194 567.955 181.525 568.996 179.73Z"/><path fill="#BAB8B6" fill-opacity="0.98823529" d="M817.501 900.84L818.301 901.756C817.849 903.712 817.775 904.403 816.866 906.153L816.354 906.17C816.187 903.998 816.762 902.959 817.501 900.84Z"/><path fill="#5D5C59" d="M645.163 695.591L645.193 696.203C643.875 697.615 642.159 698.313 640.426 699.195L640.416 698.607C641.598 697.229 643.502 696.446 645.163 695.591Z"/><path fill="#A5B991" d="M869.986 682.014C869.692 683.973 869.337 687.107 868.789 688.898C868.671 687.279 868.792 687.919 867.78 686.41L869.986 682.014Z"/><path fill="#A5B991" d="M903.977 644.366L905.545 641.827L906.179 641.713C906.109 643.617 906.05 643.718 905.579 645.472L903.977 644.366Z"/><path fill="#DC876D" fill-opacity="0.043137256" d="M647.531 806.657C648.522 806.97 648.671 806.892 649.386 807.716L648.835 808.785C647.927 808.758 647.257 808.955 646.524 808.383L647.531 806.657Z"/><path fill="#434440" d="M568.996 179.73C569.706 178.232 569.94 177.053 571.096 176.24C570.702 178.147 570.519 178.415 569.63 180.19L568.996 179.73Z"/><path fill="#DC876D" d="M706.812 659.609C705.858 658.506 705.749 658.569 705.466 657.176L706.082 657.014L707.821 658.754L706.812 659.609Z"/><path fill="#D7D7C8" fill-opacity="0.011764706" d="M693.576 832.574L693.839 830.768L694.432 830.744C694.9 831.632 695.341 832.459 695.774 833.368L693.576 832.574Z"/><path fill="#A5B991" d="M973.336 678.02L973.993 675.988L974.44 676.239C974.555 677.41 974.639 678.197 974.645 679.382L973.336 678.02Z"/><path fill="#434440" fill-opacity="0.98431373" d="M648.993 696.046C651.855 695.857 652.188 696.01 654.52 697.419C652.648 697.172 650.815 696.572 648.993 696.046Z"/><path fill="#A75954" fill-opacity="0.98431373" d="M712.443 661.391C712.458 660.174 712.561 659.702 712.772 658.493L713.266 658.713L713.797 660.526C713.177 660.855 712.881 660.913 712.443 661.391Z"/><path fill="#744344" fill-opacity="0.98431373" d="M708 657.831C707.645 656.146 707.322 656.104 707.899 654.85C708.738 656.08 708.641 656.07 708.891 657.567L708 657.831Z"/><path fill="#F3C181" d="M414.159 836.559L413.903 838.875L413.541 839.105C413.112 838.251 412.836 837.767 412.511 836.869L414.159 836.559Z"/><path fill="#B4D1A4" fill-opacity="0.98431373" d="M98.7097 473.032L100.196 472.533L99.9709 474.641L99.58 474.929L98.7097 473.032Z"/><path fill="#5D5C59" d="M817.501 900.84L818.023 899.322L818.418 899.7C818.394 900.255 818.383 901.243 818.301 901.756L817.501 900.84Z"/><path fill="#898E7C" d="M774.816 831.868C775.153 830.144 774.725 830.635 775.7 829.645L776.19 830.925L774.816 831.868Z"/><path fill="#3B4638" d="M324.956 712.143L325.213 710.743L325.686 710.584C325.763 711.013 325.916 711.698 325.923 712.106L324.956 712.143Z"/><path fill="#A5B991" d="M873.336 679.324L874.179 678.245C874.532 679.353 874.497 679.133 874.637 680.308L873.336 679.324Z"/><path fill="#FBC68E" d="M881.343 349.714C884.114 353.089 884.545 358.916 885.75 363.156C888.454 372.677 900.775 373.114 908.447 377.517C901.496 378.643 892.183 380.553 888.223 387.099C885.528 391.555 884.64 400.647 881.763 404.631C878.452 397.057 878.336 387.249 869.563 382.789C864.969 380.454 860.01 378.954 855.133 377.317C880.224 367.66 873.611 374.912 881.343 349.714Z"/><path fill="#FBC68E" d="M189.364 237.396C192.565 240.696 192.648 249.636 194.662 253.282C198.37 259.999 207.632 262.844 214.404 264.997C210.716 266.209 203.733 268.18 200.487 269.82C192.016 274.099 196.208 285.951 189.348 291.638C185.101 272.073 181.805 270.161 163.445 264.993C173.922 260.94 184.194 259.95 186.322 248.316C186.902 245.143 188.232 240.409 189.364 237.396Z"/><path fill="#FBC68E" d="M820.665 86.9036L821.252 87.1949C819.481 94.1097 722.793 164.217 710.178 172.563C709.571 171.976 709.672 171.959 709.261 171.171C712.287 163.715 808.479 95.3383 820.665 86.9036Z"/><path fill="#FBC68E" d="M305.574 132.145C308.656 134.301 308.617 141.052 311.568 143.627C314.991 146.614 319.295 147.579 323.169 150.3C309.776 154.858 309.713 154.931 306.658 168.341C303.257 165.549 304.087 160.484 300.732 156.949C297.965 154.034 291.468 152.888 289.984 149.799C290.972 148.332 292.592 147.853 294.365 147.177C301.409 144.492 302.972 138.608 305.574 132.145Z"/><path fill="#FBC68E" d="M750.339 515.288C752.618 516.993 752.698 521.341 754.111 524.014C756.728 528.962 763.647 530.746 768.581 532.398C753.101 537.124 755.582 537.361 751.01 551.735C748.646 549.59 747.333 541.353 746.249 539.139C744.194 534.941 736.017 532.643 731.855 531.33C737.002 530.212 739.88 529.521 744.713 527.532C747.801 523.873 748.81 519.792 750.339 515.288Z"/><path fill="#FBC68E" d="M810.802 172.883C815.664 172.034 819.67 171.324 824.613 170.899C821.728 172.102 818.042 173.617 814.931 174.136C810.002 175.798 796.292 179.538 791.769 180.517C783.861 182.227 730.221 197.576 726.296 195.139L726.385 194.419C736.862 188.419 797.658 175.496 810.802 172.883Z"/><path fill="#FBC68E" d="M746.389 79.3842L746.835 80.1989C745.498 82.8993 739.238 91.2196 737.065 94.4583C728.125 107.787 718.964 121.228 709.675 134.309C706.303 139.057 698.978 150.05 694.869 153.498C694.413 152.89 694.004 152.639 694.053 151.822C694.547 143.701 738.675 87.9953 746.389 79.3842Z"/><path fill="#FBC68E" d="M730.478 255.917C743.703 259.462 759.394 265.061 772.448 269.484C783.068 273.083 801.977 279.133 811.215 284.52L811.221 285.46C787.269 279.56 763.594 270.404 740.296 262.36C737.185 261.286 733.597 260.052 730.652 258.627C729.835 257.021 729.982 257.883 730.478 255.917Z"/><path fill="#FBC68E" d="M728.769 223.118C746.369 223.474 763.976 224.276 781.537 225.452C786.991 225.818 802.833 226.501 807.721 227.584L807.825 228.589C802.312 229.717 733.735 227.739 728.915 226.05C728.175 224.427 728.425 225.302 728.769 223.118Z"/><path fill="#FBC68E" d="M728.333 288.784C734.621 290.844 775.57 326.326 779.023 332.113C771.925 330.429 737.959 300.106 730.141 294.344C727.828 292.639 728.014 291.328 728.333 288.784Z"/><path fill="#FBC68E" d="M166.456 174.206C174.084 175.084 173.249 180.402 169.284 185.199C162.316 183.22 161.757 179.519 166.456 174.206Z"/><path fill="#FBC68E" d="M851.768 528.351C854.068 527.49 856.635 528.613 857.564 530.885C858.493 533.158 857.447 535.757 855.203 536.753C853.691 537.424 851.934 537.22 850.616 536.22C849.298 535.22 848.629 533.582 848.869 531.945C849.108 530.308 850.219 528.932 851.768 528.351Z"/><path fill="#BAB8B6" fill-opacity="0.011764706" d="M904.318 759.976C906.143 762.246 907.361 762.916 909.984 764.309C905.421 766.992 900.519 769.972 897.634 774.634L895.757 774.968C897.131 771.568 902.167 763.641 904.318 759.976Z"/><path fill="#FDFBEB" fill-opacity="0.011764706" d="M645.01 811.567C646.513 812.673 646.94 813.246 648.803 813.223C650.251 812.211 650.332 811.329 650.722 809.381L650.911 808.411C651.781 810.031 652.67 811.471 653.631 813.04C655.456 813.412 657.769 814.131 659.465 813.626C660.383 812.05 660.007 812.096 659.834 809.853C662.07 810.216 661.264 809.684 662.551 811.133C662.458 812.919 662.302 813.344 660.893 814.755C657.045 818.609 653.671 811.906 649.564 814.354C648.19 815.173 647.406 815.352 646.022 815.051C645.173 813.789 644.996 813.168 645.01 811.567Z"/><path fill="#BAB8B6" fill-opacity="0.023529412" d="M417.68 149.1C418.238 147.707 417.967 145.487 417.898 143.886C419.522 142.633 420.896 143.089 423.178 143.29L423.776 142.612L423.56 139.747L424.107 139.524C426.026 140.097 426.63 140.324 428.415 141.255L428.848 141.484L429.715 140.918L430.367 141.312C426.424 144.025 421.825 146.65 417.68 149.1Z"/><path d="M615.989 921.614C619.984 921.476 626.853 920.474 630.386 922.276L630.602 923.078L629.436 924.009C625.41 924.066 618.255 925.151 614.691 923.223L614.578 922.295L615.989 921.614Z"/><path d="M763.845 925.589C765.368 925.554 766.112 925.326 767.421 926.154L767.178 927.039C764.14 929.346 760.781 929.585 757.122 929.971C755.496 930.092 754.109 930.389 752.639 929.643C754.491 927.308 761.032 926.283 763.845 925.589Z"/><path d="M711.823 934.673C712.999 934.614 713.581 934.394 714.628 935.014L714.012 935.902C711.502 937.334 709.551 937.705 706.731 938.039C706.613 938.038 706.496 938.04 706.379 938.036C705.115 937.997 704.183 938.234 703.273 937.305C705.095 935.343 709.259 935.005 711.823 934.673Z"/><path d="M690.378 925.724C691.868 925.902 692.842 926.052 694.14 926.897L693.884 927.407C691.48 928.283 689.372 928.12 686.877 927.985C685.781 928.04 684.321 927.978 683.469 927.291L683.679 926.913C685.948 925.827 687.927 925.792 690.378 925.724Z"/><path d="M705.492 914.684C707.884 914.563 710.73 914.203 713.044 914.901C714.451 915.326 714.698 915.719 715.373 916.987C712.769 916.98 709.593 917.191 707.123 916.367C705.952 915.976 705.976 915.752 705.492 914.684Z"/><path d="M665.504 936.578C666.754 936.521 668.027 936.597 669.268 936.766C671.018 937.005 671.718 937.571 672.749 938.958C671.313 939.347 669.055 939.887 667.652 939.301C666.175 938.684 666.055 937.949 665.504 936.578Z"/><path fill="#FDFBEB" fill-opacity="0.011764706" d="M326.403 827.209C327.329 830.044 328.228 832.925 329.306 835.703C327.443 833.339 325.838 831.156 324.089 828.709C324.931 828.012 325.442 827.777 326.403 827.209Z"/><path d="M629.155 936.643C629.706 936.702 630.258 936.76 630.809 936.829C633.028 937.106 634.764 937.221 636.212 939.076C634.254 939.135 631.964 939.341 630.198 938.359C629.348 937.886 629.442 937.502 629.155 936.643Z"/><path fill="#BAB8B6" fill-opacity="0.039215688" d="M831.302 847.122C832.781 849.954 830.191 854.633 832.769 856.947C832.594 857.376 831.936 858.498 831.679 858.966L831.231 858.777C830.705 855.99 830.994 850.07 831.302 847.122Z"/><path d="M383.953 170.859L383.291 169.488L384.425 168.709L383.173 167.676L384.249 167.274L385.081 168.142C386.119 168.289 386.011 168.365 387.004 168.845L383.953 170.859Z"/><path d="M301.352 869.884C303.065 870.299 304.674 870.609 306.19 871.536L304.914 872.475C303.404 872.307 302.382 870.904 301.352 869.884Z"/><path fill="#FDFBEB" fill-opacity="0.027450981" d="M811.915 902.32C812.841 902.539 813.441 902.591 814.262 903.007C813.877 903.923 813.522 904.662 813.095 905.56L812.538 905.379L811.915 902.32Z"/><path d="M874.125 362.848C875.291 363.757 875.238 364.49 875.143 365.742C873.34 365.038 873.788 365.605 872.95 364.348L874.125 362.848Z"/><path d="M325.9 696.348L326.907 694.107L327.367 693.987L327.536 695.865L325.9 696.348Z"/></svg>